SplineFontDB: 3.0
FontName: BubblerOne
FullName: Bubbler One
FamilyName: Bubbler One
Weight: Regular
Copyright: Copyright (c) 2011 by Brenda Gallo (gbrenda1987@gmail.com), with Reserved Font Name "Bubbler"
Version: 001.001
ItalicAngle: 0
UnderlinePosition: -50
UnderlineWidth: 50
Ascent: 800
Descent: 200
sfntRevision: 0x00010042
LayerCount: 2
Layer: 0 1 "Back"  1
Layer: 1 1 "Fore"  0
XUID: [1021 288 713564382 388486]
FSType: 0
OS2Version: 2
OS2_WeightWidthSlopeOnly: 0
OS2_UseTypoMetrics: 1
CreationTime: 1320659176
ModificationTime: 1321894037
PfmFamily: 17
TTFWeight: 400
TTFWidth: 5
LineGap: 0
VLineGap: 0
Panose: 2 1 5 6 2 1 0 2 0 4
OS2TypoAscent: 100
OS2TypoAOffset: 1
OS2TypoDescent: -63
OS2TypoDOffset: 1
OS2TypoLinegap: 0
OS2WinAscent: 0
OS2WinAOffset: 1
OS2WinDescent: -526
OS2WinDOffset: 1
HheadAscent: 0
HheadAOffset: 1
HheadDescent: 0
HheadDOffset: 1
OS2SubXSize: 700
OS2SubYSize: 650
OS2SubXOff: 0
OS2SubYOff: 140
OS2SupXSize: 700
OS2SupYSize: 650
OS2SupXOff: 0
OS2SupYOff: 477
OS2StrikeYSize: 50
OS2StrikeYPos: 250
OS2Vendor: 'pyrs'
OS2CodePages: 00000001.00000000
OS2UnicodeRanges: 8000002f.0000000a.00000000.00000000
Lookup: 258 0 0 "'kern' Horizontal Kerning in Latin lookup 0"  {"'kern' Horizontal Kerning in Latin lookup 0 per glyph data 0"  "'kern' Horizontal Kerning in Latin lookup 0 kerning class 1"  } ['kern' ('latn' <'dflt' > ) ]
MarkAttachClasses: 1
DEI: 91125
KernClass2: 63+ 53 "'kern' Horizontal Kerning in Latin lookup 0 kerning class 1" 
 2 at
 20 quotesingle quotedbl
 40 period comma quotesinglbase quotedblbase
 15 colon semicolon
 22 quoteleft quotedblleft
 24 quoteright quotedblright
 5 slash
 28 endash hyphen emdash uni00AD
 27 guilsinglleft guillemotleft
 29 guillemotright guilsinglright
 9 backslash
 10 registered
 8 asterisk
 50 A Aacute Agrave Adieresis Acircumflex Atilde Aring
 1 B
 10 C Ccedilla
 5 D Eth
 43 E Eacute Egrave Edieresis Ecircumflex AE OE
 1 F
 50 H I M N Iacute Idieresis Igrave Icircumflex Ntilde
 1 J
 1 L

StartChar: h
Encoding: 104 104 1
Width: 482
Flags: MW
HStem: 0 21G<70 107 70 70 381 381 381 418> 474 37<219 275 219 282.5> 730 20G<70 107 107 107>
VStem: 70 37<0 390 440 750> 382 37<233.5 318.5>
LayerCount: 2
Fore
SplineSet
381 0 m 1,0,-1
 382 264 l 2,1,2
 382 348 382 348 341.5 411 c 128,-1,3
 301 474 301 474 242 474 c 0,4,5
 204 474 204 474 172.5 451.5 c 128,-1,6
 141 429 141 429 107 390 c 1,7,-1
 107 0 l 1,8,-1
 70 0 l 1,9,-1
 70 750 l 1,10,-1
 107 750 l 1,11,-1
 107 440 l 1,12,13
 173 511 173 511 248 511 c 0,14,15
 289.171428571 511 289.171428571 511 331 480.5 c 0,16,17
 419 416.333333333 419 416.333333333 419 265 c 2,18,-1
 418 0 l 1,19,-1
 381 0 l 1,0,-1
EndSplineSet
EndChar

StartChar: a
Encoding: 97 97 2
Width: 460
Flags: MW
HStem: -1 38<276.5 390> 474 37<185 241 185 246> 480 20G<353 390 390 390>
VStem: 41 37<174 332 174 363> 353 37<37 390 390 390 440 500 -1 500>
LayerCount: 2
Fore
SplineSet
353 500 m 1,0,-1
 390 500 l 1,1,-1
 390 -1 l 1,2,3
 330 -1 330 -1 285 4 c 128,-1,4
 240 9 240 9 191.5 25.5 c 128,-1,5
 143 42 143 42 112 70 c 128,-1,6
 81 98 81 98 61 147.5 c 128,-1,7
 41 197 41 197 41 259 c 128,-1,8
 41 321 41 321 53.5 365.5 c 128,-1,9
 66 410 66 410 85.5 436.5 c 128,-1,10
 105 463 105 463 129 480.5 c 0,11,12
 170.828571429 511 170.828571429 511 212 511 c 0,13,14
 287 511 287 511 353 440 c 1,15,-1
 353 500 l 1,0,-1
78 264 m 0,16,17
 78 133.384615385 78 133.384615385 159 82.5 c 0,18,19
 231.428571429 37 231.428571429 37 353 37 c 1,20,-1
 353 390 l 1,21,22
 319 429 319 429 287.5 451.5 c 128,-1,23
 256 474 256 474 218 474 c 0,24,25
 155 474 155 474 116.5 418.5 c 128,-1,26
 78 363 78 363 78 264 c 0,16,17
EndSplineSet
EndChar

StartChar: e
Encoding: 101 101 3
Width: 433
Flags: MW
HStem: -1 37<291.5 393> 264 37<78 354 78 390 77 354> 473 37<184 259>
VStem: 40 37<174 264 174 363> 354 37<301 381.5 323.5 366>
LayerCount: 2
Fore
SplineSet
393 36 m 1,0,-1
 393 -1 l 1,1,2
 333 -1 333 -1 287.5 4 c 128,-1,3
 242 9 242 9 193 25.5 c 128,-1,4
 144 42 144 42 112.5 70 c 128,-1,5
 81 98 81 98 60.5 147.5 c 128,-1,6
 40 197 40 197 40 265.5 c 128,-1,7
 40 334 40 334 58.5 385 c 128,-1,8
 77 436 77 436 105.5 461.5 c 0,9,10
 159.705882353 510 159.705882353 510 211 510 c 0,11,12
 296 510 296 510 343.5 460 c 128,-1,13
 391 410 391 410 391 328 c 0,14,15
 391 273 391 273 390 264 c 1,16,-1
 77 264 l 1,17,18
 77 135 77 135 154 85.5 c 128,-1,19
 231 36 231 36 393 36 c 1,0,-1
354 301 m 1,20,-1
 354 323 l 2,21,22
 354 389 354 389 316.5 431 c 128,-1,23
 279 473 279 473 217.5 473 c 128,-1,24
 156 473 156 473 120.5 424.5 c 128,-1,25
 85 376 85 376 78 301 c 1,26,-1
 354 301 l 1,20,-1
EndSplineSet
EndChar

StartChar: s
Encoding: 115 115 4
Width: 413
Flags: MW
HStem: -2 37<44 69 44 121> 473 37<179.5 241 167.5 245>
VStem: 32 36<319 426.5 319 441.5> 342 37<102 241.5>
LayerCount: 2
Fore
SplineSet
318.5 92 m 128,-1,1
 342 117 342 117 342 159.5 c 128,-1,2
 342 202 342 202 310 226 c 128,-1,3
 278 250 278 250 232.5 257 c 128,-1,4
 187 264 187 264 141.5 272.5 c 128,-1,5
 96 281 96 281 64 310 c 128,-1,6
 32 339 32 339 32 394 c 0,7,8
 32 510 32 510 212 510 c 0,9,10
 278 510 278 510 365 496 c 1,11,-1
 365 457 l 1,12,13
 275 473 275 473 214 473 c 128,-1,14
 153 473 153 473 110.5 455.5 c 128,-1,15
 68 438 68 438 68 396.5 c 128,-1,16
 68 355 68 355 100 332.5 c 128,-1,17
 132 310 132 310 177.5 301.5 c 128,-1,18
 223 293 223 293 269 282 c 128,-1,19
 315 271 315 271 347 238.5 c 128,-1,20
 379 206 379 206 379 147 c 0,21,22
 379 73.7192982456 379 73.7192982456 322.5 42 c 0,23,24
 294 26 294 26 268 16.5 c 128,-1,25
 242 7 242 7 199 3.5 c 0,26,27
 131.428571429 -2 131.428571429 -2 69 -2 c 2,28,-1
 44 -2 l 1,29,-1
 44 35 l 1,30,31
 173.666666667 35 173.666666667 35 234.333333333 51 c 128,-1,0
 295 67 295 67 318.5 92 c 128,-1,1
EndSplineSet
EndChar

StartChar: i
Encoding: 105 105 5
Width: 177
Flags: MW
HStem: 0 21G<70 107 70 70> 480 20G<70 107 107 107> 645 20G<72 109 109 109>
VStem: 70 37<0 500>
LayerCount: 2
Fore
SplineSet
107 0 m 1,0,-1
 70 0 l 1,1,-1
 70 500 l 1,2,-1
 107 500 l 1,3,-1
 107 0 l 1,0,-1
72 665 m 1,4,-1
 109 665 l 1,5,-1
 109 579 l 1,6,-1
 72 579 l 1,7,-1
 72 665 l 1,4,-1
EndSplineSet
EndChar

StartChar: o
Encoding: 111 111 6
Width: 451
Flags: MW
HStem: -2 21G<193.5 258.5> 473 37<168 279>
VStem: 41 37<186 237 237 245 186 316> 373 37<199 269 150 316>
LayerCount: 2
Fore
SplineSet
410 269 m 0,0,1
 410 201 410 201 397 149.5 c 128,-1,2
 384 98 384 98 364.5 70 c 128,-1,3
 345 42 345 42 318.5 25 c 0,4,5
 249.904128761 -19.0048985304 249.904128761 -19.0048985304 169 7 c 0,6,7
 141 16 141 16 110 39.5 c 128,-1,8
 79 63 79 63 60 114 c 128,-1,9
 41 165 41 165 41 239 c 0,10,11
 41 359 41 359 89 434.5 c 128,-1,12
 137 510 137 510 227.5 510 c 128,-1,13
 318 510 318 510 363.5 439 c 128,-1,14
 409 368 409 368 410 269 c 0,0,1
214 35 m 2,15,-1
 226 34 l 1,16,-1
 237 35 l 2,17,18
 373 48 373 48 373 264 c 0,19,20
 373 353 373 353 337 413 c 128,-1,21
 301 473 301 473 222 473 c 0,22,23
 171 473 171 473 137 437.5 c 0,24,25
 78 375.897058824 78 375.897058824 78 245 c 2,26,-1
 78 237 l 2,27,28
 78 154 78 154 112 97.5 c 128,-1,29
 146 41 146 41 214 35 c 2,15,-1
EndSplineSet
EndChar

StartChar: n
Encoding: 110 110 7
Width: 482
Flags: MW
HStem: 0 21G<70 107 70 70 381 381 381 418> 473 37<219 275 219 282.5> 480 20G<70 107 107 107>
VStem: 70 37<0 390 440 500> 382 37<233.5 318.5>
LayerCount: 2
Fore
SplineSet
381 0 m 1,0,-1
 382 264 l 2,1,2
 382 348 382 348 341.5 410.5 c 128,-1,3
 301 473 301 473 240.5 473 c 128,-1,4
 180 473 180 473 107 390 c 1,5,-1
 107 0 l 1,6,-1
 70 0 l 1,7,-1
 70 500 l 1,8,-1
 107 500 l 1,9,-1
 107 440 l 1,10,11
 172 510 172 510 248 510 c 0,12,13
 299.294117647 510 299.294117647 510 353.5 461.5 c 0,14,15
 382 436 382 436 400.5 385 c 128,-1,16
 419 334 419 334 419 265 c 2,17,-1
 418 0 l 1,18,-1
 381 0 l 1,0,-1
EndSplineSet
EndChar

StartChar: b
Encoding: 98 98 9
Width: 460
Flags: MW
HStem: -1 38<70 181> 474 37<219.5 273.5 219.5 282> 730 20G<70 107 107 107>
VStem: 70 37<37 390 440 750> 382 37<171 327.5>
LayerCount: 2
Fore
SplineSet
70 750 m 1,0,-1
 107 750 l 1,1,-1
 107 440 l 1,2,3
 171 511 171 511 243 511 c 0,4,5
 297.843137255 511 297.843137255 511 353 462.5 c 0,6,7
 382 437 382 437 400.5 386 c 128,-1,8
 419 335 419 335 419 266.5 c 128,-1,9
 419 198 419 198 399 148 c 128,-1,10
 379 98 379 98 348 70 c 128,-1,11
 317 42 317 42 268.5 25.5 c 128,-1,12
 220 9 220 9 175 4 c 128,-1,13
 130 -1 130 -1 70 -1 c 1,14,-1
 70 750 l 1,0,-1
382 258 m 0,15,16
 382 360 382 360 343 417 c 128,-1,17
 304 474 304 474 242 474 c 128,-1,18
 180 474 180 474 107 390 c 1,19,-1
 107 37 l 1,20,21
 382 37 382 37 382 258 c 0,15,16
EndSplineSet
EndChar

StartChar: p
Encoding: 112 112 10
Width: 460
Flags: MW
HStem: -250 21G<70 107 70 70> 0 37<107 183.5> 474 37<219 275 219 282.5> 480 20G<70 107 107 107>
VStem: 70 37<-250 0 37 390 440 500> 382 37<174 318.5>
LayerCount: 2
Fore
SplineSet
107 -250 m 1,0,-1
 70 -250 l 1,1,-1
 70 500 l 1,2,-1
 107 500 l 1,3,-1
 107 440 l 1,4,5
 173 511 173 511 248 511 c 0,6,7
 289.171428571 511 289.171428571 511 331 480.5 c 0,8,9
 419 416.333333333 419 416.333333333 419 265 c 0,10,11
 419 87.0588235294 419 87.0588235294 286.5 32.5 c 0,12,13
 217.511627907 4.09302325581 217.511627907 4.09302325581 107 0 c 1,14,-1
 107 -250 l 1,0,-1
361 153 m 0,15,16
 382 199 382 199 382 273.5 c 128,-1,17
 382 348 382 348 341.5 411 c 128,-1,18
 301 474 301 474 242 474 c 0,19,20
 204 474 204 474 172.5 451.5 c 128,-1,21
 141 429 141 429 107 390 c 1,22,-1
 107 37 l 1,23,24
 308.043478261 37 308.043478261 37 361 153 c 0,15,16
EndSplineSet
EndChar

StartChar: q
Encoding: 113 113 11
Width: 460
Flags: MW
HStem: -250 21G<353 390 353 353> 0 37<276.5 353> 474 37<185 241 185 246> 480 20G<353 390 390 390>
VStem: 41 37<174 318.5 174 363> 353 37<-250 0 0 0 37 390 390 390 440 500>
LayerCount: 2
Fore
SplineSet
390 -250 m 1,0,-1
 353 -250 l 1,1,-1
 353 0 l 1,2,3
 173.594740391 6.64463924477 173.594740391 6.64463924477 103 78.5 c 0,4,5
 41 141.607142857 41 141.607142857 41 265 c 0,6,7
 41 416.333333333 41 416.333333333 129 480.5 c 0,8,9
 170.828571429 511 170.828571429 511 212 511 c 0,10,11
 287 511 287 511 353 440 c 1,12,-1
 353 500 l 1,13,-1
 390 500 l 1,14,-1
 390 -250 l 1,0,-1
118.5 411 m 128,-1,16
 78 348 78 348 78 273.5 c 128,-1,17
 78 199 78 199 99 153 c 128,-1,18
 120 107 120 107 159 82.5 c 0,19,20
 231.428571429 37 231.428571429 37 353 37 c 1,21,-1
 353 390 l 1,22,23
 319 429 319 429 287.5 451.5 c 128,-1,24
 256 474 256 474 218 474 c 0,25,15
 159 474 159 474 118.5 411 c 128,-1,16
EndSplineSet
EndChar

StartChar: r
Encoding: 114 114 12
Width: 369
Flags: MW
HStem: 0 21G<70 107 70 70> 473 36<230 271> 480 20G<70 107 107 107>
VStem: 70 37<0 377 427 500> 317 37<413 432>
LayerCount: 2
Fore
SplineSet
107 0 m 1,0,-1
 70 0 l 1,1,-1
 70 500 l 1,2,-1
 107 500 l 1,3,-1
 107 427 l 1,4,5
 128 452 128 452 171.5 480.5 c 128,-1,6
 215 509 215 509 254.5 509 c 0,7,8
 294 509 294 509 323.5 486.5 c 128,-1,9
 353 464 353 464 354 413 c 1,10,-1
 317 413 l 1,11,12
 317 441 317 441 299 457 c 128,-1,13
 281 473 281 473 250 473 c 0,14,15
 219 473 219 473 174.5 443 c 128,-1,16
 130 413 130 413 107 377 c 1,17,-1
 107 0 l 1,0,-1
EndSplineSet
EndChar

StartChar: c
Encoding: 99 99 13
Width: 416
Flags: MW
HStem: -1 37<289.5 391> 473 37<185 246>
VStem: 41 37<174 318.5 174 363>
LayerCount: 2
Fore
SplineSet
390 399 m 1,0,-1
 352 400 l 1,1,2
 336 433 336 433 298 453 c 128,-1,3
 260 473 260 473 218 473 c 0,4,5
 150 473 150 473 114 412.5 c 128,-1,6
 78 352 78 352 78 264 c 0,7,8
 78 135 78 135 154 85.5 c 128,-1,9
 230 36 230 36 391 36 c 1,10,-1
 391 -1 l 1,11,12
 331 -1 331 -1 286 4 c 128,-1,13
 241 9 241 9 192 25.5 c 128,-1,14
 143 42 143 42 112 70 c 128,-1,15
 81 98 81 98 61 147.5 c 128,-1,16
 41 197 41 197 41 265.5 c 128,-1,17
 41 334 41 334 59.5 385 c 128,-1,18
 78 436 78 436 106.5 461.5 c 0,19,20
 160.705882353 510 160.705882353 510 218.852941176 510 c 128,-1,21
 277 510 277 510 325 480 c 128,-1,22
 373 450 373 450 390 399 c 1,0,-1
EndSplineSet
EndChar

StartChar: u
Encoding: 117 117 14
Width: 481
Flags: MW
HStem: -10 37<206 262> 0 21G<374 411 374 374> 480 20G<63 100 100 100 374 411 411 411>
VStem: 62 37<181.5 266.5> 374 37<0 60 60 60 110 500 0 500>
LayerCount: 2
Fore
SplineSet
100 500 m 1,0,-1
 99 236 l 2,1,2
 99 152 99 152 139.5 89.5 c 128,-1,3
 180 27 180 27 240.5 27 c 128,-1,4
 301 27 301 27 374 110 c 1,5,-1
 374 500 l 1,6,-1
 411 500 l 1,7,-1
 411 0 l 1,8,-1
 374 0 l 1,9,-1
 374 60 l 1,10,11
 309 -10 309 -10 233 -10 c 0,12,13
 181.705882353 -10 181.705882353 -10 127.5 38.5 c 0,14,15
 99 64 99 64 80.5 115 c 128,-1,16
 62 166 62 166 62 235 c 2,17,-1
 63 500 l 1,18,-1
 100 500 l 1,0,-1
EndSplineSet
EndChar

StartChar: m
Encoding: 109 109 15
Width: 774
Flags: MW
HStem: 0 21G<70 107 70 70 371 371 371 408 673 673 673 710> 473 37<219 264.5 219 279.5 505.5 567> 480 20G<70 107 107 107>
VStem: 70 37<0 390 440 500> 372 37<233.5 289 233.5 318.5> 674 37<233.5 318.5>
CounterMasks: 1 1c
LayerCount: 2
Fore
SplineSet
371 0 m 1,0,-1
 372 264 l 2,1,2
 372 348 372 348 334.5 410.5 c 128,-1,3
 297 473 297 473 238.5 473 c 128,-1,4
 180 473 180 473 107 390 c 1,5,-1
 107 0 l 1,6,-1
 70 0 l 1,7,-1
 70 500 l 1,8,-1
 107 500 l 1,9,-1
 107 440 l 1,10,11
 172 510 172 510 248 510 c 0,12,13
 279 510 279 510 315.5 488 c 128,-1,14
 352 466 352 466 377 419 c 1,15,16
 448 510 448 510 540 510 c 0,17,18
 591.294117647 510 591.294117647 510 645.5 461.5 c 0,19,20
 674 436 674 436 692.5 385 c 128,-1,21
 711 334 711 334 711 265 c 2,22,-1
 710 0 l 1,23,-1
 673 0 l 1,24,-1
 674 264 l 2,25,26
 674 348 674 348 633.5 410.5 c 128,-1,27
 593 473 593 473 534 473 c 0,28,29
 495 473 495 473 455.5 446 c 128,-1,30
 416 419 416 419 391 384 c 1,31,32
 409 332 409 332 409 265 c 2,33,-1
 408 0 l 1,34,-1
 371 0 l 1,0,-1
EndSplineSet
EndChar

StartChar: t
Encoding: 116 116 16
Width: 286
Flags: MW
HStem: 0 21G<124 161 124 124> 463 37<9 124 9 124 161 277> 645 20G<124 161 161 161>
VStem: 124 37<0 463 0 463 500 665>
LayerCount: 2
Fore
SplineSet
124 463 m 1,0,-1
 9 463 l 1,1,-1
 9 500 l 1,2,-1
 124 500 l 1,3,-1
 124 665 l 1,4,-1
 161 665 l 1,5,-1
 161 500 l 1,6,-1
 277 500 l 1,7,-1
 277 463 l 1,8,-1
 161 463 l 1,9,-1
 161 0 l 1,10,-1
 124 0 l 1,11,-1
 124 463 l 1,0,-1
EndSplineSet
EndChar

StartChar: v
Encoding: 118 118 17
Width: 420
Flags: MW
HStem: 0 21G<195 195 195 232> 480 20G<11 48 48 48 372 409 409 409>
LayerCount: 2
Fore
SplineSet
195 0 m 1,0,-1
 11 500 l 1,1,-1
 48 500 l 1,2,-1
 213 60 l 1,3,-1
 372 500 l 1,4,-1
 409 500 l 1,5,-1
 232 0 l 1,6,-1
 195 0 l 1,0,-1
EndSplineSet
EndChar

StartChar: w
Encoding: 119 119 18
Width: 667
Flags: MW
HStem: 0 21G<168 168 168 205 469 469 469 506> 480 20G<14 51 51 51 315 352 352 352 616 653 653 653>
LayerCount: 2
Fore
SplineSet
168 0 m 1,0,-1
 14 500 l 1,1,-1
 51 500 l 1,2,-1
 186 60 l 1,3,-1
 315 500 l 1,4,-1
 352 500 l 1,5,-1
 487 60 l 1,6,-1
 616 500 l 1,7,-1
 653 500 l 1,8,-1
 506 0 l 1,9,-1
 469 0 l 1,10,-1
 334 438 l 1,11,-1
 205 0 l 1,12,-1
 168 0 l 1,0,-1
EndSplineSet
EndChar

StartChar: x
Encoding: 120 120 19
Width: 579
Flags: MW
HStem: 0 37<407 457> 474 37<122 172.5 122 181.5> 481 20G<507 558 558 558>
VStem: 271 37<242 264 242 318.5>
LayerCount: 2
Fore
SplineSet
272 206 m 1,0,-1
 73 0 l 1,1,-1
 21 0 l 1,2,-1
 271 257 l 1,3,-1
 271 264 l 2,4,5
 271 350 271 350 235 412 c 128,-1,6
 199 474 199 474 141.5 474 c 128,-1,7
 84 474 84 474 21 407 c 1,8,-1
 21 455 l 1,9,10
 80 511 80 511 147 511 c 0,11,12
 192.2 511 192.2 511 241.5 467.5 c 0,13,14
 267 445 267 445 285 400 c 128,-1,15
 303 355 303 355 307 295 c 1,16,-1
 507 501 l 1,17,-1
 558 501 l 1,18,-1
 308 242 l 1,19,20
 309 158 309 158 344.5 97.5 c 128,-1,21
 380 37 380 37 437.5 37 c 128,-1,22
 495 37 495 37 558 104 c 1,23,-1
 558 56 l 1,24,25
 498 0 498 0 432 0 c 0,26,27
 387.255813953 0 387.255813953 0 339 41.5 c 0,28,29
 314 63 314 63 295.5 105.5 c 128,-1,30
 277 148 277 148 272 206 c 1,0,-1
EndSplineSet
EndChar

StartChar: l
Encoding: 108 108 20
Width: 185
Flags: MW
HStem: 0 21G<74 111 74 74> 729 20G<74 111 111 111>
VStem: 74 37<0 749>
LayerCount: 2
Fore
SplineSet
111 0 m 1,0,-1
 74 0 l 1,1,-1
 74 749 l 1,2,-1
 111 749 l 1,3,-1
 111 0 l 1,0,-1
EndSplineSet
EndChar

StartChar: f
Encoding: 102 102 21
Width: 228
Flags: MW
HStem: 0 21G<79 116 79 79> 463 37<39 79 39 79 116 212> 714 37<213 244.5 213 249>
VStem: 79 37<0 463 0 463 500 504>
LayerCount: 2
Fore
SplineSet
212 500 m 1,0,-1
 212 463 l 1,1,-1
 116 463 l 1,2,-1
 116 0 l 1,3,-1
 79 0 l 1,4,-1
 79 463 l 1,5,-1
 39 463 l 1,6,-1
 39 500 l 1,7,-1
 79 500 l 1,8,-1
 79 505 l 2,9,10
 79 574 79 574 96 625.5 c 128,-1,11
 113 677 113 677 139.5 702.5 c 0,12,13
 189.901960784 751 189.901960784 751 240 751 c 0,14,15
 265 751 265 751 273 750 c 1,16,-1
 273 713 l 1,17,18
 267 714 267 714 246 714 c 0,19,20
 188 714 188 714 152 652 c 128,-1,21
 116 590 116 590 116 504 c 2,22,-1
 116 500 l 1,23,-1
 212 500 l 1,0,-1
EndSplineSet
EndChar

StartChar: g
Encoding: 103 103 22
Width: 460
Flags: MW
HStem: -263 37<204 256> 0 37<276.5 353> 474 37<185 241 185 246> 480 20G<353 390 390 390>
VStem: 41 37<174 318.5 174 363> 353 37<-16 0 0 0 37 390 390 390 440 500>
LayerCount: 2
Fore
SplineSet
353 500 m 1,0,-1
 390 500 l 1,1,-1
 390 -17 l 2,2,3
 390 -86 390 -86 373 -137.5 c 128,-1,4
 356 -189 356 -189 329.5 -214.5 c 0,5,6
 279.098039216 -263 279.098039216 -263 229 -263 c 0,7,8
 162 -263 162 -263 103 -207 c 1,9,-1
 103 -159 l 1,10,11
 166 -226 166 -226 228 -226 c 128,-1,12
 290 -226 290 -226 321.5 -166.5 c 128,-1,13
 353 -107 353 -107 353 -16 c 2,14,-1
 353 0 l 1,15,16
 173.594740391 6.64463924477 173.594740391 6.64463924477 103 78.5 c 0,17,18
 41 141.607142857 41 141.607142857 41 265 c 0,19,20
 41 416.333333333 41 416.333333333 129 480.5 c 0,21,22
 170.828571429 511 170.828571429 511 212 511 c 0,23,24
 287 511 287 511 353 440 c 1,25,-1
 353 500 l 1,0,-1
118.5 411 m 128,-1,27
 78 348 78 348 78 273.5 c 128,-1,28
 78 199 78 199 99 153 c 128,-1,29
 120 107 120 107 159 82.5 c 0,30,31
 231.428571429 37 231.428571429 37 353 37 c 1,32,-1
 353 390 l 1,33,34
 319 429 319 429 287.5 451.5 c 128,-1,35
 256 474 256 474 218 474 c 0,36,26
 159 474 159 474 118.5 411 c 128,-1,27
EndSplineSet
EndChar

StartChar: y
Encoding: 121 121 23
Width: 477
Flags: MW
HStem: -259 37<221 273> 4 37<293.5 370> 480 20G<59 96 96 96 370 407 407 407>
VStem: 58 37<178 272.5 178 274.5> 370 37<-12 4 4 4 41 500>
LayerCount: 2
Fore
SplineSet
370 500 m 1,0,-1
 407 500 l 1,1,-1
 407 -13 l 2,2,3
 407 -82 407 -82 390 -133.5 c 128,-1,4
 373 -185 373 -185 346.5 -210.5 c 0,5,6
 296.098039216 -259 296.098039216 -259 246 -259 c 0,7,8
 180 -259 180 -259 120 -203 c 1,9,-1
 120 -155 l 1,10,11
 183 -222 183 -222 240.5 -222 c 128,-1,12
 298 -222 298 -222 334 -160 c 128,-1,13
 370 -98 370 -98 370 -12 c 2,14,-1
 370 4 l 1,15,16
 190.594740391 10.6446392448 190.594740391 10.6446392448 120 82.5 c 0,17,18
 58 145.607142857 58 145.607142857 58 269 c 0,19,20
 58 490 58 490 59 500 c 1,21,-1
 96 500 l 1,22,23
 95 491 95 491 95 268 c 0,24,25
 95 137.384615385 95 137.384615385 176 86.5 c 0,26,27
 248.428571429 41 248.428571429 41 370 41 c 1,28,-1
 370 500 l 1,0,-1
EndSplineSet
EndChar

StartChar: j
Encoding: 106 106 24
Width: 177
Flags: MW
HStem: -259 37<-79 -27> 480 20G<70 107 107 107> 646 20G<71 108 108 108>
VStem: 70 37<-12 500>
LayerCount: 2
Fore
SplineSet
71 666 m 1,0,-1
 108 666 l 1,1,-1
 108 579 l 1,2,-1
 71 579 l 1,3,-1
 71 666 l 1,0,-1
70 -12 m 2,4,-1
 70 500 l 1,5,-1
 107 500 l 1,6,-1
 107 -13 l 2,7,8
 107 -82 107 -82 90 -133.5 c 128,-1,9
 73 -185 73 -185 46.5 -210.5 c 0,10,11
 -3.90196078431 -259 -3.90196078431 -259 -54 -259 c 0,12,13
 -120 -259 -120 -259 -180 -203 c 1,14,-1
 -180 -155 l 1,15,16
 -117 -222 -117 -222 -59.5 -222 c 128,-1,17
 -2 -222 -2 -222 34 -160 c 128,-1,18
 70 -98 70 -98 70 -12 c 2,4,-1
EndSplineSet
EndChar

StartChar: z
Encoding: 122 122 25
Width: 423
Flags: MW
HStem: 0 37<19 19 66 396> 463 37<42 348 42 396 42 396>
LayerCount: 2
Fore
SplineSet
19 0 m 1,0,-1
 19 37 l 1,1,-1
 348 463 l 1,2,-1
 42 463 l 1,3,-1
 42 500 l 1,4,-1
 396 500 l 1,5,-1
 396 463 l 1,6,-1
 66 37 l 1,7,-1
 396 37 l 1,8,-1
 396 0 l 1,9,-1
 19 0 l 1,0,-1
EndSplineSet
EndChar

StartChar: k
Encoding: 107 107 26
Width: 460
Flags: MW
HStem: 0 21G<70 107 70 70 392 429 392 392> 270 37<263 294 263 301.5> 481 20G<378 429 429 429> 730 20G<70 107 107 107>
VStem: 70 37<0 165 219 750> 392 37<0 68 68 80>
LayerCount: 2
Fore
SplineSet
429 0 m 1,0,-1
 392 0 l 1,1,-1
 392 68 l 2,2,3
 392 151 392 151 355.5 210.5 c 128,-1,4
 319 270 319 270 266.5 270 c 0,5,6
 214 270 214 270 165 226 c 1,7,-1
 107 165 l 1,8,-1
 107 0 l 1,9,-1
 70 0 l 1,10,-1
 70 750 l 1,11,-1
 107 750 l 1,12,-1
 107 219 l 1,13,-1
 378 501 l 1,14,-1
 429 501 l 1,15,-1
 241 304 l 1,16,17
 253 307 253 307 271.5 307 c 0,18,19
 290 307 290 307 315.5 295.5 c 128,-1,20
 341 284 341 284 367.5 259.5 c 128,-1,21
 394 235 394 235 411.5 188 c 128,-1,22
 429 141 429 141 429 80 c 2,23,-1
 429 0 l 1,0,-1
EndSplineSet
EndChar

StartChar: A
Encoding: 65 65 27
Width: 502
Flags: MW
HStem: 0 21G<70 107 70 70 391 428 391 391> 330 37<107 391 107 391> 667 37<249.5 322.5>
VStem: 70 37<0 330 367 457> 391 37<0 330 330 330 367 634 634 634>
LayerCount: 2
Fore
SplineSet
428 648 m 1,0,-1
 428 0 l 1,1,-1
 391 0 l 1,2,-1
 391 330 l 1,3,-1
 107 330 l 1,4,-1
 107 0 l 1,5,-1
 70 0 l 1,6,-1
 70 458 l 2,7,8
 70 566 70 566 139 635 c 128,-1,9
 208 704 208 704 312 704 c 0,10,11
 388 704 388 704 428 648 c 1,0,-1
391 367 m 1,12,-1
 391 634 l 1,13,14
 359 667 359 667 310 667 c 0,15,16
 222 667 222 667 164.5 603 c 128,-1,17
 107 539 107 539 107 457 c 2,18,-1
 107 367 l 1,19,-1
 391 367 l 1,12,-1
EndSplineSet
EndChar

StartChar: B
Encoding: 66 66 28
Width: 471
Flags: MW
HStem: -3 38<76 113> 365 43<112 163> 662 38<75 184.5>
VStem: 75 38 351 37<522.5 584> 397 37<172 262.5 135.5 274.5>
LayerCount: 2
Fore
SplineSet
76 -3 m 1,0,-1
 75 700 l 1,1,2
 230 695 230 695 309 657.5 c 128,-1,3
 388 620 388 620 388 545.5 c 128,-1,4
 388 471 388 471 346 435 c 128,-1,5
 304 399 304 399 244 391 c 1,6,7
 323 384 323 384 378.5 336 c 128,-1,8
 434 288 434 288 434 195.5 c 128,-1,9
 434 103 434 103 342.5 50.5 c 128,-1,10
 251 -2 251 -2 76 -3 c 1,0,-1
368 288 m 128,-1,12
 339 323 339 323 290.5 338.5 c 0,13,14
 207.580645161 365 207.580645161 365 113 365 c 1,15,-1
 113 35 l 1,16,17
 194 36 194 36 253 53.5 c 128,-1,18
 312 71 312 71 341.5 98 c 0,19,20
 397 148.796610169 397 148.796610169 397 200.898305085 c 128,-1,11
 397 253 397 253 368 288 c 128,-1,12
351 546 m 0,21,22
 351 602 351 602 287 632 c 128,-1,23
 223 662 223 662 112 662 c 1,24,-1
 112 408 l 1,25,26
 351 411 351 411 351 546 c 0,21,22
EndSplineSet
EndChar

StartChar: C
Encoding: 67 67 29
Width: 431
Flags: MW
HStem: -1 37<300.5 407> 663 37<205.5 274>
VStem: 49 37<269 473.5 269 518>
LayerCount: 2
Fore
SplineSet
407 545 m 1,0,-1
 370 546 l 1,1,2
 361 600 361 600 325.5 631.5 c 128,-1,3
 290 663 290 663 246 663 c 0,4,5
 172 663 172 663 129 587.5 c 128,-1,6
 86 512 86 512 86 414 c 0,7,8
 86 139.455882353 86 139.455882353 228 69.5 c 0,9,10
 296 36 296 36 407 36 c 1,11,-1
 407 -1 l 1,12,13
 261.823529412 -1 261.823529412 -1 191 42 c 0,14,15
 163 59 163 59 134.5 90 c 128,-1,16
 106 121 106 121 88.5 164 c 0,17,18
 49 261.057142857 49 261.057142857 49 415 c 0,19,20
 49 488 49 488 69 546 c 128,-1,21
 89 604 89 604 119 635.5 c 0,22,23
 180.428571429 700 180.428571429 700 242.214285714 700 c 128,-1,24
 304 700 304 700 355.5 650 c 128,-1,25
 407 600 407 600 407 545 c 1,0,-1
EndSplineSet
EndChar

StartChar: D
Encoding: 68 68 30
Width: 482
Flags: MW
HStem: -3 38<76 113> 662 39<76 189.5>
VStem: 76 37<35 662 35 701> 397 37<260.5 471>
LayerCount: 2
Fore
SplineSet
434 336 m 0,0,1
 434 262 434 262 416 200.5 c 128,-1,2
 398 139 398 139 367.5 101 c 128,-1,3
 337 63 337 63 290 39.5 c 0,4,5
 205 -3 205 -3 76 -3 c 1,6,-1
 76 701 l 1,7,8
 212.516129032 701 212.516129032 701 291.5 659.5 c 0,9,10
 359.595076923 623.721230769 359.595076923 623.721230769 394 553 c 0,11,12
 434 470.777777778 434 470.777777778 434 336 c 0,0,1
397 347 m 0,13,14
 397 662 397 662 113 662 c 1,15,-1
 113 35 l 1,16,17
 274.885366544 36.9985847721 274.885366544 36.9985847721 339 128 c 0,18,19
 397 210.322580645 397 210.322580645 397 347 c 0,13,14
EndSplineSet
EndChar

StartChar: E
Encoding: 69 69 31
Width: 479
Flags: MW
HStem: 0 37<113 434 113 434> 370 37<113 434 113 434> 663 37<113 434 113 113>
VStem: 76 37<37 370 407 663>
LayerCount: 2
Fore
SplineSet
76 0 m 1,0,-1
 76 700 l 1,1,-1
 434 700 l 1,2,-1
 434 663 l 1,3,-1
 113 663 l 1,4,-1
 113 407 l 1,5,-1
 434 407 l 1,6,-1
 434 370 l 1,7,-1
 113 370 l 1,8,-1
 113 37 l 1,9,-1
 434 37 l 1,10,-1
 434 0 l 1,11,-1
 76 0 l 1,0,-1
EndSplineSet
EndChar

StartChar: F
Encoding: 70 70 32
Width: 472
Flags: MW
HStem: 0 21G<76 113 76 76> 370 37<113 434 113 434> 663 37<113 434 113 113>
VStem: 76 37<0 370 407 663>
LayerCount: 2
Fore
SplineSet
113 0 m 1,0,-1
 76 0 l 1,1,-1
 76 700 l 1,2,-1
 434 700 l 1,3,-1
 434 663 l 1,4,-1
 113 663 l 1,5,-1
 113 407 l 1,6,-1
 434 407 l 1,7,-1
 434 370 l 1,8,-1
 113 370 l 1,9,-1
 113 0 l 1,0,-1
EndSplineSet
EndChar

StartChar: G
Encoding: 71 71 33
Width: 465
Flags: MW
HStem: -1 38<370 407> 312 37<272 370 272 407> 663 37<205.5 274>
VStem: 49 37<277.5 473.5 277.5 518> 370 37<37 312 312 312 546 546>
LayerCount: 2
Fore
SplineSet
407 545 m 1,0,-1
 370 546 l 1,1,2
 361 600 361 600 325.5 631.5 c 128,-1,3
 290 663 290 663 246 663 c 0,4,5
 172 663 172 663 129 587.5 c 128,-1,6
 86 512 86 512 86 414 c 0,7,8
 86 215 86 215 154.5 130 c 128,-1,9
 223 45 223 45 370 37 c 1,10,-1
 370 312 l 1,11,-1
 272 312 l 1,12,-1
 272 349 l 1,13,-1
 407 349 l 1,14,-1
 407 -1 l 1,15,16
 261.823529412 -1 261.823529412 -1 191 42 c 0,17,18
 163 59 163 59 134.5 90 c 128,-1,19
 106 121 106 121 88.5 164 c 0,20,21
 49 261.057142857 49 261.057142857 49 415 c 0,22,23
 49 488 49 488 69 546 c 128,-1,24
 89 604 89 604 119 635.5 c 0,25,26
 180.428571429 700 180.428571429 700 242.214285714 700 c 128,-1,27
 304 700 304 700 355.5 650 c 128,-1,28
 407 600 407 600 407 545 c 1,0,-1
EndSplineSet
EndChar

StartChar: H
Encoding: 72 72 34
Width: 510
Flags: MW
HStem: 0 21G<76 113 76 76 397 434 397 397> 330 37<113 397 113 397> 680 20G<76 113 113 113 397 434 434 434>
VStem: 76 37<0 330 367 700> 397 37<0 330 330 330 367 700>
LayerCount: 2
Fore
SplineSet
434 0 m 1,0,-1
 397 0 l 1,1,-1
 397 330 l 1,2,-1
 113 330 l 1,3,-1
 113 0 l 1,4,-1
 76 0 l 1,5,-1
 76 700 l 1,6,-1
 113 700 l 1,7,-1
 113 367 l 1,8,-1
 397 367 l 1,9,-1
 397 700 l 1,10,-1
 434 700 l 1,11,-1
 434 0 l 1,0,-1
EndSplineSet
EndChar

StartChar: I
Encoding: 73 73 35
Width: 189
Flags: MW
HStem: 0 21G<76 113 76 76> 678 20G<76 113 113 113>
VStem: 76 37<0 698>
LayerCount: 2
Fore
SplineSet
113 0 m 1,0,-1
 76 0 l 1,1,-1
 76 698 l 1,2,-1
 113 698 l 1,3,-1
 113 0 l 1,0,-1
EndSplineSet
EndChar

StartChar: J
Encoding: 74 74 36
Width: 402
Flags: MW
HStem: -4 37<133.5 190 133.5 192.5> 680 20G<293 330 330 330>
VStem: 18 37<83 150> 293 37<243 700>
LayerCount: 2
Fore
SplineSet
18 150 m 1,0,-1
 55 150 l 1,1,2
 56.9966527197 74.1271966527 56.9966527197 74.1271966527 93 50.5 c 0,3,4
 119.666666667 33 119.666666667 33 146 33 c 0,5,6
 217 33 217 33 255 81.5 c 128,-1,7
 293 130 293 130 293 243 c 2,8,-1
 293 700 l 1,9,-1
 330 700 l 1,10,-1
 330 242 l 2,11,12
 330 -4 330 -4 144 -4 c 0,13,14
 105.793103448 -4 105.793103448 -4 66.5 22.5 c 0,15,16
 45 37 45 37 31.5 70 c 128,-1,17
 18 103 18 103 18 150 c 1,0,-1
EndSplineSet
EndChar

StartChar: L
Encoding: 76 76 37
Width: 436
Flags: MW
HStem: 0 37<113 424 113 424> 680 20G<76 113 113 113>
VStem: 76 37<37 700 37 700 37 700>
LayerCount: 2
Fore
SplineSet
424 0 m 1,0,-1
 76 0 l 1,1,-1
 76 700 l 1,2,-1
 113 700 l 1,3,-1
 113 37 l 1,4,-1
 424 37 l 1,5,-1
 424 0 l 1,0,-1
EndSplineSet
EndChar

StartChar: O
Encoding: 79 79 38
Width: 547
Flags: MW
HStem: 0 38<208.5 348 208 349.5> 666 39<222 337.5>
VStem: 49 37<270.5 450.5 270.5 457.5> 460 37<270.5 421.5 235 450.5>
LayerCount: 2
Fore
SplineSet
497 344 m 0,0,1
 497 179 497 179 441 89.5 c 128,-1,2
 385 0 385 0 279 0 c 128,-1,3
 173 0 173 0 111 90.5 c 128,-1,4
 49 181 49 181 49 347.5 c 128,-1,5
 49 514 49 514 110 609.5 c 128,-1,6
 171 705 171 705 280 705 c 0,7,8
 345 705 345 705 390.5 671.5 c 128,-1,9
 436 638 436 638 457.5 581 c 0,10,11
 497 476.279069767 497 476.279069767 497 344 c 0,0,1
413 583 m 128,-1,13
 366 666 366 666 278 666 c 128,-1,14
 190 666 190 666 138 583.5 c 128,-1,15
 86 501 86 501 86 347 c 0,16,17
 86 168.2 86 168.2 167 84.5 c 0,18,19
 212 38 212 38 270 38 c 128,-1,20
 328 38 328 38 365 64 c 128,-1,21
 402 90 402 90 422 135.5 c 0,22,23
 460 221.95 460 221.95 460 360.975 c 128,-1,12
 460 500 460 500 413 583 c 128,-1,13
EndSplineSet
EndChar

StartChar: P
Encoding: 80 80 39
Width: 457
Flags: MW
HStem: 0 21G<76 113 76 76> 296 36<113 123> 663 38<76 113>
VStem: 76 37<0 296 333 663> 397 37<433.5 532>
LayerCount: 2
Fore
SplineSet
113 333 m 1,0,-1
 123 332 l 1,1,2
 397 336 397 336 397 497 c 0,3,4
 397 556.525423729 397 556.525423729 341.5 604.5 c 0,5,6
 312 630 312 630 253.5 646 c 128,-1,7
 195 662 195 662 113 663 c 1,8,-1
 113 333 l 1,0,-1
113 296 m 1,9,-1
 113 0 l 1,10,-1
 76 0 l 1,11,-1
 76 701 l 1,12,13
 251 700 251 700 342.5 647.5 c 128,-1,14
 434 595 434 595 434 500 c 0,15,16
 434 387.967213115 434 387.967213115 346.5 343.5 c 0,17,18
 316 328 316 328 293 320 c 128,-1,19
 270 312 270 312 231 306.5 c 0,20,21
 182.473282443 299.65648855 182.473282443 299.65648855 113 296 c 1,9,-1
EndSplineSet
EndChar

StartChar: S
Encoding: 83 83 40
Width: 428
Flags: MW
HStem: -2 37<49 74 49 126> 663 37<184.5 246 172.5 250>
VStem: 37 37<439 566.5> 352 37<142 300.5>
LayerCount: 2
Fore
SplineSet
307 105.5 m 0,0,1
 352 145 352 145 352 201 c 128,-1,2
 352 257 352 257 319.5 290.5 c 128,-1,3
 287 324 287 324 241 340.5 c 128,-1,4
 195 357 195 357 148.5 374 c 128,-1,5
 102 391 102 391 69.5 425.5 c 128,-1,6
 37 460 37 460 37 514 c 0,7,8
 37 608 37 608 89.5 654 c 128,-1,9
 142 700 142 700 215 700 c 128,-1,10
 288 700 288 700 375 686 c 1,11,-1
 375 649 l 1,12,13
 297 663 297 663 229 663 c 128,-1,14
 161 663 161 663 117.5 625 c 128,-1,15
 74 587 74 587 74 518 c 0,16,17
 74 458.181818182 74 458.181818182 136.5 427.5 c 0,18,19
 164 414 164 414 197.5 402 c 128,-1,20
 231 390 231 390 265 375 c 128,-1,21
 299 360 299 360 326.5 339.5 c 128,-1,22
 354 319 354 319 371.5 282.5 c 128,-1,23
 389 246 389 246 389 197.5 c 128,-1,24
 389 149 389 149 366.5 112 c 128,-1,25
 344 75 344 75 311 54 c 128,-1,26
 278 33 278 33 233.5 19.5 c 0,27,28
 162.62962963 -2 162.62962963 -2 74 -2 c 2,29,-1
 49 -2 l 1,30,-1
 49 35 l 1,31,32
 226.683544304 35 226.683544304 35 307 105.5 c 0,0,1
EndSplineSet
EndChar

StartChar: K
Encoding: 75 75 41
Width: 467
Flags: MW
HStem: 0 21G<76 113 76 76 396 433 396 396> 378 37<241.5 303 241.5 307.5> 680 20G<76 113 113 113> 681 20G<383 434 434 434>
VStem: 76 37<0 296 355 700> 396 37<0 68 68 80>
LayerCount: 2
Fore
SplineSet
433 0 m 1,0,-1
 396 0 l 1,1,-1
 396 68 l 2,2,3
 396 378 396 378 244 378 c 0,4,5
 212 378 212 378 183 361.5 c 128,-1,6
 154 345 154 345 142.5 332.5 c 128,-1,7
 131 320 131 320 113 296 c 1,8,-1
 113 0 l 1,9,-1
 76 0 l 1,10,-1
 76 700 l 1,11,-1
 113 700 l 1,12,-1
 113 355 l 1,13,-1
 383 701 l 1,14,-1
 434 701 l 1,15,-1
 202 409 l 1,16,17
 226 415 226 415 249 415 c 0,18,19
 334 415 334 415 383.5 333 c 128,-1,20
 433 251 433 251 433 80 c 2,21,-1
 433 0 l 1,0,-1
EndSplineSet
EndChar

StartChar: M
Encoding: 77 77 42
Width: 590
Flags: MW
HStem: 0 21G<76 111 76 76 477 514 477 477> 681 20G<76 124 124 124 465 514 514 514>
VStem: 76 35<0 642 0 701> 478 36
LayerCount: 2
Fore
SplineSet
477 0 m 1,0,-1
 479 642 l 1,1,-1
 312 259 l 1,2,-1
 278 259 l 1,3,-1
 111 642 l 1,4,-1
 111 0 l 1,5,-1
 76 0 l 1,6,-1
 76 701 l 1,7,-1
 124 701 l 1,8,-1
 295 309 l 1,9,-1
 465 701 l 1,10,-1
 514 701 l 1,11,-1
 514 0 l 1,12,-1
 477 0 l 1,0,-1
EndSplineSet
EndChar

StartChar: N
Encoding: 78 78 43
Width: 510
Flags: MW
HStem: 0 21G<76 113 76 76 397 397 397 434> 680 20G<397 434 434 434> 681 20G<76 129 129 129>
VStem: 76 37<0 637 0 701> 397 37<0 700 85 700 0 700>
LayerCount: 2
Fore
SplineSet
113 637 m 1,0,-1
 113 0 l 1,1,-1
 76 0 l 1,2,-1
 76 701 l 1,3,-1
 129 701 l 1,4,-1
 397 85 l 1,5,-1
 397 700 l 1,6,-1
 434 700 l 1,7,-1
 434 0 l 1,8,-1
 397 0 l 1,9,-1
 113 637 l 1,0,-1
EndSplineSet
EndChar

StartChar: Q
Encoding: 81 81 44
Width: 547
Flags: MW
HStem: -129 37<437 463.5> 6 37<208.5 283.5> 668 37<222 337.5>
VStem: 49 37<270.5 450.5 270.5 457.5> 460 37<270.5 421.5 255 450.5>
LayerCount: 2
Fore
SplineSet
495 -87 m 1,0,-1
 495 -124 l 1,1,2
 475 -129 475 -129 457 -129 c 0,3,4
 420 -129 420 -129 378.5 -94.5 c 128,-1,5
 337 -60 337 -60 315 9 c 1,6,7
 297 6 297 6 277 6 c 0,8,9
 172 6 172 6 110.5 94 c 128,-1,10
 49 182 49 182 49 348 c 128,-1,11
 49 514 49 514 110 609.5 c 128,-1,12
 171 705 171 705 280 705 c 0,13,14
 345 705 345 705 390.5 671.5 c 128,-1,15
 436 638 436 638 457.5 581 c 0,16,17
 497 476.279069767 497 476.279069767 497 344 c 0,18,19
 497 73 497 73 350 18 c 1,20,21
 367 -30 367 -30 396.5 -61 c 128,-1,22
 426 -92 426 -92 463 -92 c 0,23,24
 478 -92 478 -92 495 -87 c 1,0,-1
413 584.5 m 128,-1,26
 366 668 366 668 278.5 668 c 128,-1,27
 191 668 191 668 138.5 584.5 c 128,-1,28
 86 501 86 501 86 347 c 0,29,30
 86 170.808988764 86 170.808988764 166.5 88.5 c 0,31,32
 211 43 211 43 278 43 c 0,33,34
 328 43 328 43 365 68.5 c 128,-1,35
 402 94 402 94 422 138.5 c 0,36,37
 460 223.05 460 223.05 460 362.025 c 128,-1,25
 460 501 460 501 413 584.5 c 128,-1,26
EndSplineSet
EndChar

StartChar: R
Encoding: 82 82 45
Width: 451
Flags: MW
HStem: 0 21G<76 113 76 76 389 434 389 389> 663 38<76 113>
VStem: 76 37<0 290 330 663> 374 37<435 527>
LayerCount: 2
Fore
SplineSet
434 0 m 1,0,-1
 389 0 l 1,1,-1
 195 297 l 1,2,3
 158 292 158 292 113 290 c 1,4,-1
 113 0 l 1,5,-1
 76 0 l 1,6,-1
 76 701 l 1,7,8
 411 700 411 700 411 500 c 0,9,10
 411 339 411 339 235 303 c 1,11,-1
 434 0 l 1,0,-1
113 330 m 1,12,-1
 123 329 l 1,13,14
 374 333 374 333 374 497 c 0,15,16
 374 542.757575758 374 542.757575758 352.5 573.378787879 c 128,-1,17
 331 604 331 604 304 621 c 0,18,19
 240.407235622 661.039888683 240.407235622 661.039888683 113 663 c 1,20,-1
 113 330 l 1,12,-1
EndSplineSet
EndChar

StartChar: T
Encoding: 84 84 46
Width: 384
Flags: MW
HStem: 0 21G<173 210 173 173> 663 37<13 173 13 371 210 210 210 371>
VStem: 173 37<0 663>
LayerCount: 2
Fore
SplineSet
210 0 m 1,0,-1
 173 0 l 1,1,-1
 173 663 l 1,2,-1
 13 663 l 1,3,-1
 13 700 l 1,4,-1
 371 700 l 1,5,-1
 371 663 l 1,6,-1
 210 663 l 1,7,-1
 210 0 l 1,0,-1
EndSplineSet
EndChar

StartChar: U
Encoding: 85 85 47
Width: 501
Flags: MW
HStem: -2 37<214 286.5 214 309> 680 20G<71 108 108 108 392 429 429 429>
VStem: 71 37<242 243 243 700> 392 37<243 700>
LayerCount: 2
Fore
SplineSet
383 62.5 m 128,-1,1
 337 -2 337 -2 248 -2 c 128,-1,2
 159 -2 159 -2 115 69 c 128,-1,3
 71 140 71 140 71 242 c 2,4,-1
 71 700 l 1,5,-1
 108 700 l 1,6,-1
 108 243 l 2,7,8
 108 141 108 141 149.5 88 c 128,-1,9
 191 35 191 35 250.5 35 c 128,-1,10
 310 35 310 35 351 87.5 c 128,-1,11
 392 140 392 140 392 243 c 2,12,-1
 392 700 l 1,13,-1
 429 700 l 1,14,-1
 429 242 l 2,15,0
 429 127 429 127 383 62.5 c 128,-1,1
EndSplineSet
EndChar

StartChar: V
Encoding: 86 86 48
Width: 411
Flags: MW
HStem: 0 21G<180 180 180 232> 680 20G<29 66 66 66 344 381 381 381>
LayerCount: 2
Fore
SplineSet
180 0 m 1,0,-1
 29 700 l 1,1,-1
 66 700 l 1,2,-1
 205 60 l 1,3,-1
 344 700 l 1,4,-1
 381 700 l 1,5,-1
 232 0 l 1,6,-1
 180 0 l 1,0,-1
EndSplineSet
EndChar

StartChar: W
Encoding: 87 87 49
Width: 577
Flags: MW
HStem: 0 21G<151 208 151 151 369 426 369 369> 680 20G<30 67 67 67 270 307 307 307 510 547 547 547>
LayerCount: 2
Fore
SplineSet
179 60 m 1,0,-1
 270 700 l 1,1,-1
 307 700 l 1,2,-1
 398 60 l 1,3,-1
 510 700 l 1,4,-1
 547 700 l 1,5,-1
 426 0 l 1,6,-1
 369 0 l 1,7,-1
 288 544 l 1,8,-1
 208 0 l 1,9,-1
 151 0 l 1,10,-1
 30 700 l 1,11,-1
 67 700 l 1,12,-1
 179 60 l 1,0,-1
EndSplineSet
EndChar

StartChar: X
Encoding: 88 88 50
Width: 535
Flags: MW
HStem: 0 37<348 415> 664 37<122 193.5> 680 20G<468 505 505 505>
VStem: 251 42
LayerCount: 2
Fore
SplineSet
505 700 m 1,0,-1
 293 348 l 1,1,-1
 293 305 l 2,2,3
 293 110.704545455 293 110.704545455 340 60.5 c 0,4,5
 362 37 362 37 396 37 c 0,6,7
 456 37 456 37 519 104 c 1,8,-1
 519 56 l 1,9,10
 460 0 460 0 390 0 c 0,11,12
 301.316455696 0 301.316455696 0 275 115.5 c 0,13,14
 259.861751152 181.940092166 259.861751152 181.940092166 256 292 c 1,15,-1
 65 0 l 1,16,-1
 22 0 l 1,17,-1
 251 356 l 1,18,-1
 251 397 l 2,19,20
 251 538.545454545 251 538.545454545 225 600 c 0,21,22
 214 626 214 626 192.5 645 c 128,-1,23
 171 664 171 664 141 664 c 0,24,25
 83 664 83 664 20 597 c 1,26,-1
 20 645 l 1,27,28
 80 701 80 701 151.5 701 c 128,-1,29
 223 701 223 701 253.5 629.5 c 128,-1,30
 284 558 284 558 289 414 c 1,31,-1
 468 700 l 1,32,-1
 505 700 l 1,0,-1
EndSplineSet
EndChar

StartChar: Y
Encoding: 89 89 51
Width: 477
Flags: MW
HStem: -2 37<201 260 201 282> 255 37<187 256 187 257> 680 20G<47 84 84 84 368 405 405 405>
VStem: 47 37<499 500 500 700> 368 37<243 329 329 329 423 700>
LayerCount: 2
Fore
SplineSet
78 100 m 1,0,-1
 118 99 l 1,1,2
 153 35 153 35 218.5 35 c 0,3,4
 284 35 284 35 326 87.5 c 128,-1,5
 368 140 368 140 368 243 c 2,6,-1
 368 329 l 1,7,8
 320 255 320 255 227.5 255 c 0,9,10
 135 255 135 255 91 326 c 128,-1,11
 47 397 47 397 47 499 c 2,12,-1
 47 700 l 1,13,-1
 84 700 l 1,14,-1
 84 500 l 2,15,16
 84 397 84 397 124 344.5 c 128,-1,17
 164 292 164 292 219.5 292 c 0,18,19
 275 292 275 292 314.5 325 c 128,-1,20
 354 358 354 358 368 423 c 1,21,-1
 368 700 l 1,22,-1
 405 700 l 1,23,-1
 405 242 l 2,24,25
 405 128 405 128 358 63 c 128,-1,26
 311 -2 311 -2 217 -2 c 0,27,28
 123 -2 123 -2 78 100 c 1,0,-1
EndSplineSet
EndChar

StartChar: Z
Encoding: 90 90 52
Width: 385
Flags: MW
HStem: 0 37<67 368 67 368> 663 37<43 357 43 301>
LayerCount: 2
Fore
SplineSet
43 663 m 1,0,-1
 43 700 l 1,1,-1
 357 700 l 1,2,-1
 67 37 l 1,3,-1
 368 37 l 1,4,-1
 368 0 l 1,5,-1
 10 0 l 1,6,-1
 301 663 l 1,7,-1
 43 663 l 1,0,-1
EndSplineSet
EndChar

StartChar: at
Encoding: 64 64 53
Width: 745
Flags: MW
HStem: -126 37<313.5 450> 4 32<397 471 397 538> 436 33<320 370.5 320 375> 589 37<314 480>
VStem: 47 37<161 368.5 142 384.5> 190 34<168 308 166 336> 471 34<44 45 45 360 360 360 405 459> 673 37<223 349 223 386>
LayerCount: 2
Fore
SplineSet
471 459 m 1,0,-1
 505 459 l 1,1,-1
 505 45 l 2,2,3
 505 43 505 43 522.5 49 c 128,-1,4
 540 55 540 55 564.5 71.5 c 128,-1,5
 589 88 589 88 613.5 114.5 c 128,-1,6
 638 141 638 141 655.5 190.5 c 128,-1,7
 673 240 673 240 673 302 c 0,8,9
 673 430 673 430 597.5 509.5 c 128,-1,10
 522 589 522 589 393 589 c 0,11,12
 268.675 589 268.675 589 179.5 507 c 0,13,14
 136 467 136 467 110 402 c 128,-1,15
 84 337 84 337 84 256 c 0,16,17
 84 93 84 93 189 3 c 128,-1,18
 294 -87 294 -87 450 -89 c 1,19,-1
 450 -126 l 1,20,21
 351 -126 351 -126 272.5 -94 c 128,-1,22
 194 -62 194 -62 145.5 -7.5 c 0,23,24
 47 103.18556701 47 103.18556701 47 263 c 0,25,26
 47 351 47 351 76 422 c 128,-1,27
 105 493 105 493 154 536.5 c 0,28,29
 254.816091954 626 254.816091954 626 385 626 c 0,30,31
 465 626 465 626 526 600.5 c 128,-1,32
 587 575 587 575 620.5 539 c 128,-1,33
 654 503 654 503 675.5 456 c 0,34,35
 710 380.581395349 710 380.581395349 710 303 c 0,36,37
 710 176 710 176 642.5 90 c 128,-1,38
 575 4 575 4 450.5 4 c 128,-1,39
 326 4 326 4 258 66.5 c 128,-1,40
 190 129 190 129 190 248 c 0,41,42
 190 310 190 310 207 356 c 128,-1,43
 224 402 224 402 249.5 425 c 0,44,45
 298.282608696 469 298.282608696 469 344 469 c 0,46,47
 412 469 412 469 471 405 c 1,48,-1
 471 459 l 1,0,-1
224 247 m 0,49,50
 224 132 224 132 288 84 c 128,-1,51
 352 36 352 36 471 36 c 1,52,-1
 471 360 l 1,53,54
 405 436 405 436 349.5 436 c 128,-1,55
 294 436 294 436 259 386 c 128,-1,56
 224 336 224 336 224 247 c 0,49,50
EndSplineSet
EndChar

StartChar: acute
Encoding: 180 180 54
Width: 662
Flags: MW
HStem: 564 21G<392 421 392 392> 680 20G<498 498>
LayerCount: 2
Fore
SplineSet
535 685 m 1,0,-1
 421 564 l 1,1,-1
 392 564 l 1,2,-1
 498 700 l 1,3,-1
 535 685 l 1,0,-1
EndSplineSet
EndChar

StartChar: aacute
Encoding: 225 225 55
Width: 460
Flags: MW
HStem: -1 38<276.5 390> 474 37<185 241 185 246> 480 20G<353 390 390 390> 680 20G<298 298>
VStem: 41 37<174 332 174 363> 353 37<37 390 390 390 440 500 -1 500>
LayerCount: 2
Fore
SplineSet
353 500 m 1,0,-1
 390 500 l 1,1,-1
 390 -1 l 1,2,3
 330 -1 330 -1 285 4 c 128,-1,4
 240 9 240 9 191.5 25.5 c 128,-1,5
 143 42 143 42 112 70 c 128,-1,6
 81 98 81 98 61 147.5 c 128,-1,7
 41 197 41 197 41 259 c 128,-1,8
 41 321 41 321 53.5 365.5 c 128,-1,9
 66 410 66 410 85.5 436.5 c 128,-1,10
 105 463 105 463 129 480.5 c 0,11,12
 170.828571429 511 170.828571429 511 212 511 c 0,13,14
 287 511 287 511 353 440 c 1,15,-1
 353 500 l 1,0,-1
78 264 m 0,16,17
 78 133.384615385 78 133.384615385 159 82.5 c 0,18,19
 231.428571429 37 231.428571429 37 353 37 c 1,20,-1
 353 390 l 1,21,22
 319 429 319 429 287.5 451.5 c 128,-1,23
 256 474 256 474 218 474 c 0,24,25
 155 474 155 474 116.5 418.5 c 128,-1,26
 78 363 78 363 78 264 c 0,16,17
335 685 m 1,27,-1
 221 564 l 1,28,-1
 192 564 l 1,29,-1
 298 700 l 1,30,-1
 335 685 l 1,27,-1
EndSplineSet
EndChar

StartChar: Iacute
Encoding: 205 205 56
Width: 189
Flags: MW
HStem: 0 21G<76 113 76 76> 678 20G<76 113 113 113> 880 20G<183 183>
VStem: 76 37<0 698>
LayerCount: 2
Fore
SplineSet
113 0 m 1,0,-1
 76 0 l 1,1,-1
 76 698 l 1,2,-1
 113 698 l 1,3,-1
 113 0 l 1,0,-1
220 885 m 1,4,-1
 106 764 l 1,5,-1
 77 764 l 1,6,-1
 183 900 l 1,7,-1
 220 885 l 1,4,-1
EndSplineSet
EndChar

StartChar: Oacute
Encoding: 211 211 57
Width: 547
Flags: MW
HStem: 0 38<208.5 348 208 349.5> 666 39<222 337.5> 880 20G<362 362>
VStem: 49 37<270.5 450.5 270.5 457.5> 460 37<270.5 421.5 235 450.5>
LayerCount: 2
Fore
SplineSet
497 344 m 0,0,1
 497 179 497 179 441 89.5 c 128,-1,2
 385 0 385 0 279 0 c 128,-1,3
 173 0 173 0 111 90.5 c 128,-1,4
 49 181 49 181 49 347.5 c 128,-1,5
 49 514 49 514 110 609.5 c 128,-1,6
 171 705 171 705 280 705 c 0,7,8
 345 705 345 705 390.5 671.5 c 128,-1,9
 436 638 436 638 457.5 581 c 0,10,11
 497 476.279069767 497 476.279069767 497 344 c 0,0,1
413 583 m 128,-1,13
 366 666 366 666 278 666 c 128,-1,14
 190 666 190 666 138 583.5 c 128,-1,15
 86 501 86 501 86 347 c 0,16,17
 86 168.2 86 168.2 167 84.5 c 0,18,19
 212 38 212 38 270 38 c 128,-1,20
 328 38 328 38 365 64 c 128,-1,21
 402 90 402 90 422 135.5 c 0,22,23
 460 221.95 460 221.95 460 360.975 c 128,-1,12
 460 500 460 500 413 583 c 128,-1,13
399 885 m 1,24,-1
 285 764 l 1,25,-1
 256 764 l 1,26,-1
 362 900 l 1,27,-1
 399 885 l 1,24,-1
EndSplineSet
EndChar

StartChar: Eacute
Encoding: 201 201 58
Width: 479
Flags: MW
HStem: 0 37<113 434 113 434> 370 37<113 434 113 434> 663 37<113 434 113 113> 880 20G<338 338>
VStem: 76 37<37 370 407 663>
LayerCount: 2
Fore
SplineSet
76 0 m 1,0,-1
 76 700 l 1,1,-1
 434 700 l 1,2,-1
 434 663 l 1,3,-1
 113 663 l 1,4,-1
 113 407 l 1,5,-1
 434 407 l 1,6,-1
 434 370 l 1,7,-1
 113 370 l 1,8,-1
 113 37 l 1,9,-1
 434 37 l 1,10,-1
 434 0 l 1,11,-1
 76 0 l 1,0,-1
375 885 m 1,12,-1
 261 764 l 1,13,-1
 232 764 l 1,14,-1
 338 900 l 1,15,-1
 375 885 l 1,12,-1
EndSplineSet
EndChar

StartChar: Aacute
Encoding: 193 193 59
Width: 502
Flags: MW
HStem: 0 21G<70 107 70 70 391 428 391 391> 330 37<107 391 107 391> 667 37<249.5 322.5> 880 20G<343 343>
VStem: 70 37<0 330 367 457> 391 37<0 330 330 330 367 634 634 634>
LayerCount: 2
Fore
SplineSet
428 648 m 1,0,-1
 428 0 l 1,1,-1
 391 0 l 1,2,-1
 391 330 l 1,3,-1
 107 330 l 1,4,-1
 107 0 l 1,5,-1
 70 0 l 1,6,-1
 70 458 l 2,7,8
 70 566 70 566 139 635 c 128,-1,9
 208 704 208 704 312 704 c 0,10,11
 388 704 388 704 428 648 c 1,0,-1
391 367 m 1,12,-1
 391 634 l 1,13,14
 359 667 359 667 310 667 c 0,15,16
 222 667 222 667 164.5 603 c 128,-1,17
 107 539 107 539 107 457 c 2,18,-1
 107 367 l 1,19,-1
 391 367 l 1,12,-1
380 885 m 1,20,-1
 266 764 l 1,21,-1
 237 764 l 1,22,-1
 343 900 l 1,23,-1
 380 885 l 1,20,-1
EndSplineSet
EndChar

StartChar: eacute
Encoding: 233 233 60
Width: 433
Flags: MW
HStem: -1 37<291.5 393> 264 37<78 354 78 390 77 354> 473 37<184 259> 680 20G<303 303>
VStem: 40 37<174 264 174 363> 354 37<301 381.5 323.5 366>
LayerCount: 2
Fore
SplineSet
393 36 m 1,0,-1
 393 -1 l 1,1,2
 333 -1 333 -1 287.5 4 c 128,-1,3
 242 9 242 9 193 25.5 c 128,-1,4
 144 42 144 42 112.5 70 c 128,-1,5
 81 98 81 98 60.5 147.5 c 128,-1,6
 40 197 40 197 40 265.5 c 128,-1,7
 40 334 40 334 58.5 385 c 128,-1,8
 77 436 77 436 105.5 461.5 c 0,9,10
 159.705882353 510 159.705882353 510 211 510 c 0,11,12
 296 510 296 510 343.5 460 c 128,-1,13
 391 410 391 410 391 328 c 0,14,15
 391 273 391 273 390 264 c 1,16,-1
 77 264 l 1,17,18
 77 135 77 135 154 85.5 c 128,-1,19
 231 36 231 36 393 36 c 1,0,-1
354 301 m 1,20,-1
 354 323 l 2,21,22
 354 389 354 389 316.5 431 c 128,-1,23
 279 473 279 473 217.5 473 c 128,-1,24
 156 473 156 473 120.5 424.5 c 128,-1,25
 85 376 85 376 78 301 c 1,26,-1
 354 301 l 1,20,-1
340 685 m 1,27,-1
 226 564 l 1,28,-1
 197 564 l 1,29,-1
 303 700 l 1,30,-1
 340 685 l 1,27,-1
EndSplineSet
EndChar

StartChar: Yacute
Encoding: 221 221 61
Width: 477
Flags: MW
HStem: -2 37<201 260 201 282> 255 37<187 256 187 257> 680 20G<47 84 84 84 368 405 405 405> 880 20G<309 309>
VStem: 47 37<499 500 500 700> 368 37<243 329 329 329 423 700>
LayerCount: 2
Fore
SplineSet
78 100 m 1,0,-1
 118 99 l 1,1,2
 153 35 153 35 218.5 35 c 0,3,4
 284 35 284 35 326 87.5 c 128,-1,5
 368 140 368 140 368 243 c 2,6,-1
 368 329 l 1,7,8
 320 255 320 255 227.5 255 c 0,9,10
 135 255 135 255 91 326 c 128,-1,11
 47 397 47 397 47 499 c 2,12,-1
 47 700 l 1,13,-1
 84 700 l 1,14,-1
 84 500 l 2,15,16
 84 397 84 397 124 344.5 c 128,-1,17
 164 292 164 292 219.5 292 c 0,18,19
 275 292 275 292 314.5 325 c 128,-1,20
 354 358 354 358 368 423 c 1,21,-1
 368 700 l 1,22,-1
 405 700 l 1,23,-1
 405 242 l 2,24,25
 405 128 405 128 358 63 c 128,-1,26
 311 -2 311 -2 217 -2 c 0,27,28
 123 -2 123 -2 78 100 c 1,0,-1
346 885 m 1,29,-1
 232 764 l 1,30,-1
 203 764 l 1,31,-1
 309 900 l 1,32,-1
 346 885 l 1,29,-1
EndSplineSet
EndChar

StartChar: iacute
Encoding: 237 237 62
Width: 177
Flags: MW
HStem: 0 21G<70 107 70 70> 480 20G<70 107 107 107> 680 20G<179 179>
VStem: 70 37<0 500>
LayerCount: 2
Fore
SplineSet
107 0 m 1,0,-1
 70 0 l 1,1,-1
 70 500 l 1,2,-1
 107 500 l 1,3,-1
 107 0 l 1,0,-1
216 685 m 1,4,-1
 102 564 l 1,5,-1
 73 564 l 1,6,-1
 179 700 l 1,7,-1
 216 685 l 1,4,-1
EndSplineSet
EndChar

StartChar: Uacute
Encoding: 218 218 63
Width: 501
Flags: MW
HStem: -2 37<214 286.5 214 309> 680 20G<71 108 108 108 392 429 429 429> 880 20G<346 346>
VStem: 71 37<242 243 243 700> 392 37<243 700>
LayerCount: 2
Fore
SplineSet
383 62.5 m 128,-1,1
 337 -2 337 -2 248 -2 c 128,-1,2
 159 -2 159 -2 115 69 c 128,-1,3
 71 140 71 140 71 242 c 2,4,-1
 71 700 l 1,5,-1
 108 700 l 1,6,-1
 108 243 l 2,7,8
 108 141 108 141 149.5 88 c 128,-1,9
 191 35 191 35 250.5 35 c 128,-1,10
 310 35 310 35 351 87.5 c 128,-1,11
 392 140 392 140 392 243 c 2,12,-1
 392 700 l 1,13,-1
 429 700 l 1,14,-1
 429 242 l 2,15,0
 429 127 429 127 383 62.5 c 128,-1,1
383 885 m 1,16,-1
 269 764 l 1,17,-1
 240 764 l 1,18,-1
 346 900 l 1,19,-1
 383 885 l 1,16,-1
EndSplineSet
EndChar

StartChar: uacute
Encoding: 250 250 64
Width: 481
Flags: MW
HStem: -10 37<206 262> 0 21G<374 411 374 374> 480 20G<63 100 100 100 374 411 411 411> 680 20G<327 327>
VStem: 62 37<181.5 266.5> 374 37<0 60 60 60 110 500 0 500>
LayerCount: 2
Fore
SplineSet
100 500 m 1,0,-1
 99 236 l 2,1,2
 99 152 99 152 139.5 89.5 c 128,-1,3
 180 27 180 27 240.5 27 c 128,-1,4
 301 27 301 27 374 110 c 1,5,-1
 374 500 l 1,6,-1
 411 500 l 1,7,-1
 411 0 l 1,8,-1
 374 0 l 1,9,-1
 374 60 l 1,10,11
 309 -10 309 -10 233 -10 c 0,12,13
 181.705882353 -10 181.705882353 -10 127.5 38.5 c 0,14,15
 99 64 99 64 80.5 115 c 128,-1,16
 62 166 62 166 62 235 c 2,17,-1
 63 500 l 1,18,-1
 100 500 l 1,0,-1
364 685 m 1,19,-1
 250 564 l 1,20,-1
 221 564 l 1,21,-1
 327 700 l 1,22,-1
 364 685 l 1,19,-1
EndSplineSet
EndChar

StartChar: yacute
Encoding: 253 253 65
Width: 477
Flags: MW
HStem: -259 37<221 273> 4 37<293.5 370> 480 20G<59 96 96 96 370 407 407 407> 680 20G<317 317>
VStem: 58 37<178 272.5 178 274.5> 370 37<-12 4 4 4 41 500>
LayerCount: 2
Fore
SplineSet
370 500 m 1,0,-1
 407 500 l 1,1,-1
 407 -13 l 2,2,3
 407 -82 407 -82 390 -133.5 c 128,-1,4
 373 -185 373 -185 346.5 -210.5 c 0,5,6
 296.098039216 -259 296.098039216 -259 246 -259 c 0,7,8
 180 -259 180 -259 120 -203 c 1,9,-1
 120 -155 l 1,10,11
 183 -222 183 -222 240.5 -222 c 128,-1,12
 298 -222 298 -222 334 -160 c 128,-1,13
 370 -98 370 -98 370 -12 c 2,14,-1
 370 4 l 1,15,16
 190.594740391 10.6446392448 190.594740391 10.6446392448 120 82.5 c 0,17,18
 58 145.607142857 58 145.607142857 58 269 c 0,19,20
 58 490 58 490 59 500 c 1,21,-1
 96 500 l 1,22,23
 95 491 95 491 95 268 c 0,24,25
 95 137.384615385 95 137.384615385 176 86.5 c 0,26,27
 248.428571429 41 248.428571429 41 370 41 c 1,28,-1
 370 500 l 1,0,-1
354 685 m 1,29,-1
 240 564 l 1,30,-1
 211 564 l 1,31,-1
 317 700 l 1,32,-1
 354 685 l 1,29,-1
EndSplineSet
EndChar

StartChar: oacute
Encoding: 243 243 66
Width: 451
Flags: MW
HStem: -2 21G<193.5 258.5> 473 37<168 279> 680 20G<309 309>
VStem: 41 37<186 237 237 245 186 316> 373 37<199 269 150 316>
LayerCount: 2
Fore
SplineSet
410 269 m 0,0,1
 410 201 410 201 397 149.5 c 128,-1,2
 384 98 384 98 364.5 70 c 128,-1,3
 345 42 345 42 318.5 25 c 0,4,5
 249.904128761 -19.0048985304 249.904128761 -19.0048985304 169 7 c 0,6,7
 141 16 141 16 110 39.5 c 128,-1,8
 79 63 79 63 60 114 c 128,-1,9
 41 165 41 165 41 239 c 0,10,11
 41 359 41 359 89 434.5 c 128,-1,12
 137 510 137 510 227.5 510 c 128,-1,13
 318 510 318 510 363.5 439 c 128,-1,14
 409 368 409 368 410 269 c 0,0,1
214 35 m 2,15,-1
 226 34 l 1,16,-1
 237 35 l 2,17,18
 373 48 373 48 373 264 c 0,19,20
 373 353 373 353 337 413 c 128,-1,21
 301 473 301 473 222 473 c 0,22,23
 171 473 171 473 137 437.5 c 0,24,25
 78 375.897058824 78 375.897058824 78 245 c 2,26,-1
 78 237 l 2,27,28
 78 154 78 154 112 97.5 c 128,-1,29
 146 41 146 41 214 35 c 2,15,-1
346 685 m 1,30,-1
 232 564 l 1,31,-1
 203 564 l 1,32,-1
 309 700 l 1,33,-1
 346 685 l 1,30,-1
EndSplineSet
EndChar

StartChar: zero
Encoding: 48 48 67
Width: 551
Flags: MW
HStem: 2 38<210.5 350 210 351.5> 651 39<224 339.5>
VStem: 51 37<270.5 450.5 270.5 457.5> 462 37<270.5 421.5 235 450.5>
LayerCount: 2
Fore
SplineSet
499 344 m 0,0,1
 499 179 499 179 443 90.5 c 128,-1,2
 387 2 387 2 280.5 2 c 128,-1,3
 174 2 174 2 112.5 92 c 128,-1,4
 51 182 51 182 51 347.5 c 128,-1,5
 51 513 51 513 111 601.5 c 128,-1,6
 171 690 171 690 282 690 c 0,7,8
 499 690 499 690 499 344 c 0,0,1
415.5 575 m 128,-1,10
 369 651 369 651 280 651 c 128,-1,11
 191 651 191 651 139.5 575 c 128,-1,12
 88 499 88 499 88 347 c 0,13,14
 88 168.8 88 168.8 169 86 c 0,15,16
 214 40 214 40 272 40 c 128,-1,17
 330 40 330 40 367 66 c 128,-1,18
 404 92 404 92 424 137 c 0,19,20
 462 222.5 462 222.5 462 360.75 c 128,-1,9
 462 499 462 499 415.5 575 c 128,-1,10
EndSplineSet
EndChar

StartChar: one
Encoding: 49 49 68
Width: 283
Flags: MW
HStem: 0 21G<169 207 169 169> 680 20G<207 207>
VStem: 169 38<0 644 644 644>
LayerCount: 2
Fore
SplineSet
207 0 m 1,0,-1
 169 0 l 1,1,-1
 169 644 l 1,2,-1
 19 576 l 1,3,-1
 19 613 l 1,4,-1
 207 700 l 1,5,-1
 207 0 l 1,0,-1
EndSplineSet
EndChar

StartChar: two
Encoding: 50 50 69
Width: 437
Flags: MW
HStem: 0 37<95 397 95 397> 663 37<180 241.5>
VStem: 353 36<491 566.5>
LayerCount: 2
Fore
SplineSet
17 0 m 1,0,-1
 284 370 l 2,1,2
 306 401 306 401 317.5 418 c 128,-1,3
 329 435 329 435 341 464 c 128,-1,4
 353 493 353 493 353 518 c 0,5,6
 353 587 353 587 309 625 c 128,-1,7
 265 663 265 663 207 663 c 0,8,9
 149 663 149 663 51 600 c 1,10,-1
 51 636 l 1,11,12
 139 700 139 700 214 700 c 0,13,14
 289 700 289 700 339 649.5 c 128,-1,15
 389 599 389 599 389 522 c 0,16,17
 389 445 389 445 335 370 c 2,18,-1
 95 37 l 1,19,-1
 397 37 l 1,20,-1
 397 0 l 1,21,-1
 17 0 l 1,0,-1
EndSplineSet
EndChar

StartChar: three
Encoding: 51 51 70
Width: 445
Flags: MW
HStem: -1 37<174 248.5 174 256> 366 40<197.5 241 197.5 243> 667 37<179.5 236.5>
VStem: 335 37<502.5 571> 361 37<164.5 246 146.5 250.5>
LayerCount: 2
Fore
SplineSet
27 99 m 1,0,-1
 75 100 l 1,1,2
 125 36 125 36 197 36 c 0,3,4
 269 36 269 36 315 88.5 c 128,-1,5
 361 141 361 141 361 207 c 0,6,7
 361 273 361 273 313.5 319.5 c 128,-1,8
 266 366 266 366 198 366 c 0,9,10
 180 366 180 366 171 364 c 1,11,-1
 171 410 l 1,12,13
 184 406 184 406 203 406 c 0,14,15
 258 406 258 406 296.5 445.5 c 128,-1,16
 335 485 335 485 335 537 c 0,17,18
 335 589 335 589 295 628 c 128,-1,19
 255 667 255 667 196 667 c 0,20,21
 137 667 137 667 95 612 c 1,22,-1
 49 612 l 1,23,24
 70 654 70 654 111 679 c 128,-1,25
 152 704 152 704 202 704 c 0,26,27
 274 704 274 704 323 655.5 c 128,-1,28
 372 607 372 607 372 535 c 0,29,30
 372 437 372 437 290 388 c 1,31,32
 341 363 341 363 369.5 315 c 128,-1,33
 398 267 398 267 398 205 c 0,34,35
 398 117 398 117 341 58 c 128,-1,36
 284 -1 284 -1 199 -1 c 0,37,38
 143 -1 143 -1 98 26 c 128,-1,39
 53 53 53 53 27 99 c 1,0,-1
EndSplineSet
EndChar

StartChar: numbersign
Encoding: 35 35 71
Width: 643
Flags: MW
HStem: 0 238<42 84 42 42 258 258 258 300> 201 37<34 130 34 146 188 346 34 172 404 515> 451 37<128 239 128 256 297 455 128 281 513 609> 451 249<128 390 128 390 349 390 349 455 281 390 349 497 565 606 349 609>
LayerCount: 2
Fore
SplineSet
172 201 m 1,0,-1
 84 0 l 1,1,-1
 42 0 l 1,2,-1
 130 201 l 1,3,-1
 34 201 l 1,4,-1
 34 238 l 1,5,-1
 146 238 l 1,6,-1
 239 451 l 1,7,-1
 128 451 l 1,8,-1
 128 488 l 1,9,-1
 256 488 l 1,10,-1
 349 700 l 1,11,-1
 390 700 l 1,12,-1
 297 488 l 1,13,-1
 472 488 l 1,14,-1
 565 700 l 1,15,-1
 606 700 l 1,16,-1
 513 488 l 1,17,-1
 609 488 l 1,18,-1
 609 451 l 1,19,-1
 497 451 l 1,20,-1
 404 238 l 1,21,-1
 515 238 l 1,22,-1
 515 201 l 1,23,-1
 388 201 l 1,24,-1
 300 0 l 1,25,-1
 258 0 l 1,26,-1
 346 201 l 1,27,-1
 172 201 l 1,0,-1
281 451 m 1,28,-1
 188 238 l 1,29,-1
 362 238 l 1,30,-1
 455 451 l 1,31,-1
 281 451 l 1,28,-1
EndSplineSet
EndChar

StartChar: grave
Encoding: 96 96 72
Width: 833
Flags: MW
HStem: 564 21G<426 426 426 455> 680 20G<349 349>
LayerCount: 2
Fore
SplineSet
426 564 m 1,0,-1
 312 685 l 1,1,-1
 349 700 l 1,2,-1
 455 564 l 1,3,-1
 426 564 l 1,0,-1
EndSplineSet
EndChar

StartChar: Ograve
Encoding: 210 210 73
Width: 547
Flags: MW
HStem: 0 38<208.5 348 208 349.5> 666 39<222 337.5> 880 20G<197 197>
VStem: 49 37<270.5 450.5 270.5 457.5> 460 37<270.5 421.5 235 450.5>
LayerCount: 2
Fore
SplineSet
497 344 m 0,0,1
 497 179 497 179 441 89.5 c 128,-1,2
 385 0 385 0 279 0 c 128,-1,3
 173 0 173 0 111 90.5 c 128,-1,4
 49 181 49 181 49 347.5 c 128,-1,5
 49 514 49 514 110 609.5 c 128,-1,6
 171 705 171 705 280 705 c 0,7,8
 345 705 345 705 390.5 671.5 c 128,-1,9
 436 638 436 638 457.5 581 c 0,10,11
 497 476.279069767 497 476.279069767 497 344 c 0,0,1
413 583 m 128,-1,13
 366 666 366 666 278 666 c 128,-1,14
 190 666 190 666 138 583.5 c 128,-1,15
 86 501 86 501 86 347 c 0,16,17
 86 168.2 86 168.2 167 84.5 c 0,18,19
 212 38 212 38 270 38 c 128,-1,20
 328 38 328 38 365 64 c 128,-1,21
 402 90 402 90 422 135.5 c 0,22,23
 460 221.95 460 221.95 460 360.975 c 128,-1,12
 460 500 460 500 413 583 c 128,-1,13
274 764 m 1,24,-1
 160 885 l 1,25,-1
 197 900 l 1,26,-1
 303 764 l 1,27,-1
 274 764 l 1,24,-1
EndSplineSet
EndChar

StartChar: ograve
Encoding: 242 242 74
Width: 451
Flags: MW
HStem: -2 21G<193.5 258.5> 473 37<168 279> 680 20G<132 132>
VStem: 41 37<186 237 237 245 186 316> 373 37<199 269 150 316>
LayerCount: 2
Fore
SplineSet
410 269 m 0,0,1
 410 201 410 201 397 149.5 c 128,-1,2
 384 98 384 98 364.5 70 c 128,-1,3
 345 42 345 42 318.5 25 c 0,4,5
 249.904128761 -19.0048985304 249.904128761 -19.0048985304 169 7 c 0,6,7
 141 16 141 16 110 39.5 c 128,-1,8
 79 63 79 63 60 114 c 128,-1,9
 41 165 41 165 41 239 c 0,10,11
 41 359 41 359 89 434.5 c 128,-1,12
 137 510 137 510 227.5 510 c 128,-1,13
 318 510 318 510 363.5 439 c 128,-1,14
 409 368 409 368 410 269 c 0,0,1
214 35 m 2,15,-1
 226 34 l 1,16,-1
 237 35 l 2,17,18
 373 48 373 48 373 264 c 0,19,20
 373 353 373 353 337 413 c 128,-1,21
 301 473 301 473 222 473 c 0,22,23
 171 473 171 473 137 437.5 c 0,24,25
 78 375.897058824 78 375.897058824 78 245 c 2,26,-1
 78 237 l 2,27,28
 78 154 78 154 112 97.5 c 128,-1,29
 146 41 146 41 214 35 c 2,15,-1
209 564 m 1,30,-1
 95 685 l 1,31,-1
 132 700 l 1,32,-1
 238 564 l 1,33,-1
 209 564 l 1,30,-1
EndSplineSet
EndChar

StartChar: igrave
Encoding: 236 236 75
Width: 177
Flags: MW
HStem: 0 21G<70 107 70 70> 480 20G<70 107 107 107> 680 20G<2 2>
VStem: 70 37<0 500>
LayerCount: 2
Fore
SplineSet
107 0 m 1,0,-1
 70 0 l 1,1,-1
 70 500 l 1,2,-1
 107 500 l 1,3,-1
 107 0 l 1,0,-1
79 564 m 1,4,-1
 -35 685 l 1,5,-1
 2 700 l 1,6,-1
 108 564 l 1,7,-1
 79 564 l 1,4,-1
EndSplineSet
EndChar

StartChar: egrave
Encoding: 232 232 76
Width: 433
Flags: MW
HStem: -1 37<291.5 393> 264 37<78 354 78 390 77 354> 473 37<184 259> 680 20G<146 146>
VStem: 40 37<174 264 174 363> 354 37<301 381.5 323.5 366>
LayerCount: 2
Fore
SplineSet
393 36 m 1,0,-1
 393 -1 l 1,1,2
 333 -1 333 -1 287.5 4 c 128,-1,3
 242 9 242 9 193 25.5 c 128,-1,4
 144 42 144 42 112.5 70 c 128,-1,5
 81 98 81 98 60.5 147.5 c 128,-1,6
 40 197 40 197 40 265.5 c 128,-1,7
 40 334 40 334 58.5 385 c 128,-1,8
 77 436 77 436 105.5 461.5 c 0,9,10
 159.705882353 510 159.705882353 510 211 510 c 0,11,12
 296 510 296 510 343.5 460 c 128,-1,13
 391 410 391 410 391 328 c 0,14,15
 391 273 391 273 390 264 c 1,16,-1
 77 264 l 1,17,18
 77 135 77 135 154 85.5 c 128,-1,19
 231 36 231 36 393 36 c 1,0,-1
354 301 m 1,20,-1
 354 323 l 2,21,22
 354 389 354 389 316.5 431 c 128,-1,23
 279 473 279 473 217.5 473 c 128,-1,24
 156 473 156 473 120.5 424.5 c 128,-1,25
 85 376 85 376 78 301 c 1,26,-1
 354 301 l 1,20,-1
223 564 m 1,27,-1
 109 685 l 1,28,-1
 146 700 l 1,29,-1
 252 564 l 1,30,-1
 223 564 l 1,27,-1
EndSplineSet
EndChar

StartChar: agrave
Encoding: 224 224 77
Width: 460
Flags: MW
HStem: -1 38<276.5 390> 474 37<185 241 185 246> 480 20G<353 390 390 390> 680 20G<153 153>
VStem: 41 37<174 332 174 363> 353 37<37 390 390 390 440 500 -1 500>
LayerCount: 2
Fore
SplineSet
353 500 m 1,0,-1
 390 500 l 1,1,-1
 390 -1 l 1,2,3
 330 -1 330 -1 285 4 c 128,-1,4
 240 9 240 9 191.5 25.5 c 128,-1,5
 143 42 143 42 112 70 c 128,-1,6
 81 98 81 98 61 147.5 c 128,-1,7
 41 197 41 197 41 259 c 128,-1,8
 41 321 41 321 53.5 365.5 c 128,-1,9
 66 410 66 410 85.5 436.5 c 128,-1,10
 105 463 105 463 129 480.5 c 0,11,12
 170.828571429 511 170.828571429 511 212 511 c 0,13,14
 287 511 287 511 353 440 c 1,15,-1
 353 500 l 1,0,-1
78 264 m 0,16,17
 78 133.384615385 78 133.384615385 159 82.5 c 0,18,19
 231.428571429 37 231.428571429 37 353 37 c 1,20,-1
 353 390 l 1,21,22
 319 429 319 429 287.5 451.5 c 128,-1,23
 256 474 256 474 218 474 c 0,24,25
 155 474 155 474 116.5 418.5 c 128,-1,26
 78 363 78 363 78 264 c 0,16,17
230 564 m 1,27,-1
 116 685 l 1,28,-1
 153 700 l 1,29,-1
 259 564 l 1,30,-1
 230 564 l 1,27,-1
EndSplineSet
EndChar

StartChar: Ugrave
Encoding: 217 217 78
Width: 501
Flags: MW
HStem: -2 37<214 286.5 214 309> 680 20G<71 108 108 108 392 429 429 429> 880 20G<183 183>
VStem: 71 37<242 243 243 700> 392 37<243 700>
LayerCount: 2
Fore
SplineSet
383 62.5 m 128,-1,1
 337 -2 337 -2 248 -2 c 128,-1,2
 159 -2 159 -2 115 69 c 128,-1,3
 71 140 71 140 71 242 c 2,4,-1
 71 700 l 1,5,-1
 108 700 l 1,6,-1
 108 243 l 2,7,8
 108 141 108 141 149.5 88 c 128,-1,9
 191 35 191 35 250.5 35 c 128,-1,10
 310 35 310 35 351 87.5 c 128,-1,11
 392 140 392 140 392 243 c 2,12,-1
 392 700 l 1,13,-1
 429 700 l 1,14,-1
 429 242 l 2,15,0
 429 127 429 127 383 62.5 c 128,-1,1
260 764 m 1,16,-1
 146 885 l 1,17,-1
 183 900 l 1,18,-1
 289 764 l 1,19,-1
 260 764 l 1,16,-1
EndSplineSet
EndChar

StartChar: ugrave
Encoding: 249 249 79
Width: 481
Flags: MW
HStem: -10 37<206 262> 0 21G<374 411 374 374> 480 20G<63 100 100 100 374 411 411 411> 680 20G<162 162>
VStem: 62 37<181.5 266.5> 374 37<0 60 60 60 110 500 0 500>
LayerCount: 2
Fore
SplineSet
100 500 m 1,0,-1
 99 236 l 2,1,2
 99 152 99 152 139.5 89.5 c 128,-1,3
 180 27 180 27 240.5 27 c 128,-1,4
 301 27 301 27 374 110 c 1,5,-1
 374 500 l 1,6,-1
 411 500 l 1,7,-1
 411 0 l 1,8,-1
 374 0 l 1,9,-1
 374 60 l 1,10,11
 309 -10 309 -10 233 -10 c 0,12,13
 181.705882353 -10 181.705882353 -10 127.5 38.5 c 0,14,15
 99 64 99 64 80.5 115 c 128,-1,16
 62 166 62 166 62 235 c 2,17,-1
 63 500 l 1,18,-1
 100 500 l 1,0,-1
239 564 m 1,19,-1
 125 685 l 1,20,-1
 162 700 l 1,21,-1
 268 564 l 1,22,-1
 239 564 l 1,19,-1
EndSplineSet
EndChar

StartChar: Agrave
Encoding: 192 192 80
Width: 502
Flags: MW
HStem: 0 21G<70 107 70 70 391 428 391 391> 330 37<107 391 107 391> 667 37<249.5 322.5> 880 20G<214 214>
VStem: 70 37<0 330 367 457> 391 37<0 330 330 330 367 634 634 634>
LayerCount: 2
Fore
SplineSet
428 648 m 1,0,-1
 428 0 l 1,1,-1
 391 0 l 1,2,-1
 391 330 l 1,3,-1
 107 330 l 1,4,-1
 107 0 l 1,5,-1
 70 0 l 1,6,-1
 70 458 l 2,7,8
 70 566 70 566 139 635 c 128,-1,9
 208 704 208 704 312 704 c 0,10,11
 388 704 388 704 428 648 c 1,0,-1
391 367 m 1,12,-1
 391 634 l 1,13,14
 359 667 359 667 310 667 c 0,15,16
 222 667 222 667 164.5 603 c 128,-1,17
 107 539 107 539 107 457 c 2,18,-1
 107 367 l 1,19,-1
 391 367 l 1,12,-1
291 764 m 1,20,-1
 177 885 l 1,21,-1
 214 900 l 1,22,-1
 320 764 l 1,23,-1
 291 764 l 1,20,-1
EndSplineSet
EndChar

StartChar: Egrave
Encoding: 200 200 81
Width: 479
Flags: MW
HStem: 0 37<113 434 113 434> 370 37<113 434 113 434> 663 37<113 434 113 113> 880 20G<187 187>
VStem: 76 37<37 370 407 663>
LayerCount: 2
Fore
SplineSet
76 0 m 1,0,-1
 76 700 l 1,1,-1
 434 700 l 1,2,-1
 434 663 l 1,3,-1
 113 663 l 1,4,-1
 113 407 l 1,5,-1
 434 407 l 1,6,-1
 434 370 l 1,7,-1
 113 370 l 1,8,-1
 113 37 l 1,9,-1
 434 37 l 1,10,-1
 434 0 l 1,11,-1
 76 0 l 1,0,-1
264 764 m 1,12,-1
 150 885 l 1,13,-1
 187 900 l 1,14,-1
 293 764 l 1,15,-1
 264 764 l 1,12,-1
EndSplineSet
EndChar

StartChar: quotesingle
Encoding: 39 39 82
Width: 130
Flags: MW
HStem: 564 21G<51 51 51 78> 680 20G<46 84 84 84>
VStem: 48 33
LayerCount: 2
Fore
SplineSet
51 564 m 1,0,-1
 46 700 l 1,1,-1
 84 700 l 1,2,-1
 78 564 l 1,3,-1
 51 564 l 1,0,-1
EndSplineSet
EndChar

StartChar: period
Encoding: 46 46 83
Width: 181
Flags: MW
HStem: 0 95<52 129 52 129>
VStem: 52 77<0 95>
LayerCount: 2
Fore
SplineSet
129 0 m 1,0,-1
 52 0 l 1,1,-1
 52 95 l 1,2,-1
 129 95 l 1,3,-1
 129 0 l 1,0,-1
EndSplineSet
EndChar

StartChar: ellipsis
Encoding: 8230 8230 84
Width: 475
Flags: MW
HStem: 0 66<53 100 53 100 214 261 375 422>
VStem: 53 47<0 66 0 66> 214 47<0 66 0 66> 375 47<0 66 0 66>
CounterMasks: 1 70
LayerCount: 2
Fore
SplineSet
53 66 m 1,0,-1
 100 66 l 1,1,-1
 100 0 l 1,2,-1
 53 0 l 1,3,-1
 53 66 l 1,0,-1
214 66 m 1,4,-1
 261 66 l 1,5,-1
 261 0 l 1,6,-1
 214 0 l 1,7,-1
 214 66 l 1,4,-1
375 66 m 1,8,-1
 422 66 l 1,9,-1
 422 0 l 1,10,-1
 375 0 l 1,11,-1
 375 66 l 1,8,-1
EndSplineSet
EndChar

StartChar: colon
Encoding: 58 58 85
Width: 193
Flags: MW
HStem: 0 95<58 135 58 135> 410 95<58 135 58 135>
VStem: 58 77<0 95 410 505>
LayerCount: 2
Fore
SplineSet
135 0 m 1,0,-1
 58 0 l 1,1,-1
 58 95 l 1,2,-1
 135 95 l 1,3,-1
 135 0 l 1,0,-1
135 410 m 1,4,-1
 58 410 l 1,5,-1
 58 505 l 1,6,-1
 135 505 l 1,7,-1
 135 410 l 1,4,-1
EndSplineSet
EndChar

StartChar: Ydieresis
Encoding: 376 376 86
Width: 477
Flags: MW
HStem: -2 37<201 260 201 282> 255 37<187 256 187 257> 680 20G<47 84 84 84 368 405 405 405> 684 66<133 171 133 171 283 321>
VStem: 47 37<499 500 500 700> 133 38<684 750 684 750> 283 38<684 750 684 750> 368 37<243 329 329 329 423 700>
LayerCount: 2
Fore
SplineSet
133 750 m 1,0,-1
 171 750 l 1,1,-1
 171 684 l 1,2,-1
 133 684 l 1,3,-1
 133 750 l 1,0,-1
283 750 m 1,4,-1
 321 750 l 1,5,-1
 321 684 l 1,6,-1
 283 684 l 1,7,-1
 283 750 l 1,4,-1
78 100 m 1,8,-1
 118 99 l 1,9,10
 153 35 153 35 218.5 35 c 0,11,12
 284 35 284 35 326 87.5 c 128,-1,13
 368 140 368 140 368 243 c 2,14,-1
 368 329 l 1,15,16
 320 255 320 255 227.5 255 c 0,17,18
 135 255 135 255 91 326 c 128,-1,19
 47 397 47 397 47 499 c 2,20,-1
 47 700 l 1,21,-1
 84 700 l 1,22,-1
 84 500 l 2,23,24
 84 397 84 397 124 344.5 c 128,-1,25
 164 292 164 292 219.5 292 c 0,26,27
 275 292 275 292 314.5 325 c 128,-1,28
 354 358 354 358 368 423 c 1,29,-1
 368 700 l 1,30,-1
 405 700 l 1,31,-1
 405 242 l 2,32,33
 405 128 405 128 358 63 c 128,-1,34
 311 -2 311 -2 217 -2 c 0,35,36
 123 -2 123 -2 78 100 c 1,8,-1
EndSplineSet
EndChar

StartChar: dieresis
Encoding: 168 168 87
Width: 496
Flags: MW
HStem: 564 66<140 178 140 178 310 348>
VStem: 140 38<564 630 564 630> 310 38<564 630 564 630>
LayerCount: 2
Fore
SplineSet
140 630 m 1,0,-1
 178 630 l 1,1,-1
 178 564 l 1,2,-1
 140 564 l 1,3,-1
 140 630 l 1,0,-1
310 630 m 1,4,-1
 348 630 l 1,5,-1
 348 564 l 1,6,-1
 310 564 l 1,7,-1
 310 630 l 1,4,-1
EndSplineSet
EndChar

StartChar: comma
Encoding: 44 44 88
Width: 192
Flags: MW
HStem: -111 21G<-9 41 -9 -9> 78 20G<75 150 150 150>
LayerCount: 2
Fore
SplineSet
150 98 m 1,0,-1
 41 -111 l 1,1,-1
 -9 -111 l 1,2,-1
 75 98 l 1,3,-1
 150 98 l 1,0,-1
EndSplineSet
EndChar

StartChar: semicolon
Encoding: 59 59 89
Width: 222
Flags: MW
HStem: -111 21G<1 51 1 1> 416 95<83 160 83 160>
VStem: 83 77<416 511>
LayerCount: 2
Fore
SplineSet
160 416 m 1,0,-1
 83 416 l 1,1,-1
 83 511 l 1,2,-1
 160 511 l 1,3,-1
 160 416 l 1,0,-1
160 98 m 1,4,-1
 51 -111 l 1,5,-1
 1 -111 l 1,6,-1
 85 98 l 1,7,-1
 160 98 l 1,4,-1
EndSplineSet
EndChar

StartChar: edieresis
Encoding: 235 235 90
Width: 433
Flags: MW
HStem: -1 37<291.5 393> 264 37<78 354 78 390 77 354> 473 37<184 259> 564 66<121 159 121 159 291 329>
VStem: 40 37<174 264 174 363> 121 38<564 630 564 630> 291 38<564 630 564 630> 354 37<301 381.5 323.5 366>
LayerCount: 2
Fore
SplineSet
393 36 m 1,0,-1
 393 -1 l 1,1,2
 333 -1 333 -1 287.5 4 c 128,-1,3
 242 9 242 9 193 25.5 c 128,-1,4
 144 42 144 42 112.5 70 c 128,-1,5
 81 98 81 98 60.5 147.5 c 128,-1,6
 40 197 40 197 40 265.5 c 128,-1,7
 40 334 40 334 58.5 385 c 128,-1,8
 77 436 77 436 105.5 461.5 c 0,9,10
 159.705882353 510 159.705882353 510 211 510 c 0,11,12
 296 510 296 510 343.5 460 c 128,-1,13
 391 410 391 410 391 328 c 0,14,15
 391 273 391 273 390 264 c 1,16,-1
 77 264 l 1,17,18
 77 135 77 135 154 85.5 c 128,-1,19
 231 36 231 36 393 36 c 1,0,-1
354 301 m 1,20,-1
 354 323 l 2,21,22
 354 389 354 389 316.5 431 c 128,-1,23
 279 473 279 473 217.5 473 c 128,-1,24
 156 473 156 473 120.5 424.5 c 128,-1,25
 85 376 85 376 78 301 c 1,26,-1
 354 301 l 1,20,-1
121 630 m 1,27,-1
 159 630 l 1,28,-1
 159 564 l 1,29,-1
 121 564 l 1,30,-1
 121 630 l 1,27,-1
291 630 m 1,31,-1
 329 630 l 1,32,-1
 329 564 l 1,33,-1
 291 564 l 1,34,-1
 291 630 l 1,31,-1
EndSplineSet
EndChar

StartChar: idieresis
Encoding: 239 239 91
Width: 177
Flags: MW
HStem: 0 21G<70 107 70 70> 480 20G<70 107 107 107> 564 66<-16 22 -16 22 154 192>
VStem: -16 38<564 630 564 630> 70 37<0 500> 154 38<564 630 564 630>
LayerCount: 2
Fore
SplineSet
107 0 m 1,0,-1
 70 0 l 1,1,-1
 70 500 l 1,2,-1
 107 500 l 1,3,-1
 107 0 l 1,0,-1
-16 630 m 1,4,-1
 22 630 l 1,5,-1
 22 564 l 1,6,-1
 -16 564 l 1,7,-1
 -16 630 l 1,4,-1
154 630 m 1,8,-1
 192 630 l 1,9,-1
 192 564 l 1,10,-1
 154 564 l 1,11,-1
 154 630 l 1,8,-1
EndSplineSet
EndChar

StartChar: Odieresis
Encoding: 214 214 92
Width: 547
Flags: MW
HStem: 0 38<208.5 348 208 349.5> 666 39<222 337.5> 764 66<168 206 168 206 338 376>
VStem: 49 37<270.5 450.5 270.5 457.5> 168 38<764 830 764 830> 338 38<764 830 764 830> 460 37<270.5 421.5 235 450.5>
LayerCount: 2
Fore
SplineSet
497 344 m 0,0,1
 497 179 497 179 441 89.5 c 128,-1,2
 385 0 385 0 279 0 c 128,-1,3
 173 0 173 0 111 90.5 c 128,-1,4
 49 181 49 181 49 347.5 c 128,-1,5
 49 514 49 514 110 609.5 c 128,-1,6
 171 705 171 705 280 705 c 0,7,8
 345 705 345 705 390.5 671.5 c 128,-1,9
 436 638 436 638 457.5 581 c 0,10,11
 497 476.279069767 497 476.279069767 497 344 c 0,0,1
413 583 m 128,-1,13
 366 666 366 666 278 666 c 128,-1,14
 190 666 190 666 138 583.5 c 128,-1,15
 86 501 86 501 86 347 c 0,16,17
 86 168.2 86 168.2 167 84.5 c 0,18,19
 212 38 212 38 270 38 c 128,-1,20
 328 38 328 38 365 64 c 128,-1,21
 402 90 402 90 422 135.5 c 0,22,23
 460 221.95 460 221.95 460 360.975 c 128,-1,12
 460 500 460 500 413 583 c 128,-1,13
168 830 m 1,24,-1
 206 830 l 1,25,-1
 206 764 l 1,26,-1
 168 764 l 1,27,-1
 168 830 l 1,24,-1
338 830 m 1,28,-1
 376 830 l 1,29,-1
 376 764 l 1,30,-1
 338 764 l 1,31,-1
 338 830 l 1,28,-1
EndSplineSet
EndChar

StartChar: Idieresis
Encoding: 207 207 93
Width: 189
Flags: MW
HStem: 0 21G<76 113 76 76> 678 20G<76 113 113 113> 764 66<-15 23 -15 23 155 193>
VStem: -15 38<764 830 764 830> 76 37<0 698> 155 38<764 830 764 830>
LayerCount: 2
Fore
SplineSet
113 0 m 1,0,-1
 76 0 l 1,1,-1
 76 698 l 1,2,-1
 113 698 l 1,3,-1
 113 0 l 1,0,-1
-15 830 m 1,4,-1
 23 830 l 1,5,-1
 23 764 l 1,6,-1
 -15 764 l 1,7,-1
 -15 830 l 1,4,-1
155 830 m 1,8,-1
 193 830 l 1,9,-1
 193 764 l 1,10,-1
 155 764 l 1,11,-1
 155 830 l 1,8,-1
EndSplineSet
EndChar

StartChar: Edieresis
Encoding: 203 203 94
Width: 479
Flags: MW
HStem: 0 37<113 434 113 434> 370 37<113 434 113 434> 663 37<113 434 113 113> 764 66<162 200 162 200 332 370>
VStem: 76 37<37 370 407 663> 162 38<764 830 764 830> 332 38<764 830 764 830>
LayerCount: 2
Fore
SplineSet
76 0 m 1,0,-1
 76 700 l 1,1,-1
 434 700 l 1,2,-1
 434 663 l 1,3,-1
 113 663 l 1,4,-1
 113 407 l 1,5,-1
 434 407 l 1,6,-1
 434 370 l 1,7,-1
 113 370 l 1,8,-1
 113 37 l 1,9,-1
 434 37 l 1,10,-1
 434 0 l 1,11,-1
 76 0 l 1,0,-1
162 830 m 1,12,-1
 200 830 l 1,13,-1
 200 764 l 1,14,-1
 162 764 l 1,15,-1
 162 830 l 1,12,-1
332 830 m 1,16,-1
 370 830 l 1,17,-1
 370 764 l 1,18,-1
 332 764 l 1,19,-1
 332 830 l 1,16,-1
EndSplineSet
EndChar

StartChar: Igrave
Encoding: 204 204 95
Width: 189
Flags: MW
HStem: 0 21G<76 113 76 76> 678 20G<76 113 113 113> 880 20G<13 13>
VStem: 76 37<0 698>
LayerCount: 2
Fore
SplineSet
113 0 m 1,0,-1
 76 0 l 1,1,-1
 76 698 l 1,2,-1
 113 698 l 1,3,-1
 113 0 l 1,0,-1
90 764 m 1,4,-1
 -24 885 l 1,5,-1
 13 900 l 1,6,-1
 119 764 l 1,7,-1
 90 764 l 1,4,-1
EndSplineSet
EndChar

StartChar: Ecircumflex
Encoding: 202 202 96
Width: 479
Flags: MW
HStem: 0 37<113 434 113 434> 370 37<113 434 113 434> 663 37<113 434 113 113> 872 20G<258 258>
VStem: 76 37<37 370 407 663>
LayerCount: 2
Fore
SplineSet
76 0 m 1,0,-1
 76 700 l 1,1,-1
 434 700 l 1,2,-1
 434 663 l 1,3,-1
 113 663 l 1,4,-1
 113 407 l 1,5,-1
 434 407 l 1,6,-1
 434 370 l 1,7,-1
 113 370 l 1,8,-1
 113 37 l 1,9,-1
 434 37 l 1,10,-1
 434 0 l 1,11,-1
 76 0 l 1,0,-1
335 756 m 1,12,-1
 258 837 l 1,13,-1
 181 756 l 1,14,-1
 152 756 l 1,15,-1
 258 892 l 1,16,-1
 364 756 l 1,17,-1
 335 756 l 1,12,-1
EndSplineSet
EndChar

StartChar: Adieresis
Encoding: 196 196 97
Width: 502
Flags: MW
HStem: 0 21G<70 107 70 70 391 428 391 391> 330 37<107 391 107 391> 667 37<249.5 322.5> 764 66<150 188 150 188 320 358>
VStem: 70 37<0 330 367 457> 150 38<764 830 764 830> 320 38<764 830 764 830> 391 37<0 330 330 330 367 634 634 634>
LayerCount: 2
Fore
SplineSet
428 648 m 1,0,-1
 428 0 l 1,1,-1
 391 0 l 1,2,-1
 391 330 l 1,3,-1
 107 330 l 1,4,-1
 107 0 l 1,5,-1
 70 0 l 1,6,-1
 70 458 l 2,7,8
 70 566 70 566 139 635 c 128,-1,9
 208 704 208 704 312 704 c 0,10,11
 388 704 388 704 428 648 c 1,0,-1
391 367 m 1,12,-1
 391 634 l 1,13,14
 359 667 359 667 310 667 c 0,15,16
 222 667 222 667 164.5 603 c 128,-1,17
 107 539 107 539 107 457 c 2,18,-1
 107 367 l 1,19,-1
 391 367 l 1,12,-1
150 830 m 1,20,-1
 188 830 l 1,21,-1
 188 764 l 1,22,-1
 150 764 l 1,23,-1
 150 830 l 1,20,-1
320 830 m 1,24,-1
 358 830 l 1,25,-1
 358 764 l 1,26,-1
 320 764 l 1,27,-1
 320 830 l 1,24,-1
EndSplineSet
EndChar

StartChar: adieresis
Encoding: 228 228 98
Width: 460
Flags: MW
HStem: -1 38<276.5 390> 474 37<185 241 185 246> 480 20G<353 390 390 390> 564 66<115 153 115 153 285 323>
VStem: 41 37<174 332 174 363> 115 38<564 630 564 630> 285 38<564 630 564 630> 353 37<37 390 390 390 440 500 -1 500>
LayerCount: 2
Fore
SplineSet
353 500 m 1,0,-1
 390 500 l 1,1,-1
 390 -1 l 1,2,3
 330 -1 330 -1 285 4 c 128,-1,4
 240 9 240 9 191.5 25.5 c 128,-1,5
 143 42 143 42 112 70 c 128,-1,6
 81 98 81 98 61 147.5 c 128,-1,7
 41 197 41 197 41 259 c 128,-1,8
 41 321 41 321 53.5 365.5 c 128,-1,9
 66 410 66 410 85.5 436.5 c 128,-1,10
 105 463 105 463 129 480.5 c 0,11,12
 170.828571429 511 170.828571429 511 212 511 c 0,13,14
 287 511 287 511 353 440 c 1,15,-1
 353 500 l 1,0,-1
78 264 m 0,16,17
 78 133.384615385 78 133.384615385 159 82.5 c 0,18,19
 231.428571429 37 231.428571429 37 353 37 c 1,20,-1
 353 390 l 1,21,22
 319 429 319 429 287.5 451.5 c 128,-1,23
 256 474 256 474 218 474 c 0,24,25
 155 474 155 474 116.5 418.5 c 128,-1,26
 78 363 78 363 78 264 c 0,16,17
115 630 m 1,27,-1
 153 630 l 1,28,-1
 153 564 l 1,29,-1
 115 564 l 1,30,-1
 115 630 l 1,27,-1
285 630 m 1,31,-1
 323 630 l 1,32,-1
 323 564 l 1,33,-1
 285 564 l 1,34,-1
 285 630 l 1,31,-1
EndSplineSet
EndChar

StartChar: ydieresis
Encoding: 255 255 99
Width: 477
Flags: MW
HStem: -259 37<221 273> 4 37<293.5 370> 480 20G<59 96 96 96 370 407 407 407> 564 66<130 168 130 168 300 338>
VStem: 58 37<178 272.5 178 274.5> 130 38<564 630 564 630> 300 38<564 630 564 630> 370 37<-12 4 4 4 41 500>
LayerCount: 2
Fore
SplineSet
370 500 m 1,0,-1
 407 500 l 1,1,-1
 407 -13 l 2,2,3
 407 -82 407 -82 390 -133.5 c 128,-1,4
 373 -185 373 -185 346.5 -210.5 c 0,5,6
 296.098039216 -259 296.098039216 -259 246 -259 c 0,7,8
 180 -259 180 -259 120 -203 c 1,9,-1
 120 -155 l 1,10,11
 183 -222 183 -222 240.5 -222 c 128,-1,12
 298 -222 298 -222 334 -160 c 128,-1,13
 370 -98 370 -98 370 -12 c 2,14,-1
 370 4 l 1,15,16
 190.594740391 10.6446392448 190.594740391 10.6446392448 120 82.5 c 0,17,18
 58 145.607142857 58 145.607142857 58 269 c 0,19,20
 58 490 58 490 59 500 c 1,21,-1
 96 500 l 1,22,23
 95 491 95 491 95 268 c 0,24,25
 95 137.384615385 95 137.384615385 176 86.5 c 0,26,27
 248.428571429 41 248.428571429 41 370 41 c 1,28,-1
 370 500 l 1,0,-1
130 630 m 1,29,-1
 168 630 l 1,30,-1
 168 564 l 1,31,-1
 130 564 l 1,32,-1
 130 630 l 1,29,-1
300 630 m 1,33,-1
 338 630 l 1,34,-1
 338 564 l 1,35,-1
 300 564 l 1,36,-1
 300 630 l 1,33,-1
EndSplineSet
EndChar

StartChar: udieresis
Encoding: 252 252 100
Width: 481
Flags: MW
HStem: -10 37<206 262> 0 21G<374 411 374 374> 480 20G<63 100 100 100 374 411 411 411> 564 66<135 173 135 173 305 343>
VStem: 62 37<181.5 266.5> 135 38<564 630 564 630> 305 38<564 630 564 630> 374 37<0 60 60 60 110 500 0 500>
LayerCount: 2
Fore
SplineSet
100 500 m 1,0,-1
 99 236 l 2,1,2
 99 152 99 152 139.5 89.5 c 128,-1,3
 180 27 180 27 240.5 27 c 128,-1,4
 301 27 301 27 374 110 c 1,5,-1
 374 500 l 1,6,-1
 411 500 l 1,7,-1
 411 0 l 1,8,-1
 374 0 l 1,9,-1
 374 60 l 1,10,11
 309 -10 309 -10 233 -10 c 0,12,13
 181.705882353 -10 181.705882353 -10 127.5 38.5 c 0,14,15
 99 64 99 64 80.5 115 c 128,-1,16
 62 166 62 166 62 235 c 2,17,-1
 63 500 l 1,18,-1
 100 500 l 1,0,-1
135 630 m 1,19,-1
 173 630 l 1,20,-1
 173 564 l 1,21,-1
 135 564 l 1,22,-1
 135 630 l 1,19,-1
305 630 m 1,23,-1
 343 630 l 1,24,-1
 343 564 l 1,25,-1
 305 564 l 1,26,-1
 305 630 l 1,23,-1
EndSplineSet
EndChar

StartChar: odieresis
Encoding: 246 246 101
Width: 451
Flags: MW
HStem: -2 21G<193.5 258.5> 473 37<168 279> 564 66<131 169 131 169 301 339>
VStem: 41 37<186 237 237 245 186 316> 131 38<564 630 564 630> 301 38<564 630 564 630> 373 37<199 269 150 316>
LayerCount: 2
Fore
SplineSet
410 269 m 0,0,1
 410 201 410 201 397 149.5 c 128,-1,2
 384 98 384 98 364.5 70 c 128,-1,3
 345 42 345 42 318.5 25 c 0,4,5
 249.904128761 -19.0048985304 249.904128761 -19.0048985304 169 7 c 0,6,7
 141 16 141 16 110 39.5 c 128,-1,8
 79 63 79 63 60 114 c 128,-1,9
 41 165 41 165 41 239 c 0,10,11
 41 359 41 359 89 434.5 c 128,-1,12
 137 510 137 510 227.5 510 c 128,-1,13
 318 510 318 510 363.5 439 c 128,-1,14
 409 368 409 368 410 269 c 0,0,1
214 35 m 2,15,-1
 226 34 l 1,16,-1
 237 35 l 2,17,18
 373 48 373 48 373 264 c 0,19,20
 373 353 373 353 337 413 c 128,-1,21
 301 473 301 473 222 473 c 0,22,23
 171 473 171 473 137 437.5 c 0,24,25
 78 375.897058824 78 375.897058824 78 245 c 2,26,-1
 78 237 l 2,27,28
 78 154 78 154 112 97.5 c 128,-1,29
 146 41 146 41 214 35 c 2,15,-1
131 630 m 1,30,-1
 169 630 l 1,31,-1
 169 564 l 1,32,-1
 131 564 l 1,33,-1
 131 630 l 1,30,-1
301 630 m 1,34,-1
 339 630 l 1,35,-1
 339 564 l 1,36,-1
 301 564 l 1,37,-1
 301 630 l 1,34,-1
EndSplineSet
EndChar

StartChar: Udieresis
Encoding: 220 220 102
Width: 501
Flags: MW
HStem: -2 37<214 286.5 214 309> 680 20G<71 108 108 108 392 429 429 429> 764 66<151 189 151 189 321 359>
VStem: 71 37<242 243 243 700> 151 38<764 830 764 830> 321 38<764 830 764 830> 392 37<243 700>
LayerCount: 2
Fore
SplineSet
383 62.5 m 128,-1,1
 337 -2 337 -2 248 -2 c 128,-1,2
 159 -2 159 -2 115 69 c 128,-1,3
 71 140 71 140 71 242 c 2,4,-1
 71 700 l 1,5,-1
 108 700 l 1,6,-1
 108 243 l 2,7,8
 108 141 108 141 149.5 88 c 128,-1,9
 191 35 191 35 250.5 35 c 128,-1,10
 310 35 310 35 351 87.5 c 128,-1,11
 392 140 392 140 392 243 c 2,12,-1
 392 700 l 1,13,-1
 429 700 l 1,14,-1
 429 242 l 2,15,0
 429 127 429 127 383 62.5 c 128,-1,1
151 830 m 1,16,-1
 189 830 l 1,17,-1
 189 764 l 1,18,-1
 151 764 l 1,19,-1
 151 830 l 1,16,-1
321 830 m 1,20,-1
 359 830 l 1,21,-1
 359 764 l 1,22,-1
 321 764 l 1,23,-1
 321 830 l 1,20,-1
EndSplineSet
EndChar

StartChar: quotesinglbase
Encoding: 8218 8218 103
Width: 172
Flags: MW
HStem: -72 21G<-23 6 -23 -23> 43 20G<83 133 133 133>
LayerCount: 2
Fore
SplineSet
133 63 m 1,0,-1
 6 -72 l 1,1,-1
 -23 -72 l 1,2,-1
 83 63 l 1,3,-1
 133 63 l 1,0,-1
EndSplineSet
EndChar

StartChar: quotedblbase
Encoding: 8222 8222 104
Width: 332
Flags: MW
HStem: -72 21G<-23 6 -23 -23 137 137 137 166> 43 20G<83 133 133 133 243 293 293 293>
LayerCount: 2
Fore
SplineSet
133 63 m 1,0,-1
 6 -72 l 1,1,-1
 -23 -72 l 1,2,-1
 83 63 l 1,3,-1
 133 63 l 1,0,-1
293 63 m 1,4,-1
 166 -72 l 1,5,-1
 137 -72 l 1,6,-1
 243 63 l 1,7,-1
 293 63 l 1,4,-1
EndSplineSet
EndChar

StartChar: quoteleft
Encoding: 8216 8216 105
Width: 131
Flags: MW
HStem: 564 21G<47 47 47 85> 680 20G<52 79 79 79>
VStem: 49 33
LayerCount: 2
Fore
SplineSet
47 564 m 1,0,-1
 52 700 l 1,1,-1
 79 700 l 1,2,-1
 85 564 l 1,3,-1
 47 564 l 1,0,-1
EndSplineSet
EndChar

StartChar: quoteright
Encoding: 8217 8217 106
Width: 130
Flags: MW
HStem: 564 21G<51 51 51 78> 680 20G<46 84 84 84>
VStem: 48 33
LayerCount: 2
Fore
SplineSet
51 564 m 1,0,-1
 46 700 l 1,1,-1
 84 700 l 1,2,-1
 78 564 l 1,3,-1
 51 564 l 1,0,-1
EndSplineSet
EndChar

StartChar: quotedblleft
Encoding: 8220 8220 107
Width: 281
Flags: MW
HStem: 564 21G<47 47 47 85 197 235 197 197> 680 20G<52 79 79 79 202 229 229 229>
VStem: 49 33 199 33
LayerCount: 2
Fore
SplineSet
47 564 m 1,0,-1
 52 700 l 1,1,-1
 79 700 l 1,2,-1
 85 564 l 1,3,-1
 47 564 l 1,0,-1
197 564 m 1,4,-1
 202 700 l 1,5,-1
 229 700 l 1,6,-1
 235 564 l 1,7,-1
 197 564 l 1,4,-1
EndSplineSet
EndChar

StartChar: quotedblright
Encoding: 8221 8221 108
Width: 280
Flags: MW
HStem: 564 21G<51 51 51 78 201 228 201 201> 680 20G<46 84 84 84 196 234 234 234>
VStem: 48 33 198 33
LayerCount: 2
Fore
SplineSet
51 564 m 1,0,-1
 46 700 l 1,1,-1
 84 700 l 1,2,-1
 78 564 l 1,3,-1
 51 564 l 1,0,-1
201 564 m 1,4,-1
 196 700 l 1,5,-1
 234 700 l 1,6,-1
 228 564 l 1,7,-1
 201 564 l 1,4,-1
EndSplineSet
EndChar

StartChar: parenleft
Encoding: 40 40 109
Width: 309
Flags: MW
HStem: -97 21G<251 297 251 251> 707 20G<292 292>
VStem: 38 38<232 390 232 397.5>
LayerCount: 2
Fore
SplineSet
297 -97 m 1,0,-1
 251 -97 l 1,1,2
 38 91 38 91 38 309 c 0,3,4
 38 564 38 564 292 727 c 1,5,-1
 292 690 l 1,6,7
 76 535 76 535 76 308 c 0,8,9
 76 94 76 94 297 -97 c 1,0,-1
EndSplineSet
EndChar

StartChar: parenright
Encoding: 41 41 110
Width: 309
Flags: MW
HStem: -97 21G<12 58 12 12> 707 20G<17 17>
VStem: 233 38<232 390>
LayerCount: 2
Fore
SplineSet
58 -97 m 1,0,-1
 12 -97 l 1,1,2
 233 94 233 94 233 308 c 0,3,4
 233 535 233 535 17 690 c 1,5,-1
 17 727 l 1,6,7
 271 564 271 564 271 309 c 0,8,9
 271 91 271 91 58 -97 c 1,0,-1
EndSplineSet
EndChar

StartChar: slash
Encoding: 47 47 111
Width: 558
Flags: MW
HStem: -122 21G<22 59 22 22> 680 20G<499 536 536 536>
LayerCount: 2
Fore
SplineSet
536 700 m 1,0,-1
 59 -122 l 1,1,-1
 22 -122 l 1,2,-1
 499 700 l 1,3,-1
 536 700 l 1,0,-1
EndSplineSet
EndChar

StartChar: ordmasculine
Encoding: 186 186 112
Width: 340
Flags: MW
HStem: 431 37<141.5 201 141.5 207.5> 662 37<142.5 197.5>
VStem: 36 37<541.5 594.5 541.5 604> 267 37<540.5 594.5>
LayerCount: 2
Fore
SplineSet
170 431 m 128,-1,1
 114 431 114 431 75 470 c 128,-1,2
 36 509 36 509 36 566 c 128,-1,3
 36 623 36 623 75 661 c 128,-1,4
 114 699 114 699 170.5 699 c 128,-1,5
 227 699 227 699 265.5 661 c 128,-1,6
 304 623 304 623 304 565.5 c 128,-1,7
 304 508 304 508 265 469.5 c 128,-1,0
 226 431 226 431 170 431 c 128,-1,1
239.5 635.5 m 128,-1,9
 212 662 212 662 170.5 662 c 128,-1,10
 129 662 129 662 101 635 c 128,-1,11
 73 608 73 608 73 567.5 c 128,-1,12
 73 527 73 527 100.5 497.5 c 128,-1,13
 128 468 128 468 171 468 c 128,-1,14
 214 468 214 468 240.5 497 c 128,-1,15
 267 526 267 526 267 567.5 c 128,-1,8
 267 609 267 609 239.5 635.5 c 128,-1,9
EndSplineSet
EndChar

StartChar: degree
Encoding: 176 176 113
Width: 340
Flags: MW
HStem: 431 37<141.5 201 141.5 207.5> 662 37<142.5 197.5>
VStem: 36 37<541.5 594.5 541.5 604> 267 37<540.5 594.5>
LayerCount: 2
Fore
SplineSet
170 431 m 128,-1,1
 114 431 114 431 75 470 c 128,-1,2
 36 509 36 509 36 566 c 128,-1,3
 36 623 36 623 75 661 c 128,-1,4
 114 699 114 699 170.5 699 c 128,-1,5
 227 699 227 699 265.5 661 c 128,-1,6
 304 623 304 623 304 565.5 c 128,-1,7
 304 508 304 508 265 469.5 c 128,-1,0
 226 431 226 431 170 431 c 128,-1,1
239.5 635.5 m 128,-1,9
 212 662 212 662 170.5 662 c 128,-1,10
 129 662 129 662 101 635 c 128,-1,11
 73 608 73 608 73 567.5 c 128,-1,12
 73 527 73 527 100.5 497.5 c 128,-1,13
 128 468 128 468 171 468 c 128,-1,14
 214 468 214 468 240.5 497 c 128,-1,15
 267 526 267 526 267 567.5 c 128,-1,8
 267 609 267 609 239.5 635.5 c 128,-1,9
EndSplineSet
EndChar

StartChar: percent
Encoding: 37 37 114
Width: 644
Flags: MW
HStem: 0 21G<143 180 143 143> 1 37<448.5 508 448.5 514.5> 231 37<138.5 198 138.5 204.5> 462 37<139.5 194.5> 480 20G<462 499 499 499>
VStem: 33 37<341.5 394.5 341.5 404> 264 37<340.5 394.5> 343 37<111.5 164.5 111.5 174> 574 37<110.5 164.5>
LayerCount: 2
Fore
SplineSet
180 0 m 1,0,-1
 143 0 l 1,1,-1
 462 500 l 1,2,-1
 499 500 l 1,3,-1
 180 0 l 1,0,-1
262.5 269.5 m 128,-1,5
 224 231 224 231 167.5 231 c 128,-1,6
 111 231 111 231 72 270 c 128,-1,7
 33 309 33 309 33 366 c 128,-1,8
 33 423 33 423 72 461 c 128,-1,9
 111 499 111 499 167.5 499 c 128,-1,10
 224 499 224 499 262.5 461 c 128,-1,11
 301 423 301 423 301 365.5 c 128,-1,4
 301 308 301 308 262.5 269.5 c 128,-1,5
236.5 435.5 m 128,-1,13
 209 462 209 462 167.5 462 c 128,-1,14
 126 462 126 462 98 435 c 128,-1,15
 70 408 70 408 70 367.5 c 128,-1,16
 70 327 70 327 97.5 297.5 c 128,-1,17
 125 268 125 268 168 268 c 128,-1,18
 211 268 211 268 237.5 297 c 128,-1,19
 264 326 264 326 264 367.5 c 128,-1,12
 264 409 264 409 236.5 435.5 c 128,-1,13
572.5 39.5 m 128,-1,21
 534 1 534 1 477.5 1 c 128,-1,22
 421 1 421 1 382 40 c 128,-1,23
 343 79 343 79 343 136 c 128,-1,24
 343 193 343 193 382 231 c 128,-1,25
 421 269 421 269 477.5 269 c 128,-1,26
 534 269 534 269 572.5 231 c 128,-1,27
 611 193 611 193 611 135.5 c 128,-1,20
 611 78 611 78 572.5 39.5 c 128,-1,21
546.5 205.5 m 128,-1,29
 519 232 519 232 477.5 232 c 128,-1,30
 436 232 436 232 408 205 c 128,-1,31
 380 178 380 178 380 137.5 c 128,-1,32
 380 97 380 97 407.5 67.5 c 128,-1,33
 435 38 435 38 478 38 c 128,-1,34
 521 38 521 38 547.5 67 c 128,-1,35
 574 96 574 96 574 137.5 c 128,-1,28
 574 179 574 179 546.5 205.5 c 128,-1,29
EndSplineSet
EndChar

StartChar: endash
Encoding: 8211 8211 115
Width: 453
Flags: MW
HStem: 263 37<52 401 52 401>
LayerCount: 2
Fore
SplineSet
401 263 m 1,0,-1
 52 263 l 1,1,-1
 52 300 l 1,2,-1
 401 300 l 1,3,-1
 401 263 l 1,0,-1
EndSplineSet
EndChar

StartChar: hyphen
Encoding: 45 45 116
Width: 334
Flags: MW
HStem: 257 37<47 287 47 287>
LayerCount: 2
Fore
SplineSet
287 257 m 1,0,-1
 47 257 l 1,1,-1
 47 294 l 1,2,-1
 287 294 l 1,3,-1
 287 257 l 1,0,-1
EndSplineSet
EndChar

StartChar: emdash
Encoding: 8212 8212 117
Width: 570
Flags: MW
HStem: 260 37<52 518 52 518>
LayerCount: 2
Fore
SplineSet
518 260 m 1,0,-1
 52 260 l 1,1,-1
 52 297 l 1,2,-1
 518 297 l 1,3,-1
 518 260 l 1,0,-1
EndSplineSet
EndChar

StartChar: underscore
Encoding: 95 95 118
Width: 708
Flags: MW
HStem: -100 37<121 587 121 587>
LayerCount: 2
Fore
SplineSet
587 -100 m 1,0,-1
 121 -100 l 1,1,-1
 121 -63 l 1,2,-1
 587 -63 l 1,3,-1
 587 -100 l 1,0,-1
EndSplineSet
EndChar

StartChar: circumflex
Encoding: 710 710 119
Width: 372
Flags: MW
HStem: 556 21G<81 110 81 81 264 293 264 264> 672 20G<187 187>
LayerCount: 2
Fore
SplineSet
264 556 m 1,0,-1
 187 637 l 1,1,-1
 110 556 l 1,2,-1
 81 556 l 1,3,-1
 187 692 l 1,4,-1
 293 556 l 1,5,-1
 264 556 l 1,0,-1
EndSplineSet
EndChar

StartChar: Acircumflex
Encoding: 194 194 120
Width: 502
Flags: MW
HStem: 0 21G<70 107 70 70 391 428 391 391> 330 37<107 391 107 391> 667 37<249.5 322.5> 872 20G<256 256>
VStem: 70 37<0 330 367 457> 391 37<0 330 330 330 367 634 634 634>
LayerCount: 2
Fore
SplineSet
428 648 m 1,0,-1
 428 0 l 1,1,-1
 391 0 l 1,2,-1
 391 330 l 1,3,-1
 107 330 l 1,4,-1
 107 0 l 1,5,-1
 70 0 l 1,6,-1
 70 458 l 2,7,8
 70 566 70 566 139 635 c 128,-1,9
 208 704 208 704 312 704 c 0,10,11
 388 704 388 704 428 648 c 1,0,-1
391 367 m 1,12,-1
 391 634 l 1,13,14
 359 667 359 667 310 667 c 0,15,16
 222 667 222 667 164.5 603 c 128,-1,17
 107 539 107 539 107 457 c 2,18,-1
 107 367 l 1,19,-1
 391 367 l 1,12,-1
333 756 m 1,20,-1
 256 837 l 1,21,-1
 179 756 l 1,22,-1
 150 756 l 1,23,-1
 256 892 l 1,24,-1
 362 756 l 1,25,-1
 333 756 l 1,20,-1
EndSplineSet
EndChar

StartChar: Icircumflex
Encoding: 206 206 121
Width: 189
Flags: MW
HStem: 0 21G<76 113 76 76> 678 20G<76 113 113 113> 872 20G<89 89>
VStem: 76 37<0 698>
LayerCount: 2
Fore
SplineSet
113 0 m 1,0,-1
 76 0 l 1,1,-1
 76 698 l 1,2,-1
 113 698 l 1,3,-1
 113 0 l 1,0,-1
166 756 m 1,4,-1
 89 837 l 1,5,-1
 12 756 l 1,6,-1
 -17 756 l 1,7,-1
 89 892 l 1,8,-1
 195 756 l 1,9,-1
 166 756 l 1,4,-1
EndSplineSet
EndChar

StartChar: Ocircumflex
Encoding: 212 212 122
Width: 547
Flags: MW
HStem: 0 38<208.5 348 208 349.5> 666 39<222 337.5> 872 20G<272 272>
VStem: 49 37<270.5 450.5 270.5 457.5> 460 37<270.5 421.5 235 450.5>
LayerCount: 2
Fore
SplineSet
497 344 m 0,0,1
 497 179 497 179 441 89.5 c 128,-1,2
 385 0 385 0 279 0 c 128,-1,3
 173 0 173 0 111 90.5 c 128,-1,4
 49 181 49 181 49 347.5 c 128,-1,5
 49 514 49 514 110 609.5 c 128,-1,6
 171 705 171 705 280 705 c 0,7,8
 345 705 345 705 390.5 671.5 c 128,-1,9
 436 638 436 638 457.5 581 c 0,10,11
 497 476.279069767 497 476.279069767 497 344 c 0,0,1
413 583 m 128,-1,13
 366 666 366 666 278 666 c 128,-1,14
 190 666 190 666 138 583.5 c 128,-1,15
 86 501 86 501 86 347 c 0,16,17
 86 168.2 86 168.2 167 84.5 c 0,18,19
 212 38 212 38 270 38 c 128,-1,20
 328 38 328 38 365 64 c 128,-1,21
 402 90 402 90 422 135.5 c 0,22,23
 460 221.95 460 221.95 460 360.975 c 128,-1,12
 460 500 460 500 413 583 c 128,-1,13
349 756 m 1,24,-1
 272 837 l 1,25,-1
 195 756 l 1,26,-1
 166 756 l 1,27,-1
 272 892 l 1,28,-1
 378 756 l 1,29,-1
 349 756 l 1,24,-1
EndSplineSet
EndChar

StartChar: Ucircumflex
Encoding: 219 219 123
Width: 501
Flags: MW
HStem: -2 37<214 286.5 214 309> 680 20G<71 108 108 108 392 429 429 429> 872 20G<248 248>
VStem: 71 37<242 243 243 700> 392 37<243 700>
LayerCount: 2
Fore
SplineSet
383 62.5 m 128,-1,1
 337 -2 337 -2 248 -2 c 128,-1,2
 159 -2 159 -2 115 69 c 128,-1,3
 71 140 71 140 71 242 c 2,4,-1
 71 700 l 1,5,-1
 108 700 l 1,6,-1
 108 243 l 2,7,8
 108 141 108 141 149.5 88 c 128,-1,9
 191 35 191 35 250.5 35 c 128,-1,10
 310 35 310 35 351 87.5 c 128,-1,11
 392 140 392 140 392 243 c 2,12,-1
 392 700 l 1,13,-1
 429 700 l 1,14,-1
 429 242 l 2,15,0
 429 127 429 127 383 62.5 c 128,-1,1
325 756 m 1,16,-1
 248 837 l 1,17,-1
 171 756 l 1,18,-1
 142 756 l 1,19,-1
 248 892 l 1,20,-1
 354 756 l 1,21,-1
 325 756 l 1,16,-1
EndSplineSet
EndChar

StartChar: acircumflex
Encoding: 226 226 124
Width: 460
Flags: MW
HStem: -1 38<276.5 390> 474 37<185 241 185 246> 480 20G<353 390 390 390> 672 20G<219 219>
VStem: 41 37<174 332 174 363> 353 37<37 390 390 390 440 500 -1 500>
LayerCount: 2
Fore
SplineSet
353 500 m 1,0,-1
 390 500 l 1,1,-1
 390 -1 l 1,2,3
 330 -1 330 -1 285 4 c 128,-1,4
 240 9 240 9 191.5 25.5 c 128,-1,5
 143 42 143 42 112 70 c 128,-1,6
 81 98 81 98 61 147.5 c 128,-1,7
 41 197 41 197 41 259 c 128,-1,8
 41 321 41 321 53.5 365.5 c 128,-1,9
 66 410 66 410 85.5 436.5 c 128,-1,10
 105 463 105 463 129 480.5 c 0,11,12
 170.828571429 511 170.828571429 511 212 511 c 0,13,14
 287 511 287 511 353 440 c 1,15,-1
 353 500 l 1,0,-1
78 264 m 0,16,17
 78 133.384615385 78 133.384615385 159 82.5 c 0,18,19
 231.428571429 37 231.428571429 37 353 37 c 1,20,-1
 353 390 l 1,21,22
 319 429 319 429 287.5 451.5 c 128,-1,23
 256 474 256 474 218 474 c 0,24,25
 155 474 155 474 116.5 418.5 c 128,-1,26
 78 363 78 363 78 264 c 0,16,17
296 556 m 1,27,-1
 219 637 l 1,28,-1
 142 556 l 1,29,-1
 113 556 l 1,30,-1
 219 692 l 1,31,-1
 325 556 l 1,32,-1
 296 556 l 1,27,-1
EndSplineSet
EndChar

StartChar: icircumflex
Encoding: 238 238 125
Width: 177
Flags: MW
HStem: 0 21G<70 107 70 70> 480 20G<70 107 107 107> 672 20G<87 87>
VStem: 70 37<0 500>
LayerCount: 2
Fore
SplineSet
107 0 m 1,0,-1
 70 0 l 1,1,-1
 70 500 l 1,2,-1
 107 500 l 1,3,-1
 107 0 l 1,0,-1
164 556 m 1,4,-1
 87 637 l 1,5,-1
 10 556 l 1,6,-1
 -19 556 l 1,7,-1
 87 692 l 1,8,-1
 193 556 l 1,9,-1
 164 556 l 1,4,-1
EndSplineSet
EndChar

StartChar: ecircumflex
Encoding: 234 234 126
Width: 433
Flags: MW
HStem: -1 37<291.5 393> 264 37<78 354 78 390 77 354> 473 37<184 259> 672 20G<231 231>
VStem: 40 37<174 264 174 363> 354 37<301 381.5 323.5 366>
LayerCount: 2
Fore
SplineSet
393 36 m 1,0,-1
 393 -1 l 1,1,2
 333 -1 333 -1 287.5 4 c 128,-1,3
 242 9 242 9 193 25.5 c 128,-1,4
 144 42 144 42 112.5 70 c 128,-1,5
 81 98 81 98 60.5 147.5 c 128,-1,6
 40 197 40 197 40 265.5 c 128,-1,7
 40 334 40 334 58.5 385 c 128,-1,8
 77 436 77 436 105.5 461.5 c 0,9,10
 159.705882353 510 159.705882353 510 211 510 c 0,11,12
 296 510 296 510 343.5 460 c 128,-1,13
 391 410 391 410 391 328 c 0,14,15
 391 273 391 273 390 264 c 1,16,-1
 77 264 l 1,17,18
 77 135 77 135 154 85.5 c 128,-1,19
 231 36 231 36 393 36 c 1,0,-1
354 301 m 1,20,-1
 354 323 l 2,21,22
 354 389 354 389 316.5 431 c 128,-1,23
 279 473 279 473 217.5 473 c 128,-1,24
 156 473 156 473 120.5 424.5 c 128,-1,25
 85 376 85 376 78 301 c 1,26,-1
 354 301 l 1,20,-1
308 556 m 1,27,-1
 231 637 l 1,28,-1
 154 556 l 1,29,-1
 125 556 l 1,30,-1
 231 692 l 1,31,-1
 337 556 l 1,32,-1
 308 556 l 1,27,-1
EndSplineSet
EndChar

StartChar: ucircumflex
Encoding: 251 251 127
Width: 481
Flags: MW
HStem: -10 37<206 262> 0 21G<374 411 374 374> 480 20G<63 100 100 100 374 411 411 411> 672 20G<240 240>
VStem: 62 37<181.5 266.5> 374 37<0 60 60 60 110 500 0 500>
LayerCount: 2
Fore
SplineSet
100 500 m 1,0,-1
 99 236 l 2,1,2
 99 152 99 152 139.5 89.5 c 128,-1,3
 180 27 180 27 240.5 27 c 128,-1,4
 301 27 301 27 374 110 c 1,5,-1
 374 500 l 1,6,-1
 411 500 l 1,7,-1
 411 0 l 1,8,-1
 374 0 l 1,9,-1
 374 60 l 1,10,11
 309 -10 309 -10 233 -10 c 0,12,13
 181.705882353 -10 181.705882353 -10 127.5 38.5 c 0,14,15
 99 64 99 64 80.5 115 c 128,-1,16
 62 166 62 166 62 235 c 2,17,-1
 63 500 l 1,18,-1
 100 500 l 1,0,-1
317 556 m 1,19,-1
 240 637 l 1,20,-1
 163 556 l 1,21,-1
 134 556 l 1,22,-1
 240 692 l 1,23,-1
 346 556 l 1,24,-1
 317 556 l 1,19,-1
EndSplineSet
EndChar

StartChar: ocircumflex
Encoding: 244 244 128
Width: 451
Flags: MW
HStem: -2 21G<193.5 258.5> 473 37<168 279> 672 20G<231 231>
VStem: 41 37<186 237 237 245 186 316> 373 37<199 269 150 316>
LayerCount: 2
Fore
SplineSet
410 269 m 0,0,1
 410 201 410 201 397 149.5 c 128,-1,2
 384 98 384 98 364.5 70 c 128,-1,3
 345 42 345 42 318.5 25 c 0,4,5
 249.904128761 -19.0048985304 249.904128761 -19.0048985304 169 7 c 0,6,7
 141 16 141 16 110 39.5 c 128,-1,8
 79 63 79 63 60 114 c 128,-1,9
 41 165 41 165 41 239 c 0,10,11
 41 359 41 359 89 434.5 c 128,-1,12
 137 510 137 510 227.5 510 c 128,-1,13
 318 510 318 510 363.5 439 c 128,-1,14
 409 368 409 368 410 269 c 0,0,1
214 35 m 2,15,-1
 226 34 l 1,16,-1
 237 35 l 2,17,18
 373 48 373 48 373 264 c 0,19,20
 373 353 373 353 337 413 c 128,-1,21
 301 473 301 473 222 473 c 0,22,23
 171 473 171 473 137 437.5 c 0,24,25
 78 375.897058824 78 375.897058824 78 245 c 2,26,-1
 78 237 l 2,27,28
 78 154 78 154 112 97.5 c 128,-1,29
 146 41 146 41 214 35 c 2,15,-1
308 556 m 1,30,-1
 231 637 l 1,31,-1
 154 556 l 1,32,-1
 125 556 l 1,33,-1
 231 692 l 1,34,-1
 337 556 l 1,35,-1
 308 556 l 1,30,-1
EndSplineSet
EndChar

StartChar: quotedbl
Encoding: 34 34 129
Width: 280
Flags: MW
HStem: 564 21G<51 51 51 78 201 228 201 201> 680 20G<46 84 84 84 196 234 234 234>
VStem: 48 33 198 33
LayerCount: 2
Fore
SplineSet
51 564 m 1,0,-1
 46 700 l 1,1,-1
 84 700 l 1,2,-1
 78 564 l 1,3,-1
 51 564 l 1,0,-1
201 564 m 1,4,-1
 196 700 l 1,5,-1
 234 700 l 1,6,-1
 228 564 l 1,7,-1
 201 564 l 1,4,-1
EndSplineSet
EndChar

StartChar: dollar
Encoding: 36 36 130
Width: 424
Flags: MW
HStem: -90 21G<203 240 203 203> -2 37<48 73 48 75> 663 36<240 240> 770 20G<203 240 240 240>
VStem: 36 36<509 514 514 558.5 483 568.5> 203 37<-90 11 11 11 64 339 399 662 662 662 699 790> 351 37<195 205 205 243>
LayerCount: 2
Fore
SplineSet
240 -90 m 1,0,-1
 203 -90 l 1,1,-1
 203 11 l 1,2,3
 143 -2 143 -2 73 -2 c 2,4,-1
 48 -2 l 1,5,-1
 48 35 l 1,6,7
 138 35 138 35 203 53 c 1,8,-1
 203 353 l 1,9,10
 95.4909090909 391.822727273 95.4909090909 391.822727273 70 420.5 c 0,11,12
 36 458.75 36 458.75 36 509 c 2,13,-1
 36 514 l 2,14,15
 36 592 36 592 86 643 c 128,-1,16
 136 694 136 694 203 699 c 1,17,-1
 203 790 l 1,18,-1
 240 790 l 1,19,-1
 240 699 l 1,20,21
 302 697 302 697 374 686 c 1,22,-1
 374 650 l 1,23,24
 309 660 309 660 240 663 c 1,25,-1
 240 385 l 1,26,27
 348.692699491 342.181663837 348.692699491 342.181663837 376 270.5 c 0,28,29
 388 239 388 239 388 197 c 0,30,31
 388 70 388 70 240 21 c 1,32,-1
 240 -90 l 1,0,-1
113 441.5 m 0,33,34
 142.22705314 422.236714976 142.22705314 422.236714976 203 399 c 1,35,-1
 203 662 l 1,36,37
 149 656 149 656 110.5 616.5 c 128,-1,38
 72 577 72 577 72 522.761363636 c 128,-1,39
 72 468.522727273 72 468.522727273 113 441.5 c 0,33,34
351 195 m 2,40,-1
 351 205 l 2,41,42
 351 257 351 257 322 287 c 128,-1,43
 293 317 293 317 240 339 c 1,44,-1
 240 64 l 1,45,46
 351 106 351 106 351 195 c 2,40,-1
EndSplineSet
EndChar

StartChar: plus
Encoding: 43 43 131
Width: 427
Flags: MW
HStem: 159 21G<196 233 196 196> 323 37<35 196 35 196 233 393> 497 20G<196 233 233 233>
VStem: 196 37<159 323 159 323 360 517>
LayerCount: 2
Fore
SplineSet
393 323 m 1,0,-1
 233 323 l 1,1,-1
 233 159 l 1,2,-1
 196 159 l 1,3,-1
 196 323 l 1,4,-1
 35 323 l 1,5,-1
 35 360 l 1,6,-1
 196 360 l 1,7,-1
 196 517 l 1,8,-1
 233 517 l 1,9,-1
 233 360 l 1,10,-1
 393 360 l 1,11,-1
 393 323 l 1,0,-1
EndSplineSet
EndChar

StartChar: exclam
Encoding: 33 33 132
Width: 199
Flags: MW
HStem: 0 21G<81 119 81 81> 730 20G<81 118 118 118>
VStem: 81 37<200 750>
LayerCount: 2
Fore
SplineSet
81 66 m 1,0,-1
 119 66 l 1,1,-1
 119 0 l 1,2,-1
 81 0 l 1,3,-1
 81 66 l 1,0,-1
118 200 m 1,4,-1
 81 200 l 1,5,-1
 81 750 l 1,6,-1
 118 750 l 1,7,-1
 118 200 l 1,4,-1
EndSplineSet
EndChar

StartChar: exclamdown
Encoding: 161 161 133
Width: 199
Flags: MW
HStem: 0 21G<81 118 81 81> 730 20G<81 119 119 119>
VStem: 81 37<0 550 0 550>
LayerCount: 2
Fore
SplineSet
119 684 m 1,0,-1
 81 684 l 1,1,-1
 81 750 l 1,2,-1
 119 750 l 1,3,-1
 119 684 l 1,0,-1
81 550 m 1,4,-1
 118 550 l 1,5,-1
 118 0 l 1,6,-1
 81 0 l 1,7,-1
 81 550 l 1,4,-1
EndSplineSet
EndChar

StartChar: cent
Encoding: 162 162 134
Width: 440
Flags: MW
HStem: 0 21G<219 256 219 219> 89 37<372.5 397> 563 37<192 219> 670 20G<219 256 256 256>
VStem: 47 37<295.5 407.5 295.5 453> 219 37<0 100 147 560 600 690>
LayerCount: 2
Fore
SplineSet
256 0 m 1,0,-1
 219 0 l 1,1,-1
 219 108 l 1,2,3
 47 156 47 156 47 355 c 0,4,5
 47 411 47 411 60 455.5 c 128,-1,6
 73 500 73 500 92 526 c 128,-1,7
 111 552 111 552 135.5 569.5 c 0,8,9
 178.2 600 178.2 600 219 600 c 1,10,-1
 219 690 l 1,11,-1
 256 690 l 1,12,-1
 256 597 l 1,13,14
 307 589 307 589 344 560.5 c 128,-1,15
 381 532 381 532 396 489 c 1,16,-1
 358 489 l 1,17,18
 329 545 329 545 256 560 c 1,19,-1
 256 137 l 1,20,21
 311 126 311 126 397 126 c 1,22,-1
 397 89 l 1,23,24
 316 89 316 89 256 100 c 1,25,-1
 256 0 l 1,0,-1
84 354 m 0,26,27
 84 189 84 189 219 147 c 1,28,-1
 219 563 l 1,29,30
 153 560 153 560 118.5 500.5 c 128,-1,31
 84 441 84 441 84 354 c 0,26,27
EndSplineSet
EndChar

StartChar: Scaron
Encoding: 352 352 135
Width: 428
Flags: MW
HStem: -2 37<49 74 49 126> 663 37<184.5 246 172.5 250> 867 20G<104 133 133 133 287 316 316 316>
VStem: 37 37<439 566.5> 352 37<142 300.5>
LayerCount: 2
Fore
SplineSet
133 887 m 1,0,-1
 210 805 l 1,1,-1
 287 887 l 1,2,-1
 316 887 l 1,3,-1
 210 751 l 1,4,-1
 104 887 l 1,5,-1
 133 887 l 1,0,-1
307 105.5 m 0,6,7
 352 145 352 145 352 201 c 128,-1,8
 352 257 352 257 319.5 290.5 c 128,-1,9
 287 324 287 324 241 340.5 c 128,-1,10
 195 357 195 357 148.5 374 c 128,-1,11
 102 391 102 391 69.5 425.5 c 128,-1,12
 37 460 37 460 37 514 c 0,13,14
 37 608 37 608 89.5 654 c 128,-1,15
 142 700 142 700 215 700 c 128,-1,16
 288 700 288 700 375 686 c 1,17,-1
 375 649 l 1,18,19
 297 663 297 663 229 663 c 128,-1,20
 161 663 161 663 117.5 625 c 128,-1,21
 74 587 74 587 74 518 c 0,22,23
 74 458.181818182 74 458.181818182 136.5 427.5 c 0,24,25
 164 414 164 414 197.5 402 c 128,-1,26
 231 390 231 390 265 375 c 128,-1,27
 299 360 299 360 326.5 339.5 c 128,-1,28
 354 319 354 319 371.5 282.5 c 128,-1,29
 389 246 389 246 389 197.5 c 128,-1,30
 389 149 389 149 366.5 112 c 128,-1,31
 344 75 344 75 311 54 c 128,-1,32
 278 33 278 33 233.5 19.5 c 0,33,34
 162.62962963 -2 162.62962963 -2 74 -2 c 2,35,-1
 49 -2 l 1,36,-1
 49 35 l 1,37,38
 226.683544304 35 226.683544304 35 307 105.5 c 0,6,7
EndSplineSet
EndChar

StartChar: Zcaron
Encoding: 381 381 136
Width: 385
Flags: MW
HStem: 0 37<67 368 67 368> 663 37<43 357 43 301> 862 20G<116 145 145 145 299 328 328 328>
LayerCount: 2
Fore
SplineSet
145 882 m 1,0,-1
 222 800 l 1,1,-1
 299 882 l 1,2,-1
 328 882 l 1,3,-1
 222 746 l 1,4,-1
 116 882 l 1,5,-1
 145 882 l 1,0,-1
43 663 m 1,6,-1
 43 700 l 1,7,-1
 357 700 l 1,8,-1
 67 37 l 1,9,-1
 368 37 l 1,10,-1
 368 0 l 1,11,-1
 10 0 l 1,12,-1
 301 663 l 1,13,-1
 43 663 l 1,6,-1
EndSplineSet
EndChar

StartChar: guillemotright
Encoding: 187 187 137
Width: 444
Flags: MW
HStem: 0 21G<32 69 32 32 212 249 212 212> 480 20G<34 71 71 71 214 251 251 251>
LayerCount: 2
Fore
SplineSet
417 252 m 1,0,-1
 249 0 l 1,1,-1
 212 0 l 1,2,-1
 380 252 l 1,3,-1
 214 500 l 1,4,-1
 251 500 l 1,5,-1
 417 252 l 1,0,-1
237 252 m 1,6,-1
 69 0 l 1,7,-1
 32 0 l 1,8,-1
 200 252 l 1,9,-1
 34 500 l 1,10,-1
 71 500 l 1,11,-1
 237 252 l 1,6,-1
EndSplineSet
EndChar

StartChar: guilsinglleft
Encoding: 8249 8249 138
Width: 264
Flags: MW
HStem: 0 21G<195 195 195 232> 480 20G<193 230 230 230>
LayerCount: 2
Fore
SplineSet
195 0 m 1,0,-1
 27 252 l 1,1,-1
 193 500 l 1,2,-1
 230 500 l 1,3,-1
 64 252 l 1,4,-1
 232 0 l 1,5,-1
 195 0 l 1,0,-1
EndSplineSet
EndChar

StartChar: guilsinglright
Encoding: 8250 8250 139
Width: 264
Flags: MW
HStem: 0 21G<32 69 32 32> 480 20G<34 71 71 71>
LayerCount: 2
Fore
SplineSet
237 252 m 1,0,-1
 69 0 l 1,1,-1
 32 0 l 1,2,-1
 200 252 l 1,3,-1
 34 500 l 1,4,-1
 71 500 l 1,5,-1
 237 252 l 1,0,-1
EndSplineSet
EndChar

StartChar: guillemotleft
Encoding: 171 171 140
Width: 444
Flags: MW
HStem: 0 21G<195 195 195 232 375 412 375 375> 480 20G<193 230 230 230 373 410 410 410>
LayerCount: 2
Fore
SplineSet
195 0 m 1,0,-1
 27 252 l 1,1,-1
 193 500 l 1,2,-1
 230 500 l 1,3,-1
 64 252 l 1,4,-1
 232 0 l 1,5,-1
 195 0 l 1,0,-1
375 0 m 1,6,-1
 207 252 l 1,7,-1
 373 500 l 1,8,-1
 410 500 l 1,9,-1
 244 252 l 1,10,-1
 412 0 l 1,11,-1
 375 0 l 1,6,-1
EndSplineSet
EndChar

StartChar: divide
Encoding: 247 247 141
Width: 435
Flags: MW
HStem: 0 95<194 271 194 271> 229 37<51 384 51 384> 410 95<194 271 194 271>
VStem: 194 77<0 95 410 505>
LayerCount: 2
Fore
SplineSet
384 229 m 1,0,-1
 51 229 l 1,1,-1
 51 266 l 1,2,-1
 384 266 l 1,3,-1
 384 229 l 1,0,-1
271 0 m 1,4,-1
 194 0 l 1,5,-1
 194 95 l 1,6,-1
 271 95 l 1,7,-1
 271 0 l 1,4,-1
271 410 m 1,8,-1
 194 410 l 1,9,-1
 194 505 l 1,10,-1
 271 505 l 1,11,-1
 271 410 l 1,8,-1
EndSplineSet
EndChar

StartChar: greater
Encoding: 62 62 142
Width: 498
Flags: MW
HStem: 146 21G<52 127 52 52> 435 20G<54 129 129 129>
LayerCount: 2
Fore
SplineSet
469 300 m 1,0,-1
 127 146 l 1,1,-1
 52 146 l 1,2,-1
 400 300 l 1,3,-1
 54 455 l 1,4,-1
 129 455 l 1,5,-1
 469 300 l 1,0,-1
EndSplineSet
EndChar

StartChar: less
Encoding: 60 60 143
Width: 498
Flags: MW
HStem: 146 21G<371 371 371 446> 435 20G<369 444 444 444>
LayerCount: 2
Fore
SplineSet
371 146 m 1,0,-1
 29 300 l 1,1,-1
 369 455 l 1,2,-1
 444 455 l 1,3,-1
 98 300 l 1,4,-1
 446 146 l 1,5,-1
 371 146 l 1,0,-1
EndSplineSet
EndChar

StartChar: equal
Encoding: 61 61 144
Width: 581
Flags: MW
HStem: 208 37<63 518 63 518> 395 37<63 518 63 518>
LayerCount: 2
Fore
SplineSet
518 395 m 1,0,-1
 63 395 l 1,1,-1
 63 432 l 1,2,-1
 518 432 l 1,3,-1
 518 395 l 1,0,-1
518 208 m 1,4,-1
 63 208 l 1,5,-1
 63 245 l 1,6,-1
 518 245 l 1,7,-1
 518 208 l 1,4,-1
EndSplineSet
EndChar

StartChar: tilde
Encoding: 732 732 145
Width: 391
Flags: MW
HStem: 557 34<229 253> 600 34<92.5 115.5 92.5 117>
LayerCount: 2
Fore
SplineSet
300 626 m 1,0,-1
 300 589 l 1,1,2
 278 557 278 557 245.5 557 c 0,3,4
 213 557 213 557 172.5 578.5 c 0,5,6
 132 600 132 600 106 600 c 0,7,8
 64 600 64 600 40 568 c 1,9,-1
 40 604 l 1,10,11
 46 617 46 617 65.5 625.5 c 128,-1,12
 85 634 85 634 109 634 c 0,13,14
 133 634 133 634 174.5 612.5 c 0,15,16
 216 591 216 591 240 591 c 0,17,18
 280 591 280 591 300 626 c 1,0,-1
EndSplineSet
EndChar

StartChar: Atilde
Encoding: 195 195 146
Width: 502
Flags: MW
HStem: 0 21G<70 107 70 70 391 428 391 391> 330 37<107 391 107 391> 667 37<249.5 322.5> 757 34<307 331> 800 34<170.5 193.5 170.5 195>
VStem: 70 37<0 330 367 457> 391 37<0 330 330 330 367 634 634 634>
LayerCount: 2
Fore
SplineSet
428 648 m 1,0,-1
 428 0 l 1,1,-1
 391 0 l 1,2,-1
 391 330 l 1,3,-1
 107 330 l 1,4,-1
 107 0 l 1,5,-1
 70 0 l 1,6,-1
 70 458 l 2,7,8
 70 566 70 566 139 635 c 128,-1,9
 208 704 208 704 312 704 c 0,10,11
 388 704 388 704 428 648 c 1,0,-1
391 367 m 1,12,-1
 391 634 l 1,13,14
 359 667 359 667 310 667 c 0,15,16
 222 667 222 667 164.5 603 c 128,-1,17
 107 539 107 539 107 457 c 2,18,-1
 107 367 l 1,19,-1
 391 367 l 1,12,-1
378 826 m 1,20,-1
 378 789 l 1,21,22
 356 757 356 757 323.5 757 c 0,23,24
 291 757 291 757 250.5 778.5 c 0,25,26
 210 800 210 800 184 800 c 0,27,28
 142 800 142 800 118 768 c 1,29,-1
 118 804 l 1,30,31
 124 817 124 817 143.5 825.5 c 128,-1,32
 163 834 163 834 187 834 c 0,33,34
 211 834 211 834 252.5 812.5 c 0,35,36
 294 791 294 791 318 791 c 0,37,38
 358 791 358 791 378 826 c 1,20,-1
EndSplineSet
EndChar

StartChar: Ntilde
Encoding: 209 209 147
Width: 510
Flags: MW
HStem: 0 21G<76 113 76 76 397 397 397 434> 680 20G<397 434 434 434> 681 20G<76 129 129 129> 757 34<311 335> 800 34<174.5 197.5 174.5 199>
VStem: 76 37<0 637 0 701> 397 37<0 700 85 700 0 700>
LayerCount: 2
Fore
SplineSet
113 637 m 1,0,-1
 113 0 l 1,1,-1
 76 0 l 1,2,-1
 76 701 l 1,3,-1
 129 701 l 1,4,-1
 397 85 l 1,5,-1
 397 700 l 1,6,-1
 434 700 l 1,7,-1
 434 0 l 1,8,-1
 397 0 l 1,9,-1
 113 637 l 1,0,-1
382 826 m 1,10,-1
 382 789 l 1,11,12
 360 757 360 757 327.5 757 c 0,13,14
 295 757 295 757 254.5 778.5 c 0,15,16
 214 800 214 800 188 800 c 0,17,18
 146 800 146 800 122 768 c 1,19,-1
 122 804 l 1,20,21
 128 817 128 817 147.5 825.5 c 128,-1,22
 167 834 167 834 191 834 c 0,23,24
 215 834 215 834 256.5 812.5 c 0,25,26
 298 791 298 791 322 791 c 0,27,28
 362 791 362 791 382 826 c 1,10,-1
EndSplineSet
EndChar

StartChar: atilde
Encoding: 227 227 148
Width: 460
Flags: MW
HStem: -1 38<276.5 390> 474 37<185 241 185 246> 480 20G<353 390 390 390> 557 34<279 303> 600 34<142.5 165.5 142.5 167>
VStem: 41 37<174 332 174 363> 353 37<37 390 390 390 440 500 -1 500>
LayerCount: 2
Fore
SplineSet
353 500 m 1,0,-1
 390 500 l 1,1,-1
 390 -1 l 1,2,3
 330 -1 330 -1 285 4 c 128,-1,4
 240 9 240 9 191.5 25.5 c 128,-1,5
 143 42 143 42 112 70 c 128,-1,6
 81 98 81 98 61 147.5 c 128,-1,7
 41 197 41 197 41 259 c 128,-1,8
 41 321 41 321 53.5 365.5 c 128,-1,9
 66 410 66 410 85.5 436.5 c 128,-1,10
 105 463 105 463 129 480.5 c 0,11,12
 170.828571429 511 170.828571429 511 212 511 c 0,13,14
 287 511 287 511 353 440 c 1,15,-1
 353 500 l 1,0,-1
78 264 m 0,16,17
 78 133.384615385 78 133.384615385 159 82.5 c 0,18,19
 231.428571429 37 231.428571429 37 353 37 c 1,20,-1
 353 390 l 1,21,22
 319 429 319 429 287.5 451.5 c 128,-1,23
 256 474 256 474 218 474 c 0,24,25
 155 474 155 474 116.5 418.5 c 128,-1,26
 78 363 78 363 78 264 c 0,16,17
350 626 m 1,27,-1
 350 589 l 1,28,29
 328 557 328 557 295.5 557 c 128,-1,30
 263 557 263 557 222.5 578.5 c 128,-1,31
 182 600 182 600 156 600 c 0,32,33
 114 600 114 600 90 568 c 1,34,-1
 90 604 l 1,35,36
 96 617 96 617 115.5 625.5 c 128,-1,37
 135 634 135 634 159 634 c 128,-1,38
 183 634 183 634 224.5 612.5 c 128,-1,39
 266 591 266 591 290 591 c 0,40,41
 330 591 330 591 350 626 c 1,27,-1
EndSplineSet
EndChar

StartChar: Otilde
Encoding: 213 213 149
Width: 547
Flags: MW
HStem: 0 38<208.5 348 208 349.5> 666 39<222 337.5> 757 34<331 355> 800 34<194.5 217.5 194.5 219>
VStem: 49 37<270.5 450.5 270.5 457.5> 460 37<270.5 421.5 235 450.5>
LayerCount: 2
Fore
SplineSet
497 344 m 0,0,1
 497 179 497 179 441 89.5 c 128,-1,2
 385 0 385 0 279 0 c 128,-1,3
 173 0 173 0 111 90.5 c 128,-1,4
 49 181 49 181 49 347.5 c 128,-1,5
 49 514 49 514 110 609.5 c 128,-1,6
 171 705 171 705 280 705 c 0,7,8
 345 705 345 705 390.5 671.5 c 128,-1,9
 436 638 436 638 457.5 581 c 0,10,11
 497 476.279069767 497 476.279069767 497 344 c 0,0,1
413 583 m 128,-1,13
 366 666 366 666 278 666 c 128,-1,14
 190 666 190 666 138 583.5 c 128,-1,15
 86 501 86 501 86 347 c 0,16,17
 86 168.2 86 168.2 167 84.5 c 0,18,19
 212 38 212 38 270 38 c 128,-1,20
 328 38 328 38 365 64 c 128,-1,21
 402 90 402 90 422 135.5 c 0,22,23
 460 221.95 460 221.95 460 360.975 c 128,-1,12
 460 500 460 500 413 583 c 128,-1,13
402 826 m 1,24,-1
 402 789 l 1,25,26
 380 757 380 757 347.5 757 c 128,-1,27
 315 757 315 757 274.5 778.5 c 128,-1,28
 234 800 234 800 208 800 c 0,29,30
 166 800 166 800 142 768 c 1,31,-1
 142 804 l 1,32,33
 148 817 148 817 167.5 825.5 c 128,-1,34
 187 834 187 834 211 834 c 128,-1,35
 235 834 235 834 276.5 812.5 c 128,-1,36
 318 791 318 791 342 791 c 0,37,38
 382 791 382 791 402 826 c 1,24,-1
EndSplineSet
EndChar

StartChar: otilde
Encoding: 245 245 150
Width: 451
Flags: MW
HStem: -2 21G<193.5 258.5> 473 37<168 279> 557 34<287 311> 600 34<150.5 173.5 150.5 175>
VStem: 41 37<186 237 237 245 186 316> 373 37<199 269 150 316>
LayerCount: 2
Fore
SplineSet
410 269 m 0,0,1
 410 201 410 201 397 149.5 c 128,-1,2
 384 98 384 98 364.5 70 c 128,-1,3
 345 42 345 42 318.5 25 c 0,4,5
 249.904128761 -19.0048985304 249.904128761 -19.0048985304 169 7 c 0,6,7
 141 16 141 16 110 39.5 c 128,-1,8
 79 63 79 63 60 114 c 128,-1,9
 41 165 41 165 41 239 c 0,10,11
 41 359 41 359 89 434.5 c 128,-1,12
 137 510 137 510 227.5 510 c 128,-1,13
 318 510 318 510 363.5 439 c 128,-1,14
 409 368 409 368 410 269 c 0,0,1
214 35 m 2,15,-1
 226 34 l 1,16,-1
 237 35 l 2,17,18
 373 48 373 48 373 264 c 0,19,20
 373 353 373 353 337 413 c 128,-1,21
 301 473 301 473 222 473 c 0,22,23
 171 473 171 473 137 437.5 c 0,24,25
 78 375.897058824 78 375.897058824 78 245 c 2,26,-1
 78 237 l 2,27,28
 78 154 78 154 112 97.5 c 128,-1,29
 146 41 146 41 214 35 c 2,15,-1
358 626 m 1,30,-1
 358 589 l 1,31,32
 336 557 336 557 303.5 557 c 128,-1,33
 271 557 271 557 230.5 578.5 c 128,-1,34
 190 600 190 600 164 600 c 0,35,36
 122 600 122 600 98 568 c 1,37,-1
 98 604 l 1,38,39
 104 617 104 617 123.5 625.5 c 128,-1,40
 143 634 143 634 167 634 c 128,-1,41
 191 634 191 634 232.5 612.5 c 128,-1,42
 274 591 274 591 298 591 c 0,43,44
 338 591 338 591 358 626 c 1,30,-1
EndSplineSet
EndChar

StartChar: ntilde
Encoding: 241 241 151
Width: 482
Flags: MW
HStem: 0 21G<70 107 70 70 381 381 381 418> 473 37<219 275 219 282.5> 480 20G<70 107 107 107> 557 34<304 328> 600 34<167.5 190.5 167.5 192>
VStem: 70 37<0 390 440 500> 382 37<233.5 318.5>
LayerCount: 2
Fore
SplineSet
381 0 m 1,0,-1
 382 264 l 2,1,2
 382 348 382 348 341.5 410.5 c 128,-1,3
 301 473 301 473 240.5 473 c 128,-1,4
 180 473 180 473 107 390 c 1,5,-1
 107 0 l 1,6,-1
 70 0 l 1,7,-1
 70 500 l 1,8,-1
 107 500 l 1,9,-1
 107 440 l 1,10,11
 172 510 172 510 248 510 c 0,12,13
 299.294117647 510 299.294117647 510 353.5 461.5 c 0,14,15
 382 436 382 436 400.5 385 c 128,-1,16
 419 334 419 334 419 265 c 2,17,-1
 418 0 l 1,18,-1
 381 0 l 1,0,-1
375 626 m 1,19,-1
 375 589 l 1,20,21
 353 557 353 557 320.5 557 c 128,-1,22
 288 557 288 557 247.5 578.5 c 128,-1,23
 207 600 207 600 181 600 c 0,24,25
 139 600 139 600 115 568 c 1,26,-1
 115 604 l 1,27,28
 122 617 122 617 141 625.5 c 128,-1,29
 160 634 160 634 184 634 c 128,-1,30
 208 634 208 634 249.5 612.5 c 128,-1,31
 291 591 291 591 315 591 c 0,32,33
 355 591 355 591 375 626 c 1,19,-1
EndSplineSet
EndChar

StartChar: plusminus
Encoding: 177 177 152
Width: 466
Flags: MW
HStem: 0 37<54 412 54 412> 323 37<54 215 54 215 252 412> 497 20G<215 252 252 252>
VStem: 215 37<159 323 159 323 360 517>
LayerCount: 2
Fore
SplineSet
412 323 m 1,0,-1
 252 323 l 1,1,-1
 252 159 l 1,2,-1
 215 159 l 1,3,-1
 215 323 l 1,4,-1
 54 323 l 1,5,-1
 54 360 l 1,6,-1
 215 360 l 1,7,-1
 215 517 l 1,8,-1
 252 517 l 1,9,-1
 252 360 l 1,10,-1
 412 360 l 1,11,-1
 412 323 l 1,0,-1
412 0 m 1,12,-1
 54 0 l 1,13,-1
 54 37 l 1,14,-1
 412 37 l 1,15,-1
 412 0 l 1,12,-1
EndSplineSet
EndChar

StartChar: bracketleft
Encoding: 91 91 153
Width: 333
Flags: MW
HStem: -100 37<113 309 113 309> 663 37<113 309 113 113>
VStem: 76 37<-63 663 -63 700> 76 233<-100 -63 663 700>
LayerCount: 2
Fore
SplineSet
309 -100 m 1,0,-1
 76 -100 l 1,1,-1
 76 700 l 1,2,-1
 309 700 l 1,3,-1
 309 663 l 1,4,-1
 113 663 l 1,5,-1
 113 -63 l 1,6,-1
 309 -63 l 1,7,-1
 309 -100 l 1,0,-1
EndSplineSet
EndChar

StartChar: bracketright
Encoding: 93 93 154
Width: 333
Flags: MW
HStem: -100 37<24 220 24 257 24 220> 663 37<24 220 24 257>
VStem: 24 233<-100 -63 -63 -63 663 700> 220 37<-63 663 663 663>
LayerCount: 2
Fore
SplineSet
257 -100 m 1,0,-1
 24 -100 l 1,1,-1
 24 -63 l 1,2,-1
 220 -63 l 1,3,-1
 220 663 l 1,4,-1
 24 663 l 1,5,-1
 24 700 l 1,6,-1
 257 700 l 1,7,-1
 257 -100 l 1,0,-1
EndSplineSet
EndChar

StartChar: backslash
Encoding: 92 92 155
Width: 567
Flags: MW
HStem: -100 21G<500 500 500 544> 680 20G<23 67 67 67>
LayerCount: 2
Fore
SplineSet
500 -100 m 1,0,-1
 23 700 l 1,1,-1
 67 700 l 1,2,-1
 544 -100 l 1,3,-1
 500 -100 l 1,0,-1
EndSplineSet
EndChar

StartChar: asciicircum
Encoding: 94 94 156
Width: 328
Flags: MW
HStem: 536 21G<42 71 42 42 245 274 245 245> 672 20G<158 158>
LayerCount: 2
Fore
SplineSet
245 536 m 1,0,-1
 158 635 l 1,1,-1
 71 536 l 1,2,-1
 42 536 l 1,3,-1
 158 692 l 1,4,-1
 274 536 l 1,5,-1
 245 536 l 1,0,-1
EndSplineSet
EndChar

StartChar: bar
Encoding: 124 124 157
Width: 185
Flags: MW
HStem: -191 21G<74 111 74 74> 696 20G<74 111 111 111>
VStem: 74 37<-191 716>
LayerCount: 2
Fore
SplineSet
111 -191 m 1,0,-1
 74 -191 l 1,1,-1
 74 716 l 1,2,-1
 111 716 l 1,3,-1
 111 -191 l 1,0,-1
EndSplineSet
EndChar

StartChar: zcaron
Encoding: 382 382 158
Width: 423
Flags: MW
HStem: 0 37<19 19 66 396> 463 37<42 348 42 396 42 396> 679 20G<92 121 121 121 275 304 304 304>
LayerCount: 2
Fore
SplineSet
121 699 m 1,0,-1
 198 617 l 1,1,-1
 275 699 l 1,2,-1
 304 699 l 1,3,-1
 198 563 l 1,4,-1
 92 699 l 1,5,-1
 121 699 l 1,0,-1
19 0 m 1,6,-1
 19 37 l 1,7,-1
 348 463 l 1,8,-1
 42 463 l 1,9,-1
 42 500 l 1,10,-1
 396 500 l 1,11,-1
 396 463 l 1,12,-1
 66 37 l 1,13,-1
 396 37 l 1,14,-1
 396 0 l 1,15,-1
 19 0 l 1,6,-1
EndSplineSet
EndChar

StartChar: oslash
Encoding: 248 248 159
Width: 466
Flags: MW
HStem: -2 21G<215 266.5> 0 21G<12 49 12 12> 473 37<176 257.5> 480 20G<417 454 454 454>
VStem: 49 37<215.5 237 237 245 215.5 316> 381 37<199 269 150 285>
LayerCount: 2
Fore
SplineSet
385 415 m 1,0,1
 416 354 416 354 417 277.5 c 128,-1,2
 418 201 418 201 405 149.5 c 128,-1,3
 392 98 392 98 372.5 70 c 128,-1,4
 353 42 353 42 326.5 25 c 0,5,6
 284.411764706 -2 284.411764706 -2 234 -2 c 0,7,8
 147 -2 147 -2 98 60 c 1,9,-1
 49 0 l 1,10,-1
 12 0 l 1,11,-1
 81 85 l 1,12,13
 49 146 49 146 49 252.5 c 128,-1,14
 49 359 49 359 97 434.5 c 128,-1,15
 145 510 145 510 232.5 510 c 128,-1,16
 320 510 320 510 369 441 c 1,17,-1
 417 500 l 1,18,-1
 454 500 l 1,19,-1
 385 415 l 1,0,1
230 473 m 0,20,21
 179 473 179 473 145 437.5 c 0,22,23
 86 375.897058824 86 375.897058824 86 245 c 2,24,-1
 86 237 l 2,25,26
 86 169 86 169 108 119 c 1,27,-1
 345 412 l 1,28,29
 306 473 306 473 230 473 c 0,20,21
222 35 m 1,30,-1
 234 34 l 1,31,-1
 245 35 l 2,32,33
 381 48 381 48 381 264 c 0,34,35
 381 334 381 334 360 384 c 1,36,-1
 123 92 l 1,37,38
 159 39 159 39 222 35 c 1,30,-1
EndSplineSet
EndChar

StartChar: Oslash
Encoding: 216 216 160
Width: 567
Flags: MW
HStem: 0 38<257 360 257 361.5> 666 39<234 322.5> 680 20G<509 549 549 549>
VStem: 61 37<314 450.5 314 457.5> 472 37<270.5 383 235 387.5>
LayerCount: 2
Fore
SplineSet
468 584 m 1,0,1
 509 493 509 493 509 336 c 128,-1,2
 509 179 509 179 453 89.5 c 128,-1,3
 397 0 397 0 290.5 0 c 128,-1,4
 184 0 184 0 123 89 c 1,5,-1
 61 0 l 1,6,-1
 18 0 l 1,7,-1
 104 123 l 1,8,9
 61 212 61 212 61 344 c 0,10,11
 61 514 61 514 122 609.5 c 128,-1,12
 183 705 183 705 289 705 c 128,-1,13
 395 705 395 705 451 617 c 1,14,-1
 509 700 l 1,15,-1
 549 700 l 1,16,-1
 468 584 l 1,0,1
442 546 m 1,17,-1
 147 124 l 1,18,19
 198 38 198 38 290 38 c 0,20,21
 340 38 340 38 377 64 c 128,-1,22
 414 90 414 90 434 135.5 c 0,23,24
 472 221.95 472 221.95 472 343.475 c 128,-1,25
 472 465 472 465 442 546 c 1,17,-1
426 581 m 1,26,27
 379 666 379 666 290.5 666 c 128,-1,28
 202 666 202 666 150 583.5 c 128,-1,29
 98 501 98 501 98 347 c 0,30,31
 98 236 98 236 130 159 c 1,32,-1
 426 581 l 1,26,27
EndSplineSet
EndChar

StartChar: asciitilde
Encoding: 126 126 161
Width: 369
Flags: MW
HStem: 231 34<244 268> 274 34<107.5 130.5 107.5 132>
LayerCount: 2
Fore
SplineSet
315 300 m 1,0,-1
 315 263 l 1,1,2
 293 231 293 231 260.5 231 c 0,3,4
 228 231 228 231 187.5 252.5 c 0,5,6
 147 274 147 274 121 274 c 0,7,8
 79 274 79 274 55 242 c 1,9,-1
 55 278 l 1,10,11
 62 291 62 291 81 299.5 c 128,-1,12
 100 308 100 308 124 308 c 0,13,14
 148 308 148 308 189.5 286.5 c 0,15,16
 231 265 231 265 255 265 c 0,17,18
 295 265 295 265 315 300 c 1,0,-1
EndSplineSet
EndChar

StartChar: Thorn
Encoding: 222 222 162
Width: 473
Flags: MW
HStem: 0 21G<76 113 76 76> 158 37<113 214 113 216> 511 37<113 226 113 230> 670 20G<76 113 113 113>
VStem: 76 37<0 158 195 511 548 690> 413 37<304.5 405>
LayerCount: 2
Fore
SplineSet
390.5 498 m 128,-1,1
 450 448 450 448 450 355.5 c 128,-1,2
 450 263 450 263 384 210.5 c 128,-1,3
 318 158 318 158 214 158 c 2,4,-1
 113 158 l 1,5,-1
 113 0 l 1,6,-1
 76 0 l 1,7,-1
 76 690 l 1,8,-1
 113 690 l 1,9,-1
 113 548 l 1,10,-1
 230 548 l 2,11,0
 331 548 331 548 390.5 498 c 128,-1,1
358.5 237.5 m 128,-1,13
 413 280 413 280 413 354.5 c 128,-1,14
 413 429 413 429 362.5 470 c 128,-1,15
 312 511 312 511 226 511 c 2,16,-1
 113 511 l 1,17,-1
 113 195 l 1,18,-1
 216 195 l 2,19,12
 304 195 304 195 358.5 237.5 c 128,-1,13
EndSplineSet
EndChar

StartChar: thorn
Encoding: 254 254 163
Width: 460
Flags: MW
HStem: -191 21G<70 107 70 70> 0 37<107 181> 474 37<219.5 273.5 219.5 282> 730 20G<70 107 107 107>
VStem: 70 37<-191 0 37 390 440 750> 382 37<171 327.5>
LayerCount: 2
Fore
SplineSet
70 750 m 1,0,-1
 107 750 l 1,1,-1
 107 440 l 1,2,3
 171 511 171 511 243 511 c 0,4,5
 297.843137255 511 297.843137255 511 353 462.5 c 0,6,7
 382 437 382 437 400.5 386 c 128,-1,8
 419 335 419 335 419 269 c 128,-1,9
 419 203 419 203 401.5 155 c 128,-1,10
 384 107 384 107 356.5 78.5 c 128,-1,11
 329 50 329 50 286.5 32.5 c 0,12,13
 217.511627907 4.09302325581 217.511627907 4.09302325581 107 0 c 1,14,-1
 107 -191 l 1,15,-1
 70 -191 l 1,16,-1
 70 750 l 1,0,-1
382 258 m 0,17,18
 382 360 382 360 343 417 c 128,-1,19
 304 474 304 474 242 474 c 128,-1,20
 180 474 180 474 107 390 c 1,21,-1
 107 37 l 1,22,23
 382 37 382 37 382 258 c 0,17,18
EndSplineSet
EndChar

StartChar: cedilla
Encoding: 184 184 164
Width: 361
Flags: MW
HStem: -221 33<136.5 168 132 179.5> -20 20G<122 163 163 163>
VStem: 122 158<-168.5 0> 247 33<-153.5 -97.5>
LayerCount: 2
Fore
SplineSet
122 0 m 1,0,-1
 163 0 l 1,1,2
 165 -25 165 -25 178.5 -38 c 128,-1,3
 192 -51 192 -51 208.5 -55.5 c 128,-1,4
 225 -60 225 -60 241.5 -65 c 0,5,6
 280 -76.6666666667 280 -76.6666666667 280 -133 c 0,7,8
 280 -221 280 -221 142 -221 c 0,9,10
 119 -221 119 -221 108 -220 c 1,11,-1
 106 -187 l 1,12,13
 116 -188 116 -188 137 -188 c 0,14,15
 247 -188 247 -188 247 -133 c 0,16,17
 247 -92.9347826087 247 -92.9347826087 185 -83.5 c 0,18,19
 162 -80 162 -80 142 -59.5 c 128,-1,20
 122 -39 122 -39 122 0 c 1,0,-1
EndSplineSet
EndChar

StartChar: ccedilla
Encoding: 231 231 165
Width: 416
Flags: MW
HStem: -206 33<240.5 272 236 283.5> -206 242<240.5 391> -1 21G<370 391> 473 37<185 246>
VStem: 41 37<185.5 318.5 174 363> 226 158 351 33<-138.5 -82.5>
LayerCount: 2
Fore
SplineSet
390 399 m 1,0,-1
 352 400 l 1,1,2
 336 433 336 433 298 453 c 128,-1,3
 260 473 260 473 218 473 c 0,4,5
 150 473 150 473 114 412.5 c 128,-1,6
 78 352 78 352 78 264 c 0,7,8
 78 135 78 135 154 85.5 c 128,-1,9
 230 36 230 36 391 36 c 1,10,-1
 391 -1 l 1,11,12
 320 -1 320 -1 268 7 c 1,13,14
 273 -19 273 -19 292.5 -31 c 128,-1,15
 312 -43 312 -43 332 -45.5 c 128,-1,16
 352 -48 352 -48 368 -65 c 128,-1,17
 384 -82 384 -82 384 -118 c 0,18,19
 384 -206 384 -206 246 -206 c 0,20,21
 223 -206 223 -206 212 -205 c 1,22,-1
 210 -172 l 1,23,24
 220 -173 220 -173 241 -173 c 0,25,26
 351 -173 351 -173 351 -118 c 0,27,28
 351 -77.9347826087 351 -77.9347826087 289 -68.5 c 0,29,30
 266 -65 266 -65 246 -44.5 c 128,-1,31
 226 -24 226 -24 226 15 c 1,32,33
 41 60 41 60 41 265 c 0,34,35
 41 334 41 334 59.5 385 c 128,-1,36
 78 436 78 436 106.5 461.5 c 0,37,38
 160.705882353 510 160.705882353 510 218.852941176 510 c 128,-1,39
 277 510 277 510 325 480 c 128,-1,40
 373 450 373 450 390 399 c 1,0,-1
EndSplineSet
EndChar

StartChar: Ccedilla
Encoding: 199 199 166
Width: 431
Flags: MW
HStem: -203 33<262.5 294 258 305.5> -203 239<300.5 305.5> -1 21G<387 407> 663 37<205.5 274>
VStem: 49 37<281.5 473.5 269 518> 248 158 373 33<-135.5 -79.5>
LayerCount: 2
Fore
SplineSet
407 545 m 1,0,-1
 370 546 l 1,1,2
 361 600 361 600 325.5 631.5 c 128,-1,3
 290 663 290 663 246 663 c 0,4,5
 172 663 172 663 129 587.5 c 128,-1,6
 86 512 86 512 86 414 c 0,7,8
 86 139.455882353 86 139.455882353 228 69.5 c 0,9,10
 296 36 296 36 407 36 c 1,11,-1
 407 -1 l 1,12,13
 341 -1 341 -1 290 7 c 1,14,15
 295 -17 295 -17 314.5 -28.5 c 128,-1,16
 334 -40 334 -40 354 -42.5 c 128,-1,17
 374 -45 374 -45 390 -62 c 128,-1,18
 406 -79 406 -79 406 -115 c 0,19,20
 406 -203 406 -203 268 -203 c 0,21,22
 245 -203 245 -203 234 -202 c 1,23,-1
 232 -169 l 1,24,25
 242 -170 242 -170 263 -170 c 0,26,27
 373 -170 373 -170 373 -115 c 0,28,29
 373 -74.9347826087 373 -74.9347826087 311 -65.5 c 0,30,31
 288 -62 288 -62 268 -42 c 128,-1,32
 248 -22 248 -22 248 17 c 1,33,34
 154 46 154 46 101.5 137 c 128,-1,35
 49 228 49 228 49 415 c 0,36,37
 49 488 49 488 69 546 c 128,-1,38
 89 604 89 604 119 635.5 c 0,39,40
 180.428571429 700 180.428571429 700 242.214285714 700 c 128,-1,41
 304 700 304 700 355.5 650 c 128,-1,42
 407 600 407 600 407 545 c 1,0,-1
EndSplineSet
EndChar

StartChar: scaron
Encoding: 353 353 167
Width: 413
Flags: MW
HStem: -2 37<44 69 44 121> 473 37<179.5 241 167.5 245> 679 20G<87 116 116 116 270 299 299 299>
VStem: 32 36<319 426.5 319 441.5> 342 37<102 241.5>
LayerCount: 2
Fore
SplineSet
116 699 m 1,0,-1
 193 617 l 1,1,-1
 270 699 l 1,2,-1
 299 699 l 1,3,-1
 193 563 l 1,4,-1
 87 699 l 1,5,-1
 116 699 l 1,0,-1
318.5 92 m 128,-1,7
 342 117 342 117 342 159.5 c 128,-1,8
 342 202 342 202 310 226 c 128,-1,9
 278 250 278 250 232.5 257 c 128,-1,10
 187 264 187 264 141.5 272.5 c 128,-1,11
 96 281 96 281 64 310 c 128,-1,12
 32 339 32 339 32 394 c 0,13,14
 32 510 32 510 212 510 c 0,15,16
 278 510 278 510 365 496 c 1,17,-1
 365 457 l 1,18,19
 275 473 275 473 214 473 c 128,-1,20
 153 473 153 473 110.5 455.5 c 128,-1,21
 68 438 68 438 68 396.5 c 128,-1,22
 68 355 68 355 100 332.5 c 128,-1,23
 132 310 132 310 177.5 301.5 c 128,-1,24
 223 293 223 293 269 282 c 128,-1,25
 315 271 315 271 347 238.5 c 128,-1,26
 379 206 379 206 379 147 c 0,27,28
 379 73.7192982456 379 73.7192982456 322.5 42 c 0,29,30
 294 26 294 26 268 16.5 c 128,-1,31
 242 7 242 7 199 3.5 c 0,32,33
 131.428571429 -2 131.428571429 -2 69 -2 c 2,34,-1
 44 -2 l 1,35,-1
 44 35 l 1,36,37
 173.666666667 35 173.666666667 35 234.333333333 51 c 128,-1,6
 295 67 295 67 318.5 92 c 128,-1,7
EndSplineSet
EndChar

StartChar: periodcentered
Encoding: 183 183 168
Width: 154
Flags: MW
HStem: 270 21G<58 96 58 58> 316 20G<58 96 96 96>
VStem: 58 38<270 336 270 336>
LayerCount: 2
Fore
SplineSet
58 336 m 1,0,-1
 96 336 l 1,1,-1
 96 270 l 1,2,-1
 58 270 l 1,3,-1
 58 336 l 1,0,-1
EndSplineSet
EndChar

StartChar: brokenbar
Encoding: 166 166 169
Width: 191
Flags: MW
HStem: -191 21G<77 114 77 77> 696 20G<77 114 114 114>
VStem: 77 37<-191 160 -191 160 365 716>
LayerCount: 2
Fore
SplineSet
114 365 m 1,0,-1
 77 365 l 1,1,-1
 77 716 l 1,2,-1
 114 716 l 1,3,-1
 114 365 l 1,0,-1
77 160 m 1,4,-1
 114 160 l 1,5,-1
 114 -191 l 1,6,-1
 77 -191 l 1,7,-1
 77 160 l 1,4,-1
EndSplineSet
EndChar

StartChar: logicalnot
Encoding: 172 172 170
Width: 642
Flags: MW
HStem: 203 21G<540 577 540 540> 364 37<58 540 58 577>
VStem: 540 37<203 364 364 364>
LayerCount: 2
Fore
SplineSet
58 401 m 1,0,-1
 577 401 l 1,1,-1
 577 203 l 1,2,-1
 540 203 l 1,3,-1
 540 364 l 1,4,-1
 58 364 l 1,5,-1
 58 401 l 1,0,-1
EndSplineSet
EndChar

StartChar: bullet
Encoding: 8226 8226 171
Width: 283
Flags: MW
HStem: 210 185<115 166.5>
VStem: 49 185<276 327.5>
LayerCount: 2
Fore
SplineSet
49 302 m 128,-1,1
 49 341 49 341 75.5 368 c 128,-1,2
 102 395 102 395 140.5 395 c 0,3,4
 179 395 179 395 206.5 367.5 c 128,-1,5
 234 340 234 340 234 301.5 c 0,6,7
 234 263 234 263 207 236.5 c 128,-1,8
 180 210 180 210 141 210 c 128,-1,9
 102 210 102 210 75.5 236.5 c 128,-1,0
 49 263 49 263 49 302 c 128,-1,1
EndSplineSet
EndChar

StartChar: paragraph
Encoding: 182 182 172
Width: 518
Flags: MW
HStem: 0 21G<236 273 236 236 378 415 378 378> 663 37<273 378 273 486 415 415 415 486>
VStem: 35 238<406.5 562.5> 236 37<0 290 290 290> 378 37<0 663>
LayerCount: 2
Fore
SplineSet
415 0 m 1,0,-1
 378 0 l 1,1,-1
 378 663 l 1,2,-1
 273 663 l 1,3,-1
 273 0 l 1,4,-1
 236 0 l 1,5,-1
 236 290 l 1,6,7
 208 293 208 293 189 296.5 c 128,-1,8
 170 300 170 300 137.5 313.5 c 128,-1,9
 105 327 105 327 85.5 347.5 c 128,-1,10
 66 368 66 368 50.5 407.5 c 128,-1,11
 35 447 35 447 35 500 c 0,12,13
 35 700 35 700 273 700 c 2,14,-1
 486 700 l 1,15,-1
 486 663 l 1,16,-1
 415 663 l 1,17,-1
 415 0 l 1,0,-1
EndSplineSet
EndChar

StartChar: mu
Encoding: 181 181 173
Width: 407
Flags: MW
HStem: -191 21G<67 104 67 67> -4 36<157 192 151 197.5> 0 21G<315 352 315 315> 480 20G<67 104 104 104 315 352 352 352>
VStem: 67 37<-191 14 73 92 92 500> 315 37<0 78 78 78 128 500 0 500>
LayerCount: 2
Fore
SplineSet
104 -191 m 1,0,-1
 67 -191 l 1,1,-1
 67 500 l 1,2,-1
 104 500 l 1,3,-1
 104 92 l 2,4,5
 104 65 104 65 122.5 48.5 c 128,-1,6
 141 32 141 32 172 32 c 0,7,8
 203 32 203 32 247.5 62 c 128,-1,9
 292 92 292 92 315 128 c 1,10,-1
 315 500 l 1,11,-1
 352 500 l 1,12,-1
 352 0 l 1,13,-1
 315 0 l 1,14,-1
 315 78 l 1,15,16
 294 53 294 53 250.5 24.5 c 128,-1,17
 207 -4 207 -4 168.5 -4 c 0,18,19
 130 -4 130 -4 104 14 c 1,20,-1
 104 -191 l 1,0,-1
EndSplineSet
EndChar

StartChar: section
Encoding: 167 167 174
Width: 444
Flags: MW
HStem: -202 37<57 82 57 134> 663 37<192.5 254 180.5 258>
VStem: 45 36<244.5 319 484 566.5> 360 37<-63 25.5 -87.5 95.5 198 281>
LayerCount: 2
Fore
SplineSet
397 -3 m 0,0,1
 397 -51 397 -51 374.5 -88 c 128,-1,2
 352 -125 352 -125 319 -146 c 128,-1,3
 286 -167 286 -167 241.5 -180.5 c 0,4,5
 170.62962963 -202 170.62962963 -202 82 -202 c 2,6,-1
 57 -202 l 1,7,-1
 57 -165 l 1,8,9
 234 -165 234 -165 315 -97.5 c 0,10,11
 360 -60 360 -60 360 -5 c 128,-1,12
 360 50 360 50 327.5 83 c 128,-1,13
 295 116 295 116 249 130.5 c 128,-1,14
 203 145 203 145 156.5 159.5 c 128,-1,15
 110 174 110 174 77.5 205 c 128,-1,16
 45 236 45 236 45 289 c 0,17,18
 45 362 45 362 98 408 c 1,19,20
 45 443 45 443 45 509 c 0,21,22
 45 595 45 595 99.5 647.5 c 128,-1,23
 154 700 154 700 225 700 c 128,-1,24
 296 700 296 700 383 686 c 1,25,-1
 383 650 l 1,26,27
 310 663 310 663 239.5 663 c 128,-1,28
 169 663 169 663 125 625 c 128,-1,29
 81 587 81 587 81 518 c 0,30,31
 81 481 81 481 104.5 457.5 c 128,-1,32
 128 434 128 434 163 424 c 128,-1,33
 198 414 198 414 239 399.5 c 128,-1,34
 280 385 280 385 315 368 c 128,-1,35
 350 351 350 351 373.5 312.5 c 128,-1,36
 397 274 397 274 397 228 c 128,-1,37
 397 182 397 182 386 161 c 128,-1,38
 375 140 375 140 352 120 c 1,39,40
 397 75 397 75 397 -3 c 0,0,1
131 390 m 1,41,42
 113 375 113 375 104 366 c 0,43,44
 81 343 81 343 81 302 c 128,-1,45
 81 261 81 261 106.5 237 c 128,-1,46
 132 213 132 213 164.5 203 c 0,47,48
 286.091743119 165.587155963 286.091743119 165.587155963 320 145 c 1,49,50
 342 162 342 162 351 176.5 c 128,-1,51
 360 191 360 191 360 222 c 128,-1,52
 360 253 360 253 346 279.5 c 128,-1,53
 332 306 332 306 305 322.5 c 128,-1,54
 278 339 278 339 252.5 348.5 c 128,-1,55
 227 358 227 358 189.5 369.5 c 128,-1,56
 152 381 152 381 131 390 c 1,41,42
EndSplineSet
EndChar

StartChar: trademark
Encoding: 8482 8482 175
Width: 567
Flags: MW
HStem: 302 21G<135 154 135 135 319 337 319 319 479 498 479 479> 632 20G<55 234 234 234> 633 20G<319 347 347 347 470 498 498 498>
VStem: 135 202<302 621 302 634 302 634> 319 179<302 653 302 653>
LayerCount: 2
Fore
SplineSet
479 302 m 1,0,-1
 480 621 l 1,1,-1
 418 437 l 1,2,-1
 399 437 l 1,3,-1
 337 621 l 1,4,-1
 337 302 l 1,5,-1
 319 302 l 1,6,-1
 319 653 l 1,7,-1
 347 653 l 1,8,-1
 408 466 l 1,9,-1
 470 653 l 1,10,-1
 498 653 l 1,11,-1
 498 302 l 1,12,-1
 479 302 l 1,0,-1
154 302 m 1,13,-1
 135 302 l 1,14,-1
 135 634 l 1,15,-1
 55 634 l 1,16,-1
 55 652 l 1,17,-1
 234 652 l 1,18,-1
 234 634 l 1,19,-1
 154 634 l 1,20,-1
 154 302 l 1,13,-1
EndSplineSet
EndChar

StartChar: registered
Encoding: 174 174 176
Width: 520
Flags: MW
HStem: 263 37<204.5 320 204.5 320.5> 263 239<234 259 234 320.5> 606 35 668 37<206.5 313.5>
VStem: 39 37<438 541 438 547.5> 196 38<340 467 340 502 502 606> 312 35<539 567.5> 444 37<436.5 541>
LayerCount: 2
Fore
SplineSet
260 263 m 128,-1,1
 169 263 169 263 104 328 c 128,-1,2
 39 393 39 393 39 485.5 c 128,-1,3
 39 578 39 578 104 641.5 c 128,-1,4
 169 705 169 705 260.5 705 c 128,-1,5
 352 705 352 705 416.5 641.5 c 128,-1,6
 481 578 481 578 481 485.5 c 128,-1,7
 481 393 481 393 416 328 c 128,-1,0
 351 263 351 263 260 263 c 128,-1,1
393 618 m 128,-1,9
 342 668 342 668 260.5 668 c 128,-1,10
 179 668 179 668 127.5 617.5 c 128,-1,11
 76 567 76 567 76 489 c 128,-1,12
 76 411 76 411 127.5 355.5 c 128,-1,13
 179 300 179 300 262.5 300 c 128,-1,14
 346 300 346 300 395 354 c 128,-1,15
 444 408 444 408 444 488 c 128,-1,8
 444 568 444 568 393 618 c 128,-1,9
359 340 m 1,16,-1
 318 340 l 1,17,-1
 245 467 l 1,18,-1
 234 467 l 1,19,-1
 234 340 l 1,20,-1
 196 340 l 1,21,-1
 196 641 l 1,22,23
 276 640 276 640 311.5 621.5 c 128,-1,24
 347 603 347 603 347 560 c 0,25,26
 347 487 347 487 283 473 c 1,27,-1
 359 340 l 1,16,-1
312 559 m 0,28,29
 312 604 312 604 234 606 c 1,30,-1
 234 502 l 1,31,32
 312 502 312 502 312 559 c 0,28,29
EndSplineSet
EndChar

StartChar: Eth
Encoding: 208 208 177
Width: 494
Flags: MW
HStem: -3 38<88 125> 327 37<0 88 0 88 125 240> 662 39<88 201.5>
VStem: 88 37<35 327 35 327 35 327 364 662> 409 37<260.5 471>
LayerCount: 2
Fore
SplineSet
88 327 m 1,0,-1
 0 327 l 1,1,-1
 0 364 l 1,2,-1
 88 364 l 1,3,-1
 88 701 l 1,4,5
 224.516129032 701 224.516129032 701 303.5 659.5 c 0,6,7
 371.595076923 623.721230769 371.595076923 623.721230769 406 553 c 0,8,9
 446 470.777777778 446 470.777777778 446 344 c 0,10,11
 446 111.5 446 111.5 302 39.5 c 0,12,13
 217 -3 217 -3 88 -3 c 1,14,-1
 88 327 l 1,0,-1
409 347 m 0,15,16
 409 662 409 662 125 662 c 1,17,-1
 125 364 l 1,18,-1
 240 364 l 1,19,-1
 240 327 l 1,20,-1
 125 327 l 1,21,-1
 125 35 l 1,22,23
 286.885366544 36.9985847721 286.885366544 36.9985847721 351 128 c 0,24,25
 409 210.322580645 409 210.322580645 409 347 c 0,15,16
EndSplineSet
EndChar

StartChar: aring
Encoding: 229 229 178
Width: 460
Flags: MW
HStem: -1 38<276.5 390> 474 37<185 241 185 246> 480 20G<353 390 390 390> 564 28<219 250.5 219 256> 694 28<219 248>
VStem: 41 37<174 332 174 363> 155 28<630.5 659 630.5 666> 285 28<630 659> 353 37<37 390 390 390 440 500 -1 500>
LayerCount: 2
Fore
SplineSet
234 564 m 128,-1,1
 201 564 201 564 178 587 c 128,-1,2
 155 610 155 610 155 643.5 c 128,-1,3
 155 677 155 677 178 699.5 c 128,-1,4
 201 722 201 722 234 722 c 128,-1,5
 267 722 267 722 290 699.5 c 128,-1,6
 313 677 313 677 313 643.5 c 128,-1,7
 313 610 313 610 290 587 c 128,-1,0
 267 564 267 564 234 564 c 128,-1,1
270.5 680 m 128,-1,9
 256 694 256 694 234 694 c 128,-1,10
 212 694 212 694 197.5 680 c 128,-1,11
 183 666 183 666 183 644.5 c 128,-1,12
 183 623 183 623 197.5 607.5 c 128,-1,13
 212 592 212 592 235 592 c 128,-1,14
 258 592 258 592 271.5 607 c 128,-1,15
 285 622 285 622 285 644 c 128,-1,8
 285 666 285 666 270.5 680 c 128,-1,9
353 500 m 1,16,-1
 390 500 l 1,17,-1
 390 -1 l 1,18,19
 330 -1 330 -1 285 4 c 128,-1,20
 240 9 240 9 191.5 25.5 c 128,-1,21
 143 42 143 42 112 70 c 128,-1,22
 81 98 81 98 61 147.5 c 128,-1,23
 41 197 41 197 41 259 c 128,-1,24
 41 321 41 321 53.5 365.5 c 128,-1,25
 66 410 66 410 85.5 436.5 c 128,-1,26
 105 463 105 463 129 480.5 c 0,27,28
 170.828571429 511 170.828571429 511 212 511 c 0,29,30
 287 511 287 511 353 440 c 1,31,-1
 353 500 l 1,16,-1
78 264 m 0,32,33
 78 133.384615385 78 133.384615385 159 82.5 c 0,34,35
 231.428571429 37 231.428571429 37 353 37 c 1,36,-1
 353 390 l 1,37,38
 319 429 319 429 287.5 451.5 c 128,-1,39
 256 474 256 474 218 474 c 0,40,41
 155 474 155 474 116.5 418.5 c 128,-1,42
 78 363 78 363 78 264 c 0,32,33
EndSplineSet
EndChar

StartChar: Aring
Encoding: 197 197 179
Width: 502
Flags: MW
HStem: 0 21G<70 107 70 70 391 428 391 391> 330 37<107 391 107 391> 667 37<249.5 322.5> 721 28<243 274.5 243 280> 851 28<243 272>
VStem: 70 37<0 330 367 457> 179 28<787.5 816 787.5 823> 309 28<787 816> 391 37<0 330 330 330 367 634 634 634>
LayerCount: 2
Fore
SplineSet
258 721 m 128,-1,1
 225 721 225 721 202 744 c 128,-1,2
 179 767 179 767 179 800.5 c 128,-1,3
 179 834 179 834 202 856.5 c 128,-1,4
 225 879 225 879 258 879 c 128,-1,5
 291 879 291 879 314 856.5 c 128,-1,6
 337 834 337 834 337 800.5 c 128,-1,7
 337 767 337 767 314 744 c 128,-1,0
 291 721 291 721 258 721 c 128,-1,1
294.5 837 m 128,-1,9
 280 851 280 851 258 851 c 128,-1,10
 236 851 236 851 221.5 837 c 128,-1,11
 207 823 207 823 207 801.5 c 128,-1,12
 207 780 207 780 221.5 764.5 c 128,-1,13
 236 749 236 749 259 749 c 128,-1,14
 282 749 282 749 295.5 764 c 128,-1,15
 309 779 309 779 309 801 c 128,-1,8
 309 823 309 823 294.5 837 c 128,-1,9
428 648 m 1,16,-1
 428 0 l 1,17,-1
 391 0 l 1,18,-1
 391 330 l 1,19,-1
 107 330 l 1,20,-1
 107 0 l 1,21,-1
 70 0 l 1,22,-1
 70 458 l 2,23,24
 70 566 70 566 139 635 c 128,-1,25
 208 704 208 704 312 704 c 0,26,27
 388 704 388 704 428 648 c 1,16,-1
391 367 m 1,28,-1
 391 634 l 1,29,30
 359 667 359 667 310 667 c 0,31,32
 222 667 222 667 164.5 603 c 128,-1,33
 107 539 107 539 107 457 c 2,34,-1
 107 367 l 1,35,-1
 391 367 l 1,28,-1
EndSplineSet
EndChar

StartChar: AE
Encoding: 198 198 180
Width: 643
Flags: MW
HStem: 0 37<360 601 360 601> 330 37<108 322 108 322> 370 37<360 601 360 601> 663 37<276 286.5 360 601 360 360>
VStem: 71 37<0 330 367 457> 322 38<37 330 330 330 367 370 407 662 662 662>
LayerCount: 2
Fore
SplineSet
276 700 m 2,0,-1
 601 700 l 1,1,-1
 601 663 l 1,2,-1
 360 663 l 1,3,-1
 360 407 l 1,4,-1
 601 407 l 1,5,-1
 601 370 l 1,6,-1
 360 370 l 1,7,-1
 360 37 l 1,8,-1
 601 37 l 1,9,-1
 601 0 l 1,10,-1
 322 0 l 1,11,-1
 322 330 l 1,12,-1
 108 330 l 1,13,-1
 108 0 l 1,14,-1
 71 0 l 1,15,-1
 71 458 l 2,16,17
 71 562 71 562 135 631 c 128,-1,18
 199 700 199 700 276 700 c 2,0,-1
322 367 m 1,19,-1
 322 662 l 1,20,21
 300 663 300 663 274 663 c 0,22,23
 213 663 213 663 160.5 599 c 128,-1,24
 108 535 108 535 108 457 c 2,25,-1
 108 367 l 1,26,-1
 322 367 l 1,19,-1
EndSplineSet
EndChar

StartChar: oe
Encoding: 339 339 181
Width: 632
Flags: MW
HStem: -2 38 264 37<277 553 277 589 276 553> 473 37<168 237 399 458>
VStem: 41 37<189 299.5 189 316> 239 37<217 264 174 310.5> 553 37<301 381.5 323.5 366>
LayerCount: 2
Fore
SplineSet
592 36 m 1,0,-1
 592 -1 l 1,1,2
 421 1 421 1 344 47 c 1,3,4
 297 -2 297 -2 226 -2 c 0,5,6
 164.744680851 -2 164.744680851 -2 110 39.5 c 0,7,8
 79 63 79 63 60 114 c 128,-1,9
 41 165 41 165 41 239 c 0,10,11
 41 359 41 359 89 434.5 c 128,-1,12
 137 510 137 510 226 510 c 0,13,14
 283 510 283 510 325 479 c 1,15,16
 369 510 369 510 410 510 c 0,17,18
 495 510 495 510 542.5 460 c 128,-1,19
 590 410 590 410 590 328 c 0,20,21
 590 273 590 273 589 264 c 1,22,-1
 276 264 l 1,23,24
 276 135 276 135 353 85.5 c 128,-1,25
 430 36 430 36 592 36 c 1,0,-1
297 453 m 1,26,27
 264 473 264 473 217.5 473 c 128,-1,28
 171 473 171 473 137 437.5 c 0,29,30
 78 375.897058824 78 375.897058824 78 245 c 0,31,32
 78 154 78 154 113 94.5 c 128,-1,33
 148 35 148 35 214.5 35 c 128,-1,34
 281 35 281 35 314 68 c 1,35,36
 239 133 239 133 239 259.5 c 128,-1,37
 239 386 239 386 297 453 c 1,26,27
553 301 m 1,38,-1
 553 323 l 2,39,40
 553 389 553 389 515.5 431 c 128,-1,41
 478 473 478 473 416.5 473 c 128,-1,42
 355 473 355 473 319.5 424.5 c 128,-1,43
 284 376 284 376 277 301 c 1,44,-1
 553 301 l 1,38,-1
EndSplineSet
EndChar

StartChar: onesuperior
Encoding: 185 185 182
Width: 222
Flags: MW
HStem: 299 21G<125 162 125 125> 680 20G<162 162>
VStem: 125 37<299 643 643 643>
LayerCount: 2
Fore
SplineSet
162 299 m 1,0,-1
 125 299 l 1,1,-1
 125 643 l 1,2,-1
 23 599 l 1,3,-1
 23 637 l 1,4,-1
 162 700 l 1,5,-1
 162 299 l 1,0,-1
EndSplineSet
EndChar

StartChar: twosuperior
Encoding: 178 178 183
Width: 324
Flags: MW
HStem: 299 37<107 271 107 271> 667 37<140.5 177.5>
VStem: 240 36<579 624>
LayerCount: 2
Fore
SplineSet
28 299 m 1,0,-1
 198 506 l 1,1,2
 206 518 l 2,3,4
 212 527 212 527 214.5 530.5 c 128,-1,5
 217 534 217 534 222 542 c 128,-1,6
 227 550 227 550 229.5 555.5 c 128,-1,7
 232 561 232 561 235 568 c 0,8,9
 240 579.666666667 240 579.666666667 240 595 c 0,10,11
 240 667 240 667 155 667 c 0,12,13
 122 667 122 667 63 629 c 1,14,-1
 63 666 l 1,15,16
 120 704 120 704 163.5 704 c 128,-1,17
 207 704 207 704 241.5 673 c 128,-1,18
 276 642 276 642 276 594 c 128,-1,19
 276 546 276 546 244 506 c 2,20,-1
 107 336 l 1,21,-1
 271 336 l 1,22,-1
 271 299 l 1,23,-1
 28 299 l 1,0,-1
EndSplineSet
EndChar

StartChar: eight
Encoding: 56 56 184
Width: 491
Flags: MW
HStem: -1 37<198.5 294.5 198.5 302> 366 40<211.5 287 211.5 289> 667 37<212.5 282.5>
VStem: 46 37<165.5 246> 77 37<504 571 504 583.5> 381 37<502.5 571> 407 37<164.5 246 146.5 250.5>
LayerCount: 2
Fore
SplineSet
245 -1 m 128,-1,1
 160 -1 160 -1 103 58 c 128,-1,2
 46 117 46 117 46 205 c 0,3,4
 46 266 46 266 75.5 315.5 c 128,-1,5
 105 365 105 365 156 389 c 1,6,7
 120 411 120 411 98.5 450 c 128,-1,8
 77 489 77 489 77 535 c 0,9,10
 77 607 77 607 127 655.5 c 128,-1,11
 177 704 177 704 248.5 704 c 128,-1,12
 320 704 320 704 369 655.5 c 128,-1,13
 418 607 418 607 418 535 c 0,14,15
 418 437 418 437 336 388 c 1,16,17
 387 363 387 363 415.5 315 c 128,-1,18
 444 267 444 267 444 205 c 0,19,20
 444 117 444 117 387 58 c 128,-1,0
 330 -1 330 -1 245 -1 c 128,-1,1
359.5 319.5 m 128,-1,22
 312 366 312 366 245.5 366 c 128,-1,23
 179 366 179 366 131 319 c 128,-1,24
 83 272 83 272 83 207 c 128,-1,25
 83 142 83 142 130.5 89 c 128,-1,26
 178 36 178 36 246.5 36 c 128,-1,27
 315 36 315 36 361 88.5 c 128,-1,28
 407 141 407 141 407 207 c 128,-1,21
 407 273 407 273 359.5 319.5 c 128,-1,22
341 628 m 128,-1,30
 301 667 301 667 248 667 c 128,-1,31
 195 667 195 667 154.5 627.5 c 128,-1,32
 114 588 114 588 114 537.5 c 128,-1,33
 114 487 114 487 154 446.5 c 128,-1,34
 194 406 194 406 249 406 c 128,-1,35
 304 406 304 406 342.5 445.5 c 128,-1,36
 381 485 381 485 381 537 c 128,-1,29
 381 589 381 589 341 628 c 128,-1,30
EndSplineSet
EndChar

StartChar: nine
Encoding: 57 57 185
Width: 496
Flags: MW
HStem: 1 37<219 271> 293 37<190.5 271.5> 660 40<215 281>
VStem: 38 37<459.5 544.5 459.5 581.5> 398 37<248 366 149 377 149 377>
LayerCount: 2
Fore
SplineSet
436 475 m 1,0,-1
 435 363.5 l 1,1,-1
 435 247 l 2,2,3
 435 191 435 191 420 146.5 c 128,-1,4
 405 102 405 102 383.5 75.5 c 128,-1,5
 362 49 362 49 334.5 31.5 c 0,6,7
 286.571428571 1 286.571428571 1 244 1 c 0,8,9
 145 1 145 1 68 57 c 1,10,-1
 70 94 l 1,11,12
 103 71 103 71 152.5 54.5 c 128,-1,13
 202 38 202 38 238 38 c 0,14,15
 302 38 302 38 350 96 c 128,-1,16
 398 154 398 154 398 248 c 2,17,-1
 398 377 l 1,18,19
 373 338 373 338 330.5 315.5 c 128,-1,20
 288 293 288 293 237 293 c 0,21,22
 152 293 152 293 95 352 c 128,-1,23
 38 411 38 411 38 499 c 0,24,25
 38 546 38 546 54.5 583 c 128,-1,26
 71 620 71 620 94.5 641.5 c 128,-1,27
 118 663 118 663 147.5 676.5 c 0,28,29
 198.851851852 700 198.851851852 700 241 700 c 0,30,31
 323 700 323 700 379.5 646.5 c 128,-1,32
 436 593 436 593 436 499 c 2,33,-1
 436 475 l 1,0,-1
351.5 613.5 m 128,-1,35
 304 660 304 660 237.5 660 c 128,-1,36
 171 660 171 660 123 613 c 128,-1,37
 75 566 75 566 75 501 c 128,-1,38
 75 436 75 436 122.5 383 c 128,-1,39
 170 330 170 330 238.5 330 c 128,-1,40
 307 330 307 330 353 382.5 c 128,-1,41
 399 435 399 435 399 501 c 128,-1,34
 399 567 399 567 351.5 613.5 c 128,-1,35
EndSplineSet
EndChar

StartChar: six
Encoding: 54 54 186
Width: 496
Flags: MW
HStem: 1 40<215 281> 371 37<224.5 305.5> 663 37<225 277 225 282>
VStem: 61 37<335 453 324 552> 421 37<156.5 241.5>
LayerCount: 2
Fore
SplineSet
60 226 m 1,0,-1
 61 337.5 l 1,1,-1
 61 454 l 2,2,3
 61 510 61 510 76 554.5 c 128,-1,4
 91 599 91 599 112.5 625.5 c 128,-1,5
 134 652 134 652 161.5 669.5 c 0,6,7
 209.428571429 700 209.428571429 700 252 700 c 0,8,9
 351 700 351 700 428 644 c 1,10,-1
 426 607 l 1,11,12
 393 630 393 630 343.5 646.5 c 128,-1,13
 294 663 294 663 258 663 c 0,14,15
 194 663 194 663 146 605 c 128,-1,16
 98 547 98 547 98 453 c 2,17,-1
 98 324 l 1,18,19
 123 363 123 363 165.5 385.5 c 128,-1,20
 208 408 208 408 259 408 c 0,21,22
 344 408 344 408 401 349 c 128,-1,23
 458 290 458 290 458 202 c 0,24,25
 458 155 458 155 441.5 118 c 128,-1,26
 425 81 425 81 401.5 59.5 c 128,-1,27
 378 38 378 38 348.5 24.5 c 0,28,29
 297.148148148 1 297.148148148 1 255 1 c 0,30,31
 173 1 173 1 116.5 54.5 c 128,-1,32
 60 108 60 108 60 202 c 2,33,-1
 60 226 l 1,0,-1
144.5 87.5 m 128,-1,35
 192 41 192 41 258.5 41 c 128,-1,36
 325 41 325 41 373 88 c 128,-1,37
 421 135 421 135 421 200 c 128,-1,38
 421 265 421 265 373.5 318 c 128,-1,39
 326 371 326 371 257.5 371 c 128,-1,40
 189 371 189 371 143 318.5 c 128,-1,41
 97 266 97 266 97 200 c 128,-1,34
 97 134 97 134 144.5 87.5 c 128,-1,35
EndSplineSet
EndChar

StartChar: seven
Encoding: 55 55 187
Width: 377
Flags: MW
HStem: 3 21G<86 123 86 86> 663 37<17 367 17 317>
LayerCount: 2
Fore
SplineSet
17 663 m 1,0,-1
 17 700 l 1,1,-1
 367 700 l 1,2,-1
 123 3 l 1,3,-1
 86 3 l 1,4,-1
 317 663 l 1,5,-1
 17 663 l 1,0,-1
EndSplineSet
EndChar

StartChar: five
Encoding: 53 53 188
Width: 470
Flags: MW
HStem: 1 40<184.5 279 184.5 287> 421 37<189.5 275> 663 37<101 395 101 101>
VStem: 67 34<422 663 422 700> 395 39<190.5 285>
LayerCount: 2
Fore
SplineSet
67 339 m 1,0,-1
 67 700 l 1,1,-1
 395 700 l 1,2,-1
 395 663 l 1,3,-1
 101 663 l 1,4,-1
 101 422 l 1,5,6
 151 458 151 458 212 458 c 0,7,8
 321 458 321 458 377.5 396 c 128,-1,9
 434 334 434 334 434 242 c 0,10,11
 434 150 434 150 374.5 75.5 c 128,-1,12
 315 1 315 1 221 1 c 0,13,14
 154 1 154 1 101.5 39.5 c 128,-1,15
 49 78 49 78 46 136 c 1,16,-1
 83 136 l 1,17,18
 87 98 87 98 126.5 69.5 c 128,-1,19
 166 41 166 41 226 41 c 0,20,21
 302 41 302 41 348.5 101 c 128,-1,22
 395 161 395 161 395 238 c 0,23,24
 395 315 395 315 348 368 c 128,-1,25
 301 421 301 421 211 421 c 0,26,27
 166 421 166 421 127 398 c 128,-1,28
 88 375 88 375 67 339 c 1,0,-1
EndSplineSet
EndChar

StartChar: four
Encoding: 52 52 189
Width: 447
Flags: MW
HStem: 0 21G<312 349 312 312> 160 37<61 312 19 19 349 421> 680 20G<349 349>
VStem: 312 37<0 160 197 575 575 575>
LayerCount: 2
Fore
SplineSet
349 0 m 1,0,-1
 312 0 l 1,1,-1
 312 160 l 1,2,-1
 19 160 l 1,3,-1
 19 197 l 1,4,-1
 349 700 l 1,5,-1
 349 197 l 1,6,-1
 421 197 l 1,7,-1
 421 160 l 1,8,-1
 349 160 l 1,9,-1
 349 0 l 1,0,-1
312 575 m 1,10,-1
 61 197 l 1,11,-1
 312 197 l 1,12,-1
 312 575 l 1,10,-1
EndSplineSet
EndChar

StartChar: threesuperior
Encoding: 179 179 190
Width: 295
Flags: MW
HStem: 282 37<127 161 127 169.5> 492 44<134.5 160.5 134.5 162> 668 37<131.5 158>
VStem: 202 37<587.5 622.5> 218 21 218 37<381.5 430.5 370.5 433>
LayerCount: 2
Fore
SplineSet
32 342 m 1,0,-1
 76 343 l 1,1,2
 94 319 94 319 133.5 319 c 0,3,4
 173 319 173 319 195.5 344 c 128,-1,5
 218 369 218 369 218 408 c 0,6,7
 218 447 218 447 196.5 469.5 c 128,-1,8
 175 492 175 492 135 492 c 0,9,10
 124 492 124 492 119 491 c 1,11,-1
 119 539 l 1,12,13
 128 536 128 536 138 536 c 0,14,15
 169 536 169 536 185.5 556 c 128,-1,16
 202 576 202 576 202 604.5 c 0,17,18
 202 633 202 633 185 650.5 c 128,-1,19
 168 668 168 668 137.5 668 c 0,20,21
 107 668 107 668 89 650 c 1,22,-1
 45 650 l 1,23,24
 58 675 58 675 82.5 690 c 128,-1,25
 107 705 107 705 144 705 c 0,26,27
 181 705 181 705 210 676 c 128,-1,28
 239 647 239 647 239 604 c 0,29,30
 239 545 239 545 190 515 c 1,31,32
 221 501 221 501 238 472 c 128,-1,33
 255 443 255 443 255 398 c 0,34,35
 255 353 255 353 221 317.5 c 128,-1,36
 187 282 187 282 135 282 c 0,37,38
 66 282 66 282 32 342 c 1,0,-1
EndSplineSet
EndChar

StartChar: ordfeminine
Encoding: 170 170 191
Width: 313
Flags: MW
HStem: 401 38<195.5 257> 662 37<128 150.5 124 156> 672 20G<220 257 257 257>
VStem: 38 37<502 591 502 610> 220 37<439 626 626 626 666 692 401 692>
LayerCount: 2
Fore
SplineSet
220 692 m 1,0,-1
 257 692 l 1,1,-1
 257 401 l 1,2,3
 171.033333333 401 171.033333333 401 108.5 429 c 0,4,5
 38 460.567164179 38 460.567164179 38 544.78358209 c 128,-1,6
 38 629 38 629 72 664 c 128,-1,7
 106 699 106 699 140 699 c 0,8,9
 190 699 190 699 220 666 c 1,10,-1
 220 692 l 1,0,-1
95.5 634.5 m 128,-1,12
 75 607 75 607 75 561.5 c 128,-1,13
 75 516 75 516 90 492.5 c 128,-1,14
 105 469 105 469 129.5 458 c 0,15,16
 171.818181818 439 171.818181818 439 220 439 c 1,17,-1
 220 626 l 1,18,19
 188 662 188 662 144 662 c 0,20,11
 116 662 116 662 95.5 634.5 c 128,-1,12
EndSplineSet
EndChar

StartChar: OE
Encoding: 338 338 192
Width: 523
Flags: MW
HStem: 0 37<201 483 296 483 296 483> 370 37<296 483 296 483> 663 37<296 483 296 296>
VStem: 48 37<275.5 442.5 275.5 450.5> 259 37<38 370 407 661 661 661> 259 224<370 407>
LayerCount: 2
Fore
SplineSet
259 700 m 1,0,-1
 483 700 l 1,1,-1
 483 663 l 1,2,-1
 296 663 l 1,3,-1
 296 407 l 1,4,-1
 483 407 l 1,5,-1
 483 370 l 1,6,-1
 296 370 l 1,7,-1
 296 37 l 1,8,-1
 483 37 l 1,9,-1
 483 0 l 1,10,-1
 264 0 l 2,11,12
 169 0 169 0 108.5 94.5 c 128,-1,13
 48 189 48 189 48 345.5 c 128,-1,14
 48 502 48 502 104.5 595.5 c 128,-1,15
 161 689 161 689 259 700 c 1,0,-1
161.5 95 m 0,16,17
 202 47 202 47 259 38 c 1,18,-1
 259 661 l 1,19,20
 179 649 179 649 132 568 c 128,-1,21
 85 487 85 487 85 336.333333333 c 128,-1,22
 85 185.666666667 85 185.666666667 161.5 95 c 0,16,17
EndSplineSet
EndChar

StartChar: uni00AD
Encoding: 173 173 193
Width: 437
Flags: MW
HStem: 259 37<52 385 52 385>
LayerCount: 2
Fore
SplineSet
385 259 m 1,0,-1
 52 259 l 1,1,-1
 52 296 l 1,2,-1
 385 296 l 1,3,-1
 385 259 l 1,0,-1
EndSplineSet
EndChar

StartChar: dagger
Encoding: 8224 8224 194
Width: 306
Flags: MW
HStem: -191 21G<135 172 135 135> 263 37<33 135 33 135 172 273> 696 20G<135 172 172 172>
VStem: 135 37<-191 263 300 716>
LayerCount: 2
Fore
SplineSet
172 -191 m 1,0,-1
 135 -191 l 1,1,-1
 135 263 l 1,2,-1
 33 263 l 1,3,-1
 33 300 l 1,4,-1
 135 300 l 1,5,-1
 135 716 l 1,6,-1
 172 716 l 1,7,-1
 172 300 l 1,8,-1
 273 300 l 1,9,-1
 273 263 l 1,10,-1
 172 263 l 1,11,-1
 172 -191 l 1,0,-1
EndSplineSet
EndChar

StartChar: copyright
Encoding: 169 169 195
Width: 512
Flags: MW
HStem: 267 37<200.5 316 200.5 316.5> 358 34<322 327 327 352> 580 35<228.5 262.5> 664 37<202.5 309.5>
VStem: 39 37<438 541 438 547.5> 142 36<440.5 517.5 440.5 546.5> 436 37<436.5 541>
LayerCount: 2
Fore
SplineSet
256 267 m 128,-1,1
 165 267 165 267 102 330 c 128,-1,2
 39 393 39 393 39 485.5 c 128,-1,3
 39 578 39 578 102 639.5 c 128,-1,4
 165 701 165 701 256.5 701 c 128,-1,5
 348 701 348 701 410.5 639.5 c 128,-1,6
 473 578 473 578 473 485.5 c 128,-1,7
 473 393 473 393 410 330 c 128,-1,0
 347 267 347 267 256 267 c 128,-1,1
387 616 m 128,-1,9
 338 664 338 664 256.5 664 c 128,-1,10
 175 664 175 664 125.5 615.5 c 128,-1,11
 76 567 76 567 76 489 c 128,-1,12
 76 411 76 411 125.5 357.5 c 128,-1,13
 175 304 175 304 258.5 304 c 128,-1,14
 342 304 342 304 389 356 c 128,-1,15
 436 408 436 408 436 488 c 128,-1,8
 436 568 436 568 387 616 c 128,-1,9
351 548 m 1,16,-1
 315 549 l 1,17,18
 298 580 298 580 254 580 c 128,-1,19
 210 580 210 580 194 557 c 128,-1,20
 178 534 178 534 178 496.5 c 128,-1,21
 178 459 178 459 184.5 441 c 128,-1,22
 191 423 191 423 200 413 c 128,-1,23
 209 403 209 403 230 398.5 c 0,24,25
 260.333333333 392 260.333333333 392 322 392 c 2,26,-1
 352 392 l 1,27,-1
 352 358 l 1,28,-1
 327 358 l 2,29,30
 208.153846154 358 208.153846154 358 178 386 c 0,31,32
 142 419.428571429 142 419.428571429 142 488 c 0,33,34
 142 615 142 615 245 615 c 0,35,36
 284 615 284 615 312.5 597 c 128,-1,37
 341 579 341 579 351 548 c 1,16,-1
EndSplineSet
EndChar

StartChar: daggerdbl
Encoding: 8225 8225 196
Width: 525
Flags: MW
HStem: -191 21G<244 281 244 244> 158 37<35 244 35 244 281 490> 375 37<35 244 35 244 281 490> 696 20G<244 281 281 281>
VStem: 244 37<-191 158 195 375 412 716>
LayerCount: 2
Fore
SplineSet
281 -191 m 1,0,-1
 244 -191 l 1,1,-1
 244 158 l 1,2,-1
 35 158 l 1,3,-1
 35 195 l 1,4,-1
 244 195 l 1,5,-1
 244 375 l 1,6,-1
 35 375 l 1,7,-1
 35 412 l 1,8,-1
 244 412 l 1,9,-1
 244 716 l 1,10,-1
 281 716 l 1,11,-1
 281 412 l 1,12,-1
 490 412 l 1,13,-1
 490 375 l 1,14,-1
 281 375 l 1,15,-1
 281 195 l 1,16,-1
 490 195 l 1,17,-1
 490 158 l 1,18,-1
 281 158 l 1,19,-1
 281 -191 l 1,0,-1
EndSplineSet
EndChar

StartChar: onehalf
Encoding: 189 189 197
Width: 748
Flags: MW
HStem: -1 37<531 695 531 695> 0 21G<29 73 29 29> 367 37<564.5 601.5> 680 20G<200 200 640 687 687 687>
VStem: 163 37<299 643 643 643> 664 36<279 324>
LayerCount: 2
Fore
SplineSet
687 700 m 1,0,-1
 73 0 l 1,1,-1
 29 0 l 1,2,-1
 640 700 l 1,3,-1
 687 700 l 1,0,-1
200 299 m 1,4,-1
 163 299 l 1,5,-1
 163 643 l 1,6,-1
 61 599 l 1,7,-1
 61 637 l 1,8,-1
 200 700 l 1,9,-1
 200 299 l 1,4,-1
452 -1 m 1,10,-1
 622 206 l 1,11,12
 630 218 l 2,13,14
 636 227 636 227 638.5 230.5 c 128,-1,15
 641 234 641 234 646 242 c 128,-1,16
 651 250 651 250 653.5 255.5 c 128,-1,17
 656 261 656 261 659 268 c 0,18,19
 664 279.666666667 664 279.666666667 664 295 c 0,20,21
 664 367 664 367 579 367 c 0,22,23
 546 367 546 367 487 329 c 1,24,-1
 487 366 l 1,25,26
 544 404 544 404 587.5 404 c 128,-1,27
 631 404 631 404 665.5 373 c 128,-1,28
 700 342 700 342 700 294 c 128,-1,29
 700 246 700 246 668 206 c 2,30,-1
 531 36 l 1,31,-1
 695 36 l 1,32,-1
 695 -1 l 1,33,-1
 452 -1 l 1,10,-1
EndSplineSet
EndChar

StartChar: threequarters
Encoding: 190 190 198
Width: 751
Flags: MW
HStem: 0 21G<66 110 66 66 587 624 587 587> 96 37<471 587 426 426 624 668> 282 37<137 171 137 179.5> 492 44<144.5 170.5 144.5 172> 668 37<141.5 168> 680 20G<677 724 724 724>
VStem: 212 37<587.5 622.5> 228 21 228 37<381.5 430.5 370.5 433> 587 37<0 96 133 300 300 300>
LayerCount: 2
Fore
SplineSet
624 0 m 1,0,-1
 587 0 l 1,1,-1
 587 96 l 1,2,-1
 426 96 l 1,3,-1
 426 133 l 1,4,-1
 624 420 l 1,5,-1
 624 133 l 1,6,-1
 668 133 l 1,7,-1
 668 96 l 1,8,-1
 624 96 l 1,9,-1
 624 0 l 1,0,-1
724 700 m 1,10,-1
 110 0 l 1,11,-1
 66 0 l 1,12,-1
 677 700 l 1,13,-1
 724 700 l 1,10,-1
42 342 m 1,14,-1
 86 343 l 1,15,16
 104 319 104 319 143.5 319 c 0,17,18
 183 319 183 319 205.5 344 c 128,-1,19
 228 369 228 369 228 408 c 0,20,21
 228 447 228 447 206.5 469.5 c 128,-1,22
 185 492 185 492 145 492 c 0,23,24
 134 492 134 492 129 491 c 1,25,-1
 129 539 l 1,26,27
 138 536 138 536 148 536 c 0,28,29
 179 536 179 536 195.5 556 c 128,-1,30
 212 576 212 576 212 604.5 c 0,31,32
 212 633 212 633 195 650.5 c 128,-1,33
 178 668 178 668 147.5 668 c 0,34,35
 117 668 117 668 99 650 c 1,36,-1
 55 650 l 1,37,38
 68 675 68 675 92.5 690 c 128,-1,39
 117 705 117 705 154 705 c 0,40,41
 191 705 191 705 220 676 c 128,-1,42
 249 647 249 647 249 604 c 0,43,44
 249 545 249 545 200 515 c 1,45,46
 231 501 231 501 248 472 c 128,-1,47
 265 443 265 443 265 398 c 0,48,49
 265 353 265 353 231 317.5 c 128,-1,50
 197 282 197 282 145 282 c 0,51,52
 76 282 76 282 42 342 c 1,14,-1
587 300 m 1,53,-1
 471 133 l 1,54,-1
 587 133 l 1,55,-1
 587 300 l 1,53,-1
EndSplineSet
EndChar

StartChar: ae
Encoding: 230 230 199
Width: 745
Flags: MW
HStem: -1 37<608.5 705> 264 37<390 666 390 702 390 666> 474 36 480 20G<353 390 390 390> 491 20G<185 241>
VStem: 41 37<174 332 174 363> 353 37<37 111 238 264 440 500> 666 37<301 381.5 323.5 366>
LayerCount: 2
Fore
SplineSet
705 36 m 1,0,-1
 705 -1 l 1,1,2
 591 0 591 0 511.5 23 c 128,-1,3
 432 46 432 46 390 111 c 1,4,-1
 390 -1 l 1,5,6
 330 -1 330 -1 285 4 c 128,-1,7
 240 9 240 9 191.5 25.5 c 128,-1,8
 143 42 143 42 112 70 c 128,-1,9
 81 98 81 98 61 147.5 c 128,-1,10
 41 197 41 197 41 259 c 128,-1,11
 41 321 41 321 53.5 365.5 c 128,-1,12
 66 410 66 410 85.5 436.5 c 128,-1,13
 105 463 105 463 129 480.5 c 0,14,15
 170.828571429 511 170.828571429 511 212 511 c 0,16,17
 287 511 287 511 353 440 c 1,18,-1
 353 500 l 1,19,-1
 390 500 l 1,20,-1
 390 425 l 1,21,22
 417 469 417 469 454 489.5 c 128,-1,23
 491 510 491 510 523 510 c 0,24,25
 608 510 608 510 655.5 460 c 128,-1,26
 703 410 703 410 703 328 c 0,27,28
 703 273 703 273 702 264 c 1,29,-1
 390 264 l 1,30,-1
 390 238 l 1,31,32
 397 124 397 124 474 80 c 128,-1,33
 551 36 551 36 705 36 c 1,0,-1
78 264 m 0,34,35
 78 133.384615385 78 133.384615385 159 82.5 c 0,36,37
 231.428571429 37 231.428571429 37 353 37 c 1,38,-1
 353 390 l 1,39,40
 319 429 319 429 287.5 451.5 c 128,-1,41
 256 474 256 474 218 474 c 0,42,43
 155 474 155 474 116.5 418.5 c 128,-1,44
 78 363 78 363 78 264 c 0,34,35
666 301 m 1,45,-1
 666 323 l 2,46,47
 666 389 666 389 628.5 431 c 128,-1,48
 591 473 591 473 529.5 473 c 128,-1,49
 468 473 468 473 432.5 424.5 c 128,-1,50
 397 376 397 376 390 301 c 1,51,-1
 666 301 l 1,45,-1
EndSplineSet
EndChar

StartChar: onequarter
Encoding: 188 188 200
Width: 716
Flags: MW
HStem: 0 21G<31 75 31 31 552 589 552 552> 96 37<436 552 391 391 589 633> 680 20G<202 202 642 689 689 689>
VStem: 165 37<299 643 643 643> 552 37<0 96 133 300 300 300>
LayerCount: 2
Fore
SplineSet
589 0 m 1,0,-1
 552 0 l 1,1,-1
 552 96 l 1,2,-1
 391 96 l 1,3,-1
 391 133 l 1,4,-1
 589 420 l 1,5,-1
 589 133 l 1,6,-1
 633 133 l 1,7,-1
 633 96 l 1,8,-1
 589 96 l 1,9,-1
 589 0 l 1,0,-1
689 700 m 1,10,-1
 75 0 l 1,11,-1
 31 0 l 1,12,-1
 642 700 l 1,13,-1
 689 700 l 1,10,-1
202 299 m 1,14,-1
 165 299 l 1,15,-1
 165 643 l 1,16,-1
 63 599 l 1,17,-1
 63 637 l 1,18,-1
 202 700 l 1,19,-1
 202 299 l 1,14,-1
552 300 m 1,20,-1
 436 133 l 1,21,-1
 552 133 l 1,22,-1
 552 300 l 1,20,-1
EndSplineSet
EndChar

StartChar: multiply
Encoding: 215 215 201
Width: 469
Flags: MW
HStem: 140 21G<46 97 46 46 372 423 372 372> 481 20G<46 97 97 97 372 423 423 423>
LayerCount: 2
Fore
SplineSet
209 320 m 1,0,-1
 46 501 l 1,1,-1
 97 501 l 1,2,-1
 234 348 l 1,3,-1
 372 501 l 1,4,-1
 423 501 l 1,5,-1
 260 320 l 1,6,-1
 423 140 l 1,7,-1
 372 140 l 1,8,-1
 234 292 l 1,9,-1
 97 140 l 1,10,-1
 46 140 l 1,11,-1
 209 320 l 1,0,-1
EndSplineSet
EndChar

StartChar: yen
Encoding: 165 165 202
Width: 551
Flags: MW
HStem: -4 21G<258 295 258 258> 115 37<49 258 49 258 295 504> 198 37<49 258 49 258 295 504> 198 158<236 258 295 312 236 504 295 295> 680 20G<66 103 103 103 445 482 482 482>
VStem: 49 54 66 37<559 560 560 700> 258 37<-4 115 -4 115 152 198 235 316 316 316> 445 37<560 700>
LayerCount: 2
Fore
SplineSet
504 198 m 1,0,-1
 295 198 l 1,1,-1
 295 152 l 1,2,-1
 504 152 l 1,3,-1
 504 115 l 1,4,-1
 295 115 l 1,5,-1
 295 -4 l 1,6,-1
 258 -4 l 1,7,-1
 258 115 l 1,8,-1
 49 115 l 1,9,-1
 49 152 l 1,10,-1
 258 152 l 1,11,-1
 258 198 l 1,12,-1
 49 198 l 1,13,-1
 49 235 l 1,14,-1
 258 235 l 1,15,-1
 258 316 l 1,16,17
 178 323 178 323 122 388 c 128,-1,18
 66 453 66 453 66 559 c 2,19,-1
 66 700 l 1,20,-1
 103 700 l 1,21,-1
 103 560 l 2,22,23
 103 460 103 460 155.5 408 c 128,-1,24
 208 356 208 356 274 356 c 128,-1,25
 340 356 340 356 392.5 408 c 128,-1,26
 445 460 445 460 445 560 c 2,27,-1
 445 700 l 1,28,-1
 482 700 l 1,29,-1
 482 559 l 2,30,31
 482 455 482 455 428.5 389.5 c 128,-1,32
 375 324 375 324 295 317 c 1,33,-1
 295 235 l 1,34,-1
 504 235 l 1,35,-1
 504 198 l 1,0,-1
EndSplineSet
EndChar

StartChar: ampersand
Encoding: 38 38 203
Width: 506
Flags: MW
HStem: 0 37<190 260.5 190 265.5> 648 41<231 269.5>
VStem: 37 36<173 254.5 173 256.5> 118 40<528 588> 330 37<569 569>
LayerCount: 2
Fore
SplineSet
447 299 m 1,0,-1
 484 299 l 1,1,2
 435 179 435 179 397 117 c 1,3,-1
 473 0 l 1,4,-1
 431 0 l 1,5,-1
 375 85 l 1,6,7
 314 0 314 0 239 0 c 0,8,9
 146 0 146 0 91.5 64 c 128,-1,10
 37 128 37 128 37 203.5 c 128,-1,11
 37 279 37 279 75.5 334.5 c 128,-1,12
 114 390 114 390 169 403 c 1,13,14
 118 486 118 486 118 547 c 128,-1,15
 118 608 118 608 156.5 648.5 c 128,-1,16
 195 689 195 689 256 689 c 0,17,18
 300 689 300 689 333 656.5 c 128,-1,19
 366 624 366 624 367 569 c 1,20,-1
 330 569 l 1,21,22
 328 608 328 608 304.5 628 c 128,-1,23
 281 648 281 648 248.5 648 c 128,-1,24
 216 648 216 648 187 624.5 c 128,-1,25
 158 601 158 601 158 558 c 0,26,27
 158 492 158 492 231 377 c 2,28,-1
 376 150 l 1,29,30
 406 200 406 200 447 299 c 1,0,-1
109 317.5 m 128,-1,32
 73 273 73 273 73 210.5 c 128,-1,33
 73 148 73 148 121 92.5 c 128,-1,34
 169 37 169 37 233.5 37 c 128,-1,35
 298 37 298 37 355 117 c 1,36,-1
 192 367 l 1,37,31
 145 362 145 362 109 317.5 c 128,-1,32
EndSplineSet
EndChar

StartChar: question
Encoding: 63 63 204
Width: 452
Flags: MW
HStem: 0 21G<184 222 184 184> 660 40<169.5 216.5 163 262>
VStem: 187 37<170 266> 375 37<434.5 539.5>
LayerCount: 2
Fore
SplineSet
224 170 m 1,0,-1
 187 170 l 1,1,-1
 187 300 l 1,2,3
 262 305 262 305 318.5 357 c 128,-1,4
 375 409 375 409 375 486.5 c 128,-1,5
 375 564 375 564 330 612 c 128,-1,6
 285 660 285 660 218 660 c 128,-1,7
 151 660 151 660 111.5 631.5 c 128,-1,8
 72 603 72 603 68 565 c 1,9,-1
 31 565 l 1,10,11
 34 623 34 623 86.5 661.5 c 128,-1,12
 139 700 139 700 206 700 c 0,13,14
 224.8 700 224.8 700 259.9 693.5 c 128,-1,15
 295 687 295 687 317.5 673.5 c 128,-1,16
 340 660 340 660 363 639 c 0,17,18
 412 594.260869565 412 594.260869565 412 494.130434783 c 128,-1,19
 412 394 412 394 358.5 336.5 c 128,-1,20
 305 279 305 279 224 266 c 1,21,-1
 224 170 l 1,0,-1
184 66 m 1,22,-1
 222 66 l 1,23,-1
 222 0 l 1,24,-1
 184 0 l 1,25,-1
 184 66 l 1,22,-1
EndSplineSet
EndChar

StartChar: questiondown
Encoding: 191 191 205
Width: 452
Flags: MW
HStem: 0 40<235.5 282.5 190 289> 680 20G<230 268 268 268>
VStem: 40 37<160.5 265.5 160.5 277> 228 37<434 530 400 530>
LayerCount: 2
Fore
SplineSet
228 530 m 1,0,-1
 265 530 l 1,1,-1
 265 400 l 1,2,3
 190 395 190 395 133.5 343 c 128,-1,4
 77 291 77 291 77 213.5 c 128,-1,5
 77 136 77 136 122 88 c 128,-1,6
 167 40 167 40 234 40 c 128,-1,7
 301 40 301 40 340.5 68.5 c 128,-1,8
 380 97 380 97 384 135 c 1,9,-1
 421 135 l 1,10,11
 418 77 418 77 365.5 38.5 c 128,-1,12
 313 0 313 0 246 0 c 0,13,14
 227.2 0 227.2 0 192.1 6.5 c 128,-1,15
 157 13 157 13 134.5 26.5 c 128,-1,16
 112 40 112 40 89 61 c 0,17,18
 40 105.739130435 40 105.739130435 40 205.869565217 c 128,-1,19
 40 306 40 306 93.5 363.5 c 128,-1,20
 147 421 147 421 228 434 c 1,21,-1
 228 530 l 1,0,-1
268 634 m 1,22,-1
 230 634 l 1,23,-1
 230 700 l 1,24,-1
 268 700 l 1,25,-1
 268 634 l 1,22,-1
EndSplineSet
EndChar

StartChar: Euro
Encoding: 8364 8364 206
Width: 551
Flags: MW
HStem: 2 38<248.5 333.5 248.5 341.5> 277 37<35 79 35 82 35 79 119 119 119 490> 360 37<35 79 35 80 35 116 117 490> 651 39<257 342.5>
VStem: 80 37<397 397>
LayerCount: 2
Fore
SplineSet
82 277 m 1,0,-1
 35 277 l 1,1,-1
 35 314 l 1,2,-1
 79 314 l 1,3,-1
 79 360 l 1,4,-1
 35 360 l 1,5,-1
 35 397 l 1,6,-1
 80 397 l 1,7,8
 90 540 90 540 149.5 615 c 128,-1,9
 209 690 209 690 310 690 c 0,10,11
 438 690 438 690 492 564 c 1,12,-1
 449 564 l 1,13,14
 402 651 402 651 314.5 651 c 0,15,16
 227 651 227 651 176.5 587.5 c 128,-1,17
 126 524 126 524 117 397 c 1,18,-1
 490 397 l 1,19,-1
 490 360 l 1,20,-1
 116 360 l 1,21,-1
 116 347 l 2,22,23
 116 325 116 325 117 314 c 1,24,-1
 490 314 l 1,25,-1
 490 277 l 1,26,-1
 119 277 l 1,27,28
 131 173 131 173 177.5 106.5 c 128,-1,29
 224 40 224 40 308 40 c 0,30,31
 351 40 351 40 392.5 60 c 128,-1,32
 434 80 434 80 449 118 c 1,33,-1
 492 118 l 1,34,35
 473 59 473 59 419.5 30.5 c 128,-1,36
 366 2 366 2 307 2 c 0,37,38
 214 2 214 2 154.5 73.5 c 128,-1,39
 95 145 95 145 82 277 c 1,0,-1
EndSplineSet
EndChar

StartChar: sterling
Encoding: 163 163 207
Width: 334
Flags: MW
HStem: 6 34<223 247> 463 37<61 101 61 101 138 234> 714 37<235 266.5 235 271>
VStem: 101 37<188 463 500 504> 101 193<38 463>
LayerCount: 2
Fore
SplineSet
295 750 m 1,0,-1
 295 713 l 1,1,2
 289 714 289 714 268 714 c 0,3,4
 210 714 210 714 174 652 c 128,-1,5
 138 590 138 590 138 504 c 2,6,-1
 138 500 l 1,7,-1
 234 500 l 1,8,-1
 234 463 l 1,9,-1
 138 463 l 1,10,-1
 138 187 l 2,11,12
 138 127 138 127 125 80 c 1,13,14
 139 76 139 76 174.5 58 c 128,-1,15
 210 40 210 40 234 40 c 0,16,17
 274 40 274 40 294 75 c 1,18,-1
 294 38 l 1,19,20
 272 6 272 6 239.5 6 c 128,-1,21
 207 6 207 6 166.5 27.5 c 128,-1,22
 126 49 126 49 100 49 c 0,23,24
 58 49 58 49 34 17 c 1,25,-1
 34 53 l 1,26,27
 45 75 45 75 84 81 c 1,28,29
 101 130 101 130 101 188 c 2,30,-1
 101 463 l 1,31,-1
 61 463 l 1,32,-1
 61 500 l 1,33,-1
 101 500 l 1,34,-1
 101 505 l 2,35,36
 101 574 101 574 118 625.5 c 128,-1,37
 135 677 135 677 161.5 702.5 c 0,38,39
 211.901960784 751 211.901960784 751 262 751 c 0,40,41
 287 751 287 751 295 750 c 1,0,-1
EndSplineSet
EndChar

StartChar: asterisk
Encoding: 42 42 208
Width: 485
Flags: MW
HStem: 250 21G<225 262 225 225> 630 20G<225 262 262 262>
VStem: 225 37<250 409 250 411 250 411 492 650>
LayerCount: 2
Fore
SplineSet
217 450 m 1,0,-1
 54 601 l 1,1,-1
 105 601 l 1,2,-1
 225 490 l 1,3,-1
 225 650 l 1,4,-1
 262 650 l 1,5,-1
 262 492 l 1,6,-1
 380 601 l 1,7,-1
 431 601 l 1,8,-1
 268 450 l 1,9,-1
 431 300 l 1,10,-1
 380 300 l 1,11,-1
 262 409 l 1,12,-1
 262 250 l 1,13,-1
 225 250 l 1,14,-1
 225 411 l 1,15,-1
 105 300 l 1,16,-1
 54 300 l 1,17,-1
 217 450 l 1,0,-1
EndSplineSet
EndChar

StartChar: braceleft
Encoding: 123 123 209
Width: 342
Flags: MW
HStem: -100 37<241 244 244 318> 281 37<12 13> 663 37<208.5 318 244 318 244 318>
VStem: 101 37<2.5 51.5 2.5 55 546.5 595.5> 101 217<-100 55> 113 25 113 37<148 210 388.5 451>
LayerCount: 2
Fore
SplineSet
150 170 m 1,0,-1
 138 31 l 1,1,2
 138 -13 138 -13 164 -38 c 128,-1,3
 190 -63 190 -63 241 -63 c 2,4,-1
 318 -63 l 1,5,-1
 318 -100 l 1,6,-1
 244 -100 l 2,7,8
 101 -100 101 -100 101 32 c 0,9,10
 101 55 101 55 107 100.5 c 128,-1,11
 113 146 113 146 113 171 c 0,12,13
 113 276 113 276 13 281 c 1,14,-1
 12 318 l 1,15,16
 113 323 113 323 113 428 c 0,17,18
 113 452 113 452 107 497.5 c 128,-1,19
 101 543 101 543 101 566 c 0,20,21
 101 700 101 700 244 700 c 2,22,-1
 318 700 l 1,23,-1
 318 663 l 1,24,-1
 242 663 l 2,25,26
 193 663 193 663 165.5 637 c 128,-1,27
 138 611 138 611 138 567 c 1,28,-1
 150 429 l 1,29,30
 150 370 150 370 127.5 340.5 c 128,-1,31
 105 311 105 311 58 299 c 1,32,33
 105 287 105 287 127.5 258.5 c 128,-1,34
 150 230 150 230 150 170 c 1,0,-1
EndSplineSet
EndChar

StartChar: braceright
Encoding: 125 125 210
Width: 342
Flags: MW
HStem: -100 37<24 98 24 101> 281 37<329 330> 663 37<24 98 98 100 24 98>
VStem: 24 217<-100 55 -63 55> 192 37<148 210 146.5 211.5 388.5 451> 204 25 204 37<2.5 51.5 546.5 595.5>
LayerCount: 2
Fore
SplineSet
192 429 m 1,0,-1
 204 567 l 1,1,2
 204 611 204 611 176.5 637 c 128,-1,3
 149 663 149 663 100 663 c 2,4,-1
 24 663 l 1,5,-1
 24 700 l 1,6,-1
 98 700 l 2,7,8
 241 700 241 700 241 566 c 0,9,10
 241 543 241 543 235 497.5 c 128,-1,11
 229 452 229 452 229 428 c 0,12,13
 229 323 229 323 330 318 c 1,14,-1
 329 281 l 1,15,16
 229 276 229 276 229 171 c 0,17,18
 229 146 229 146 235 100.5 c 128,-1,19
 241 55 241 55 241 32 c 0,20,21
 241 -100 241 -100 98 -100 c 2,22,-1
 24 -100 l 1,23,-1
 24 -63 l 1,24,-1
 101 -63 l 2,25,26
 152 -63 152 -63 178 -38 c 128,-1,27
 204 -13 204 -13 204 31 c 1,28,-1
 192 170 l 1,29,30
 192 230 192 230 214.5 258.5 c 128,-1,31
 237 287 237 287 284 299 c 1,32,33
 237 311 237 311 214.5 340.5 c 128,-1,34
 192 370 192 370 192 429 c 1,0,-1
EndSplineSet
EndChar

StartChar: currency
Encoding: 164 164 211
Width: 568
Flags: MW
HStem: 1 85 49 37<260.5 305.5> 414 37<260.5 306 260.5 328> 414 86
VStem: 82 37<223.5 278> 447 37<224 277.5 224 298.5>
LayerCount: 2
Fore
SplineSet
534 500 m 1,0,-1
 432 387 l 1,1,2
 484 332 484 332 484 252 c 128,-1,3
 484 172 484 172 432 113 c 1,4,-1
 534 1 l 1,5,-1
 483 1 l 1,6,-1
 404 88 l 1,7,8
 351 49 351 49 284 49 c 128,-1,9
 217 49 217 49 163 87 c 1,10,-1
 85 1 l 1,11,-1
 34 1 l 1,12,-1
 135 113 l 1,13,14
 82 169 82 169 82 250.5 c 128,-1,15
 82 332 82 332 135 388 c 1,16,-1
 34 500 l 1,17,-1
 85 500 l 1,18,-1
 163 413 l 1,19,20
 217 451 217 451 284 451 c 128,-1,21
 351 451 351 451 404 412 c 1,22,-1
 483 500 l 1,23,-1
 534 500 l 1,0,-1
399.5 368 m 128,-1,25
 352 414 352 414 283 414 c 128,-1,26
 214 414 214 414 166.5 367.5 c 128,-1,27
 119 321 119 321 119 254.5 c 128,-1,28
 119 188 119 188 166.5 137 c 128,-1,29
 214 86 214 86 284.5 86 c 128,-1,30
 355 86 355 86 401 136 c 128,-1,31
 447 186 447 186 447 254 c 128,-1,24
 447 322 447 322 399.5 368 c 128,-1,25
EndSplineSet
EndChar

StartChar: eth
Encoding: 240 240 212
Width: 451
Flags: MW
HStem: -2 21G<193.5 258.5> 473 37<168 239 164.5 279> 697 20G<76 76>
VStem: 41 37<186 295.5 186 316> 373 37<199 316>
LayerCount: 2
Fore
SplineSet
358.5 453 m 128,-1,1
 410 356 410 356 410 278.5 c 128,-1,2
 410 201 410 201 397 149.5 c 128,-1,3
 384 98 384 98 364.5 70 c 128,-1,4
 345 42 345 42 318.5 25 c 0,5,6
 249.904128761 -19.0048985304 249.904128761 -19.0048985304 169 7 c 0,7,8
 141 16 141 16 110 39.5 c 128,-1,9
 79 63 79 63 60 114 c 128,-1,10
 41 165 41 165 41 239 c 0,11,12
 41 359 41 359 89 434.5 c 128,-1,13
 137 510 137 510 226 510 c 0,14,15
 264 510 264 510 295 496 c 1,16,17
 244 562 244 562 192 607 c 1,18,-1
 111 571 l 1,19,-1
 92 599 l 1,20,-1
 163 631 l 1,21,22
 114 669 114 669 64 685 c 1,23,-1
 76 717 l 1,24,25
 138 696 138 696 199 647 c 1,26,-1
 280 683 l 1,27,-1
 298 655 l 1,28,-1
 227 623 l 1,29,0
 307 550 307 550 358.5 453 c 128,-1,1
226 34 m 1,30,31
 373 48 373 48 373 264 c 0,32,33
 373 353 373 353 337 413 c 128,-1,34
 301 473 301 473 222 473 c 0,35,36
 183 473 183 473 154 453 c 128,-1,37
 125 433 125 433 109 398.5 c 0,38,39
 78 331.65625 78 331.65625 78 242.328125 c 128,-1,40
 78 153 78 153 114 96.5 c 128,-1,41
 150 40 150 40 226 34 c 1,30,31
EndSplineSet
EndChar

StartChar: florin
Encoding: 402 402 213
Width: 229
Flags: MW
HStem: -129 37<-43.5 -14> 463 37<40 80 40 80 117 213> 714 37<214 245.5 214 250>
VStem: 80 37<75 463 500 504>
LayerCount: 2
Fore
SplineSet
213 500 m 1,0,-1
 213 463 l 1,1,-1
 117 463 l 1,2,-1
 117 74 l 2,3,4
 117 15 117 15 100 -28 c 128,-1,5
 83 -71 83 -71 57 -91 c 0,6,7
 7.6 -129 7.6 -129 -39 -129 c 0,8,9
 -64 -129 -64 -129 -72 -128 c 1,10,-1
 -72 -91 l 1,11,12
 -66 -92 -66 -92 -45 -92 c 0,13,14
 19 -92 19 -92 49.5 -46 c 128,-1,15
 80 0 80 0 80 75 c 2,16,-1
 80 463 l 1,17,-1
 40 463 l 1,18,-1
 40 500 l 1,19,-1
 80 500 l 1,20,-1
 80 505 l 2,21,22
 80 574 80 574 97 625.5 c 128,-1,23
 114 677 114 677 140.5 702.5 c 0,24,25
 190.901960784 751 190.901960784 751 241 751 c 0,26,27
 266 751 266 751 274 750 c 1,28,-1
 274 713 l 1,29,30
 268 714 268 714 247 714 c 0,31,32
 189 714 189 714 153 652 c 128,-1,33
 117 590 117 590 117 504 c 2,34,-1
 117 500 l 1,35,-1
 213 500 l 1,0,-1
EndSplineSet
EndChar

StartChar: germandbls
Encoding: 223 223 214
Width: 468
Flags: MW
HStem: -51 21G<70 107 70 70> 1 37<197 257.5> 713 38<178 240.5>
VStem: 70 37<-51 481 -51 482 -51 592> 192 240<144.5 436 144.5 436> 304 40<581.5 641.5> 391 41<168.5 259>
LayerCount: 2
Fore
SplineSet
206 393 m 1,0,-1
 192 392 l 1,1,-1
 192 436 l 1,2,3
 229 442 229 442 266.5 497.5 c 128,-1,4
 304 553 304 553 304 616 c 0,5,6
 304 654 304 654 278 683.5 c 128,-1,7
 252 713 252 713 217 713 c 0,8,9
 159 713 159 713 133 658.5 c 128,-1,10
 107 604 107 604 107 481 c 2,11,-1
 107 -51 l 1,12,-1
 70 -51 l 1,13,-1
 70 482 l 2,14,15
 70 685.532258065 70 685.532258065 138 730.5 c 0,16,17
 169 751 169 751 217.5 751 c 128,-1,18
 266 751 266 751 305 715 c 128,-1,19
 344 679 344 679 344 621.5 c 128,-1,20
 344 564 344 564 318 513.5 c 128,-1,21
 292 463 292 463 246 428 c 1,22,23
 333 416 333 416 382.5 356 c 128,-1,24
 432 296 432 296 432 217 c 0,25,26
 432 114 432 114 363.5 57.5 c 128,-1,27
 295 1 295 1 197 1 c 1,28,-1
 197 38 l 1,29,30
 285 38 285 38 338 90 c 128,-1,31
 391 142 391 142 391 214 c 128,-1,32
 391 286 391 286 341.5 339.5 c 128,-1,33
 292 393 292 393 206 393 c 1,0,-1
EndSplineSet
EndChar

StartChar: perthousand
Encoding: 8240 8240 215
Width: 954
Flags: MW
HStem: 0 21G<143 180 143 143> 1 37<448.5 508 448.5 514.5 759.5 819> 231 37<138.5 198 138.5 204.5> 462 37<139.5 194.5> 480 20G<462 499 499 499>
VStem: 33 37<341.5 394.5 341.5 404> 264 37<340.5 394.5> 343 37<111.5 164.5 111.5 174> 574 37<110.5 164.5> 654 37<111.5 164.5 111.5 174> 885 37<110.5 164.5>
LayerCount: 2
Fore
SplineSet
180 0 m 1,0,-1
 143 0 l 1,1,-1
 462 500 l 1,2,-1
 499 500 l 1,3,-1
 180 0 l 1,0,-1
262.5 269.5 m 128,-1,5
 224 231 224 231 167.5 231 c 128,-1,6
 111 231 111 231 72 270 c 128,-1,7
 33 309 33 309 33 366 c 128,-1,8
 33 423 33 423 72 461 c 128,-1,9
 111 499 111 499 167.5 499 c 128,-1,10
 224 499 224 499 262.5 461 c 128,-1,11
 301 423 301 423 301 365.5 c 128,-1,4
 301 308 301 308 262.5 269.5 c 128,-1,5
236.5 435.5 m 128,-1,13
 209 462 209 462 167.5 462 c 128,-1,14
 126 462 126 462 98 435 c 128,-1,15
 70 408 70 408 70 367.5 c 128,-1,16
 70 327 70 327 97.5 297.5 c 128,-1,17
 125 268 125 268 168 268 c 128,-1,18
 211 268 211 268 237.5 297 c 128,-1,19
 264 326 264 326 264 367.5 c 128,-1,12
 264 409 264 409 236.5 435.5 c 128,-1,13
572.5 39.5 m 128,-1,21
 534 1 534 1 477.5 1 c 128,-1,22
 421 1 421 1 382 40 c 128,-1,23
 343 79 343 79 343 136 c 128,-1,24
 343 193 343 193 382 231 c 128,-1,25
 421 269 421 269 477.5 269 c 128,-1,26
 534 269 534 269 572.5 231 c 128,-1,27
 611 193 611 193 611 135.5 c 128,-1,20
 611 78 611 78 572.5 39.5 c 128,-1,21
546.5 205.5 m 128,-1,29
 519 232 519 232 477.5 232 c 128,-1,30
 436 232 436 232 408 205 c 128,-1,31
 380 178 380 178 380 137.5 c 128,-1,32
 380 97 380 97 407.5 67.5 c 128,-1,33
 435 38 435 38 478 38 c 128,-1,34
 521 38 521 38 547.5 67 c 128,-1,35
 574 96 574 96 574 137.5 c 128,-1,28
 574 179 574 179 546.5 205.5 c 128,-1,29
788 1 m 128,-1,37
 732 1 732 1 693 40 c 128,-1,38
 654 79 654 79 654 136 c 128,-1,39
 654 193 654 193 693 231 c 128,-1,40
 732 269 732 269 788.5 269 c 128,-1,41
 845 269 845 269 883.5 231 c 128,-1,42
 922 193 922 193 922 135.5 c 128,-1,43
 922 78 922 78 883 39.5 c 128,-1,36
 844 1 844 1 788 1 c 128,-1,37
857.5 205.5 m 128,-1,45
 830 232 830 232 788.5 232 c 128,-1,46
 747 232 747 232 719 205 c 128,-1,47
 691 178 691 178 691 137.5 c 128,-1,48
 691 97 691 97 718.5 67.5 c 128,-1,49
 746 38 746 38 789 38 c 128,-1,50
 832 38 832 38 858.5 67 c 128,-1,51
 885 96 885 96 885 137.5 c 128,-1,44
 885 179 885 179 857.5 205.5 c 128,-1,45
EndSplineSet
EndChar

StartChar: d
Encoding: 100 100 216
Width: 460
Flags: MW
HStem: -1 38<276.5 390> 474 37<185 241 185 246> 730 20G<353 390 390 390>
VStem: 41 37<174 318.5 174 363> 353 37<37 390 390 390 440 750 -1 750>
LayerCount: 2
Fore
SplineSet
353 750 m 1,0,-1
 390 750 l 1,1,-1
 390 -1 l 1,2,3
 330 -1 330 -1 285 4 c 128,-1,4
 240 9 240 9 191.5 25.5 c 128,-1,5
 143 42 143 42 112 70 c 128,-1,6
 81 98 81 98 61 147.5 c 128,-1,7
 41 197 41 197 41 259 c 128,-1,8
 41 321 41 321 53.5 365.5 c 128,-1,9
 66 410 66 410 85.5 436.5 c 128,-1,10
 105 463 105 463 129 480.5 c 0,11,12
 170.828571429 511 170.828571429 511 212 511 c 0,13,14
 287 511 287 511 353 440 c 1,15,-1
 353 750 l 1,0,-1
118.5 411 m 128,-1,17
 78 348 78 348 78 273.5 c 128,-1,18
 78 199 78 199 99 153 c 128,-1,19
 120 107 120 107 159 82.5 c 0,20,21
 231.428571429 37 231.428571429 37 353 37 c 1,22,-1
 353 390 l 1,23,24
 319 429 319 429 287.5 451.5 c 128,-1,25
 256 474 256 474 218 474 c 0,26,16
 159 474 159 474 118.5 411 c 128,-1,17
EndSplineSet
EndChar
